<svg width="737" height="719" viewBox="0 0 737 719" fill="none" xmlns="http://www.w3.org/2000/svg">
<path d="M501.522 185.528C501.523 186.547 501.222 187.544 500.657 188.392C500.091 189.241 499.287 189.902 498.346 190.293C497.405 190.684 496.368 190.787 495.369 190.589C494.369 190.391 493.45 189.901 492.729 189.181C492.007 188.46 491.516 187.542 491.317 186.543C491.117 185.543 491.219 184.507 491.609 183.565C491.999 182.623 492.659 181.818 493.506 181.252C494.354 180.685 495.35 180.383 496.369 180.383C497.735 180.383 499.044 180.925 500.01 181.889C500.976 182.854 501.52 184.163 501.522 185.528Z" fill="#F0D0D1"/>
<path d="M266.275 266.209C266.275 266.209 259.683 251.606 268.473 240.1C277.262 228.595 294.193 229.502 296.649 231.181C299.106 232.86 289.409 215.547 272.219 219.294C255.029 223.04 252.573 241.131 253.862 249.531C255.152 257.932 266.275 266.209 266.275 266.209Z" fill="#ECECEC"/>
<path d="M234.98 280.581C234.98 280.581 244.575 290.087 250.676 292.557C256.776 295.027 264.29 285.153 264.29 285.153C264.29 285.153 269.223 297.579 274.983 300.848C280.742 304.117 289.607 302.677 293.626 301.947C297.646 301.217 303.317 284.122 303.317 284.122C303.317 284.122 312.188 293.082 316.753 292.809C321.318 292.536 330.64 283.672 331.923 276.541C333.206 269.41 325.706 263.193 325.618 260.272C325.529 257.351 326.982 248.296 326.982 248.296C326.982 248.296 313.641 251.865 314.829 257.072C316.016 262.278 323.516 268.311 321.318 274.896C319.121 281.481 316.542 284.675 311.812 285.951C307.083 287.227 293.258 278.643 293.258 278.643C291.767 280.788 290.635 283.162 289.907 285.671C288.72 289.766 287.178 294.72 280.858 296.003C274.539 297.286 269.258 294.904 266.419 286.674C263.58 278.445 258.632 277.018 255.357 278.936C252.081 280.854 247.134 285.078 245.032 285.426C242.93 285.774 234.98 280.581 234.98 280.581Z" fill="#ECECEC"/>
<path d="M199.065 427.612C199.065 427.612 203.589 446.719 218.172 447.777C232.755 448.835 344.677 449.517 351.167 447.777C357.656 446.037 367.845 444.802 369.135 433.685C370.424 422.569 358.666 417.273 358.666 417.273C358.666 417.273 363.58 433.563 343.285 433.945C322.99 434.327 223.222 434.327 217.04 435.883C210.857 437.439 199.065 427.612 199.065 427.612Z" fill="#ECECEC"/>
<path d="M385.779 344.358C385.779 344.358 373.352 365.213 374.642 383.488C375.932 401.763 375.372 477.264 360.018 499.197C344.664 521.129 312.495 532.464 312.495 532.464C312.495 532.464 292.262 552.629 283.834 546.29C278.705 542.275 275.028 536.694 273.366 530.396C273.366 530.396 197.325 520.761 196.226 539.773C195.128 558.784 211.239 562.442 247.775 562.442H369.285C369.285 562.442 390.167 565.172 390.167 541.601C390.167 518.031 390.399 357.003 390.399 357.003L385.779 344.358Z" fill="#ECECEC"/>
<path d="M458.987 158.662C458.987 158.662 456.885 172.003 462.959 175.155C469.032 178.308 464.719 159.713 464.719 159.713L458.987 158.662Z" fill="#3C2E27"/>
<path d="M526.894 156.191C523.741 155.14 511.267 151.353 510.072 155.052C508.878 158.75 513.778 176.343 515.286 173.879C516.794 171.416 515.968 164.005 521.271 162.278C526.573 160.552 526.894 156.191 526.894 156.191Z" fill="#3C2E27"/>
<path d="M460.175 369.607C460.175 369.607 458.168 379.475 462.004 384.231C465.839 388.988 486.679 390.994 494.909 390.537C503.139 390.08 527.167 385.76 527.167 385.76C527.167 385.76 520.042 376.165 522.049 371.047C524.055 365.929 525.338 371.32 528.443 373.094C531.548 374.869 535.758 374.459 536.945 370.897C538.133 367.335 535.301 361.944 535.301 361.944C535.301 361.944 537.034 358.928 541.518 362.401C546.001 365.875 548.553 368.065 547.182 360.204C545.81 352.342 542.337 344.577 541.968 344.508C541.6 344.44 519.728 325.442 519.728 325.442C519.728 325.442 518.207 349.715 513.914 357.849C509.622 365.984 484.571 366.891 484.571 366.891L460.175 369.607Z" fill="#0063F5"/>
<path d="M480.763 223.62C480.763 223.62 456.53 231.502 454.722 234.02C452.914 236.538 456.087 251.858 456.271 260.777C456.455 269.696 457.213 276.029 457.213 276.029C457.213 276.029 486.106 273.634 495.516 270.345C504.927 267.055 508.864 265.042 508.482 270.891C508.1 276.739 508.571 287.616 508.571 287.616C508.571 287.616 520.028 287.091 524.021 293.758C528.013 300.425 530.967 298.323 535.164 299.606C539.361 300.889 539.832 300.882 539.832 300.882C539.832 300.882 538.822 278.124 541.661 264.599C544.5 251.073 552.081 234.805 557.834 231.065C563.587 227.326 565.6 227.135 565.6 227.135L531.698 212.415C531.698 212.415 523.877 241.103 517.947 249.599C512.017 258.095 494.827 256.273 494.827 256.273C494.827 256.273 477.003 256.915 475.815 247.402C474.628 237.889 480.776 223.613 480.776 223.613L480.763 223.62Z" fill="#0063F5"/>
<path d="M538.228 396.378C538.228 396.378 533.295 403.885 508.155 403.325C483.015 402.765 465.846 395.279 463.737 395.191C461.628 395.102 462.092 400.855 461.546 412.19C461 423.524 459.902 457.228 459.54 467.465C459.178 477.701 459.902 513.527 460.359 522.487C460.816 531.447 459.172 536.749 467.674 539.117C476.177 541.485 486.222 538.203 486.591 533.18C486.959 528.158 490.685 471.491 492.985 457.501C495.285 443.512 499.202 425.333 499.202 425.333C499.202 425.333 483.759 420.14 485.676 416.011C487.594 411.882 499.932 421.47 509.526 421.586C519.121 421.702 516.296 426.363 516.296 426.363C516.296 426.363 526.532 464.837 530.005 480.553C533.479 496.269 547.004 527.53 545.08 532.286C543.155 537.043 560.618 535.849 567.388 529.912C574.157 523.975 572.049 525.612 568.391 516.202C564.733 506.792 556.79 492.318 554.129 464.564C552.534 447.73 552.443 430.787 553.856 413.937L541.518 392.277L538.228 396.378Z" fill="#3D414B"/>
<path d="M456.339 155.004C456.339 155.004 466.575 152.902 467.667 143.403C468.759 133.904 474.71 120.372 481.834 114.892C488.958 109.412 498.376 108.402 506.967 112.879C515.559 117.356 525.065 124.398 527.624 135.726C530.183 147.054 529.671 148.344 523.42 149.374C517.169 150.405 509.526 148.091 501.399 150.289C493.271 152.486 499.024 155.864 486.502 158.969C473.98 162.074 456.339 155.038 456.339 155.038V155.004Z" fill="#0063F5"/>
<path d="M501.897 203.394C501.897 203.394 503.316 210.115 499.959 215.929C496.602 221.743 492.2 221.614 492.2 221.614C492.2 221.614 491.333 213.336 494.527 209.078C496.422 206.549 498.97 204.584 501.897 203.394Z" fill="#F2D0B9"/>
<path d="M200.457 88.8242C183.868 88.8242 171.653 88.9539 170.807 89.1654C163.655 90.9806 157.636 97.4567 155.589 105.543C155.145 107.29 154.749 148.699 154.49 221.204C154.265 283.645 153.76 341.465 153.351 350.521C152.498 369.553 152.436 413.302 153.235 424.221C153.542 428.349 153.514 441.281 153.166 452.882C152.75 467.165 152.798 481.679 153.323 497.579C153.774 511.228 153.903 530.335 153.644 542.96C153.248 562.347 153.33 565.411 154.395 570.256C155.671 576.07 158.059 581.563 160.407 584.075L161.84 585.61H167.743L165.047 582.914C161.942 579.81 160.837 577.865 159.219 572.644C158.162 569.232 158.032 562.408 157.807 496.897C157.67 457.317 157.363 415.848 157.124 404.772C156.865 392.871 157.008 376.548 157.479 364.851C157.964 352.745 158.387 299.75 158.571 228.37C158.735 164.223 159.021 110.375 159.199 108.785C159.922 102.431 165.634 95.0137 170.8 93.6966C174.614 92.7276 183.868 92.6593 238.017 93.1643C340.071 94.1197 384.81 94.9932 388.829 96.1055C395.783 98.0299 400.164 101.305 402.832 106.58C405.5 111.855 406.155 117.738 405.616 130.785C404.251 164.694 403.931 204.485 404.811 241.274L405.432 268.884L409.444 270.727L408.933 239.807C408.407 208.662 408.83 171.341 410.052 147.682C410.461 139.705 410.666 128.342 410.502 122.433C410.256 113.357 409.97 111.071 408.673 107.761C406.455 102.09 402.716 97.7023 397.905 95.1365C390.869 91.3901 387.894 90.9533 366.419 90.5575C355.65 90.3596 337.171 89.9638 325.351 89.6841C313.532 89.4043 294.793 89.1586 283.724 89.1381C272.656 89.1177 243.169 89.0085 218.213 88.8856C211.969 88.8515 205.93 88.8447 200.43 88.8447L200.457 88.8242ZM223.475 102.472C221.291 102.472 217.893 102.663 211.874 103.018C204.292 103.476 195.885 103.837 193.189 103.837C186.4 103.837 178.914 105.502 176.047 107.693C174.484 109.03 173.224 110.683 172.349 112.545C171.059 115.452 170.984 117.492 170.704 151.176C170.349 196.358 169.285 252.288 168.323 276.466C167.906 286.791 167.497 326.097 167.408 363.814C167.319 401.531 167.006 444.338 166.726 459.01C166.234 484.409 166.35 490.134 168.35 536.579C168.903 549.415 169.032 550.166 170.882 553.933C173.297 558.778 176.525 562.122 180.626 564.025C183.595 565.39 184.646 565.458 200.136 565.261C209.144 565.145 252.907 564.831 297.379 564.578L378.258 564.094C384.83 564.094 391.258 555.68 391.763 551.06C392.657 542.925 393.06 521.716 393.544 455.018C393.92 403.407 394.377 359.208 394.561 358.798L390.392 355.188L389.887 364.687C389.661 368.911 389.272 411.869 389.136 460.163C388.924 538.64 388.788 548.241 387.812 550.568C386.004 554.895 382.994 557.427 377.617 559.153C376.341 559.562 345.052 560.04 297.393 560.375C254.401 560.675 212.038 561.112 203.221 561.33C185.717 561.773 183.533 561.48 179.03 558.048C175.85 555.618 173.072 549.531 172.786 544.345C172.656 542.086 172.205 528.868 171.776 515.001C170.772 482.102 172.049 291.424 173.516 255.195C174.396 233.42 174.88 193.533 174.88 135.924C174.88 115.117 175.017 114.305 178.525 111.132C180.572 109.283 189.525 108.15 208.653 107.324C224.99 106.642 225.413 106.642 228.313 108.041C230.176 108.942 232.578 111.084 234.734 113.78C236.748 116.442 239.307 118.643 242.241 120.235C246.26 122.378 246.404 122.399 260.761 123.067C268.718 123.436 282.442 123.647 291.265 123.525L303.548 123.354C306.294 123.326 308.986 122.588 311.362 121.211C314.412 119.546 316.425 117.963 319.551 114.121C321.816 111.35 324.43 108.785 325.365 108.423C327.289 107.686 349.836 108.205 365.968 109.358C381.049 110.443 384.7 112.497 387.491 121.471C390.549 131.277 390.781 138.121 390.153 200.371C389.989 216.134 390.112 234.675 390.433 241.567L390.999 256.881L395.564 263.2L394.882 248.74C394.554 241.786 394.384 223.286 394.65 203.018C395.332 151.626 395.216 139.554 393.967 131.133C391.859 116.728 389.266 111.733 381.991 108.061C378.279 106.178 376.293 105.693 369.708 105.031C361.464 104.199 338.645 104.39 327.91 104.39C321.161 104.39 319.039 107.973 316.773 110.729C314.508 113.486 311.717 116.673 310.318 117.308C308.03 118.389 305.519 118.916 302.989 118.843L277.644 118.68L251.515 118.482C248.314 118.707 245.837 118.1 244.104 116.619C242.582 115.322 239.771 113.309 238.303 111.501C234.714 107.106 232.844 105.53 228.941 103.701C227.276 102.775 225.384 102.338 223.482 102.438L223.475 102.472ZM278.258 103.25C274.928 103.25 271.537 103.4 267.401 103.694C255.841 104.52 253.023 105.229 254.436 106.928C255.118 107.72 259.212 107.938 276.825 108.102C305.268 108.368 303.146 108.443 303.398 107.14C303.726 105.379 300.136 104.533 288.761 103.68C284.871 103.394 281.595 103.25 278.258 103.257V103.25ZM240.412 169.382H238.535C230.913 169.444 226.764 170.502 226.764 172.392C226.764 173.613 227.235 173.695 233.247 173.511L239.73 173.32L236.591 175.415C232.496 178.145 222.669 188.381 219.367 193.417C215.067 199.927 210.761 209.795 208.51 218.311C206.51 225.818 206.387 227.053 206.346 238.933C206.305 252.582 207.145 258.402 210.543 267.936C217.067 286.258 229.753 298.917 245.4 302.738C250.675 304.021 254.722 304.042 255.766 302.786C256.81 301.531 256.858 301.612 249.434 299.729C234.537 295.955 222.71 285.487 216.234 270.386C205.869 246.194 209.144 214.899 224.28 193.615C227.091 189.664 237.416 178.82 240.419 176.671L242.466 175.203L240.89 177.53C238.208 181.625 235.287 187.657 235.287 189.131C235.287 191.97 237.205 190.319 241.988 183.385C247.632 175.197 248.403 172.931 246.274 170.802C245.168 169.696 244.315 169.437 240.398 169.437L240.412 169.382ZM310.168 178.254C308.646 178.254 307.513 178.574 306.954 179.25C305.971 180.431 305.869 180.376 312.345 181.98C316.61 183.051 323.666 186.292 327.726 189.056C335.362 194.243 343.012 204.99 346.458 215.397C350.867 228.598 351.813 242.709 349.207 256.38C346.601 270.051 340.53 282.825 331.575 293.478C328.402 297.225 318.8 305.816 317.783 305.816C317.483 305.816 318.759 303.305 320.622 300.241C324.034 294.618 324.778 292.168 323.072 292.168C322.178 292.168 313.396 303.168 311.799 306.287C310.202 309.406 311.546 312.176 315.136 312.831C318.425 313.432 325.74 313.207 328.784 312.415C331.111 311.808 331.855 311.296 331.855 310.279C331.855 309.03 331.432 308.948 325.884 309.139C319.947 309.344 318.468 308.755 321.448 307.372C324.526 305.932 333.731 297.375 337.983 292.032C342.603 286.19 348.301 275.483 350.553 268.441C353.89 257.986 354.886 250.459 354.545 238.374C354.258 228.547 353.931 225.913 352.136 219.034C348.642 205.652 341.333 193.656 332.701 187.145C325.945 182.041 315.586 178.199 310.181 178.226L310.168 178.254ZM278.224 186.497C275.406 186.497 272.683 186.811 271.079 187.425C267.176 188.913 266.241 190.38 264.255 198.105C262.734 204.09 261.928 205.495 259.997 205.516C259.52 205.516 256.585 204.247 253.514 202.684C244.302 198.03 240.385 198.794 234.83 206.355C231.179 211.316 231.179 213.07 234.83 220.379C237.594 225.879 237.839 226.725 236.945 227.619C236.051 228.513 229.077 231.461 227.685 231.461C225.87 231.461 223.045 233.679 222.362 235.631C220.718 240.339 222.178 249.702 224.942 252.199C225.658 252.848 227.849 253.803 229.807 254.322C233.731 255.359 236.079 257.181 237.314 260.149C238.242 262.395 236.966 267.253 234.154 272.18C231.077 277.558 232.346 280.683 239.614 285.699C244.309 288.933 245.858 288.729 251.993 284.02C255.357 281.447 257.049 280.608 258.817 280.608C261.676 280.608 262.57 281.843 264.522 288.497C265.955 293.39 267.64 295.662 270.731 296.897C271.673 297.272 275.222 297.579 278.62 297.62C285.601 297.675 287.055 296.938 288.952 292.277C289.504 290.912 290.76 288.019 291.729 285.822C293.49 281.857 293.524 281.829 296.001 282.157C297.366 282.341 300.205 283.631 302.3 285.016C307.39 288.428 310.693 288.817 314.542 286.559C316.45 285.363 318.164 283.883 319.626 282.171C320.98 280.448 322.199 278.623 323.27 276.711C324.089 275.237 324.143 272.105 323.352 270.413C322.669 268.98 321.803 267.178 320.847 265.281C315.743 255.182 315.961 254.67 326.989 250.452C332.544 248.337 333.711 246.262 334.073 237.869C334.345 231.666 334.318 231.522 332.394 229.605C331.029 228.24 328.982 227.285 325.733 226.473C319.592 224.93 317.128 223.627 317.128 221.9C317.128 221.143 318.363 218.277 319.858 215.54C321.352 212.804 322.588 209.842 322.588 208.962C322.588 204.028 312.351 195.86 307.684 197.034C306.728 197.279 304.081 198.944 301.808 200.739C300.014 202.198 298.137 203.552 296.185 204.793C294.5 205.673 294.595 205.864 293.244 199.04C292.139 193.444 289.832 189.077 287.396 187.876C285.587 186.989 281.793 186.511 278.163 186.545L278.224 186.497ZM277.119 190.865C285.342 190.865 286.133 191.226 287.703 195.464C288.495 197.666 289.093 199.934 289.491 202.24C290.125 206.567 292.07 208.942 294.95 208.942C296.602 208.942 298.601 207.952 302.3 205.291C305.097 203.284 307.759 201.435 308.155 201.196C310.018 200.043 317.831 206.389 317.831 209.058C317.831 209.836 316.733 212.251 315.388 214.428C314.044 216.605 312.775 219.642 312.57 221.17C311.887 226.357 314.719 228.622 324.655 230.799L329.773 231.925L329.978 235.774C330.084 238.009 329.898 240.247 329.425 242.434C328.743 244.98 328.299 245.409 324.785 246.89C316.2 250.521 313.054 253.387 313.054 257.577C313.054 259.433 316.603 267.376 318.889 270.638C319.45 271.474 319.786 272.439 319.865 273.443C319.865 275.347 315.525 281.065 312.863 282.71C310.202 284.354 308.619 284.075 303.521 280.949C298.813 278.076 293.967 276.711 291.995 277.844C290.446 278.738 288.706 281.386 287.3 286.668C285.321 293.28 283.615 293.546 278.252 293.403C271.073 293.628 269.981 292.891 268.145 286.579C266.453 280.772 264.638 278.131 261.396 276.773C258.155 275.415 255.05 276.438 249.379 280.71L246.595 282.805C245.339 284.17 244.077 283.843 242.814 283.058L240.33 281.563C239.483 281.022 238.708 280.376 238.024 279.639C237.341 278.957 236.481 278.274 237.212 276.022C237.645 274.732 238.151 273.468 238.727 272.235C243.974 260.9 241.456 253.284 231.507 250.398C229.016 249.715 227.856 248.931 227.201 247.593C225.916 244.825 225.495 241.733 225.993 238.722C226.416 236.443 226.675 236.265 232.046 234.477C238.065 232.478 242.091 229.38 242.091 226.746C242.091 225.954 240.726 222.542 239.006 219.164C236.106 213.391 235.976 212.913 236.891 211.159C238.426 208.198 242.841 204.178 244.541 204.178C245.387 204.178 248.635 205.407 251.72 206.908C258.776 210.32 261.806 210.491 264.685 207.638C265.784 206.546 266.678 205.004 266.678 204.226C266.678 201.749 269.36 193.021 270.452 191.943C271.23 191.158 272.963 190.892 277.112 190.892L277.119 190.865ZM279.48 216.714C277.666 216.716 275.855 216.828 274.055 217.049C270.356 217.465 266.187 218.284 264.795 218.871C258.899 221.32 253.985 229.107 251.911 239.295C250.089 248.241 252.32 255.871 258.735 262.695C262.358 266.537 265.361 268.652 269.326 270.147C272.349 271.286 281.8 270.863 286.816 269.376C296.895 266.373 302.846 256.464 302.846 242.673C302.846 232.246 299.904 226.2 292.377 221.177C287.696 218.052 284.305 216.769 279.466 216.714H279.48ZM278.886 220.966C282.496 220.966 285.185 222.057 289.252 224.664C295.428 228.629 298.076 234.061 298.076 242.816C298.076 253.851 292.889 262.729 285.11 264.913C282.41 265.471 279.673 265.827 276.921 265.977C269.817 266.448 267.074 265.295 261.963 259.713C255.732 252.889 254.36 245.546 257.472 235.699C259.356 229.728 262.249 225.197 265.156 223.702C266.207 223.156 269.817 222.214 273.188 221.6C275.065 221.218 276.972 221.006 278.886 220.966ZM301.494 338.804C301.115 338.796 300.735 338.825 300.362 338.892C299.679 339.022 290.194 339.316 279.309 339.575C240.985 340.394 236.754 340.789 238.365 343.403C238.815 344.133 245.598 344.215 275.058 343.867C312.222 343.417 314.569 343.226 312.188 340.844C311.342 339.943 304.695 338.77 301.494 338.776V338.804ZM406.496 364.96L406.135 374.221C404.722 406.771 404.224 472.119 405.179 499.988C405.541 510.491 405.862 528.916 405.957 540.933C406.053 559.412 405.896 563.398 404.941 566.864C403.132 573.409 400.457 578.199 396.465 582.048L392.746 585.624H399.665L402.081 582.676C405.022 579.086 407.54 573.804 409.021 567.881C410.318 562.838 410.386 557.645 409.772 464.496C409.479 416.544 410.079 366.755 410.98 365.861L406.496 364.96ZM343.578 374.384C339.941 374.384 334.25 374.623 325.652 375.012C287.478 376.766 258.653 377.585 228.811 377.742C203.528 377.892 200.15 378.035 199.938 378.97C199.638 380.519 200.737 380.949 206.537 381.57C216.412 382.614 290.166 381.29 324.689 379.441C340.514 378.595 347.209 377.742 348.54 376.391C349.87 375.04 349.638 374.343 343.578 374.343V374.384ZM317.702 409.187C278.354 409.112 217.476 410.231 208.728 411.719C205.145 412.326 203.835 412.934 201.604 415.015C199.045 417.403 198.874 417.861 198.581 422.003C198.226 427.578 199.461 430.396 203.903 434.116C205.827 435.892 208.231 437.062 210.816 437.48C217.026 438.572 344.93 436.722 351.092 435.433C355.445 434.532 357.916 432.669 359.567 429.032C360.397 427.248 360.833 425.308 360.848 423.341C360.863 421.374 360.456 419.427 359.654 417.631C358.852 415.836 357.673 414.233 356.199 412.931C354.724 411.63 352.987 410.66 351.105 410.088C349.058 409.481 335.587 409.201 317.702 409.167V409.187ZM292.07 412.954H302.156V432.062H281.65L282.435 430.526C282.871 429.687 285.219 425.381 287.662 420.972L292.07 412.954ZM306.244 412.954L315.286 413.009C335.267 413.132 349.468 413.991 351.788 415.22C354.517 416.673 356.06 419.533 356.06 423.197C356.06 426.984 354.524 429.7 351.815 430.704C350.368 431.229 341.961 431.652 327.931 431.905L306.264 432.294V412.981L306.244 412.954ZM262.754 413.637H287.123L284.298 418.243C282.749 420.775 280.422 424.937 279.139 427.496C277.856 430.055 276.443 432.273 276 432.389C274.751 432.771 253.016 433.385 253.016 433.071C253.016 432.901 254.538 430.076 256.428 426.8C258.318 423.525 260.475 419.219 261.294 417.246L262.754 413.637ZM250.143 414.319C254.238 414.319 257.793 414.51 257.779 414.817C256.734 417.21 255.561 419.545 254.265 421.812C252.334 425.374 250.171 429.4 249.488 430.751L248.205 433.208L241.572 433.651C232.121 434.279 226.259 434.197 226.559 433.454C226.682 433.099 228.934 428.834 231.561 423.975L236.338 415.104L239.334 414.694C242.94 414.36 246.563 414.226 250.184 414.292L250.143 414.319ZM221.96 415.063C223.004 415.063 224.007 415.063 224.853 415.111L231.152 415.329L226.218 424.541C220.759 434.777 221.441 434.279 213.723 433.495C204.258 432.532 199.14 423.04 205.159 417.615C206.865 416.073 208.018 415.738 212.863 415.349C215.211 415.158 218.834 415.049 221.96 415.063ZM287.041 516.7C278.279 516.769 271.195 523.565 271.195 533.044C271.195 539.984 274.969 545.621 280.783 547.375C288.713 549.749 297.386 543.198 299.447 533.269C300.942 526.22 297.53 518.898 292.07 517.383C290.438 516.924 288.75 516.694 287.055 516.7H287.041ZM287.259 521.225C289.025 521.189 290.75 521.76 292.145 522.842C297.393 526.937 295.209 537.732 288.256 541.95C285.431 543.669 283.069 543.601 280.244 541.711C278.864 540.745 277.722 539.478 276.906 538.004C276.09 536.531 275.621 534.89 275.536 533.208C275.536 530.308 277.542 526.343 278.825 525.162C281.855 522.344 284.769 521.232 287.259 521.204V521.225ZM644.677 546.631C638.958 552.513 633.799 563.691 633.799 570.222C633.799 572.446 633.117 572.467 631.07 570.29C630.184 569.318 628.967 568.71 627.658 568.584C622.881 568.584 621.734 575.51 625.372 582.846L627.419 587.009H633.274L631.589 584.791C628.327 580.499 626.47 575.278 627.576 573.484C628.183 572.515 633.622 578.588 634.98 581.741C635.956 584.006 638.338 584.102 638.071 581.87C637.983 581.133 637.723 578.841 637.498 576.78C636.611 568.72 640.992 556.307 647.052 549.866C650.239 546.453 651.549 546.297 651.569 549.354C651.59 552.411 648.157 573.497 647.086 576.78C645.844 580.628 645.83 582.532 647.086 583.549C647.878 584.232 648.451 583.44 650.498 579.284C651.863 576.438 654.006 573.279 655.364 572.085C659.847 568.147 659.622 570.679 656.899 579.673L654.667 587.016L659.792 586.272C660.174 586.217 659.376 585.944 659.458 585.733C660.871 582.075 663.198 572.863 663.198 570.904C663.198 568.174 661.212 565.861 658.933 565.861C657.565 566.051 656.255 566.533 655.091 567.274L652.784 568.679L653.173 566.755C653.385 565.704 654.094 561.139 654.749 556.621C655.916 548.603 655.909 548.351 654.62 545.703C653.521 543.451 652.914 542.973 650.996 542.782C650.737 542.782 647.796 543.464 644.732 546.638L644.677 546.631ZM89.5454 544.167C89.5454 544.167 87.5528 544.775 86.8772 545.532C85.7854 546.74 85.6967 547.73 86.0925 554.233C86.3381 558.273 86.7339 563.104 86.9728 564.988C87.389 568.277 87.3617 568.359 86.1198 567.308C84.1817 565.67 82.4894 565.261 81.0222 566.039C79.2684 566.973 79.2889 570.959 81.0768 577.953C81.7553 580.442 82.212 582.986 82.4416 585.555V586.538C82.4416 589.309 86.536 587.5 86.536 587.5V585.453C86.536 583.679 86.0583 581.277 84.0998 572.828L83.704 571.122L85.4032 572.719C86.9218 574.443 88.2214 576.348 89.2725 578.39C92.5276 584.498 94.8136 582.396 92.0977 575.783C91.0058 573.115 90.6782 570.256 90.3643 560.702C89.9822 549.101 90.0027 548.924 91.3265 549.633C93.2032 550.637 97.7889 556.867 99.3721 560.552C100.955 564.237 102.238 569.942 102.238 573.449C102.238 576.67 103.821 578.363 104.92 576.316C105.419 575.031 105.662 573.661 105.637 572.283C105.637 570.345 106.285 568.72 108.025 566.271L110.413 562.913L110.543 565.977C110.918 574.685 110.441 585.31 105.084 585.31C104.354 585.992 101.801 586.627 102.825 586.675L109.124 587.111L110.761 584.696C113.491 580.676 114.795 575.722 114.815 569.355C114.815 562.62 113.764 559.31 111.403 558.709C109.567 558.245 108.093 559.228 106.374 562.046L105.214 563.944L103.726 559.849C100.996 552.459 92.2887 543.744 89.6137 544.099L89.5454 544.167Z" fill="#353945"/>
<path d="M710.031 590.025C710.031 598.098 643.155 605.536 535.465 609.44C427.774 613.343 296.212 613.104 192.009 608.812C87.8053 604.519 27.3849 596.849 34.2568 588.749L371.912 590.025H710.031Z" fill="#ECECEC"/>
<path d="M498.157 108.123C496.581 108.123 494.568 108.28 491.606 108.518C480.742 109.385 477.119 110.886 471.318 116.905C466.419 121.989 461.676 131.202 460.4 138.176C459.615 142.359 459.308 142.953 457.472 143.703C455.733 144.658 454.172 145.907 452.859 147.395C449.106 151.558 449.447 154.902 453.972 157.686C456.189 159.051 456.299 159.317 456.353 163.241C456.384 165.579 456.672 167.906 457.213 170.181C458.223 173.552 461.649 177.175 464.344 177.687C466.194 178.063 466.391 178.479 468.213 185.508C470.377 193.874 473.816 202.861 476.259 206.526C477.399 208.09 478.857 209.395 480.538 210.354C482.032 211.125 482.919 211.985 482.585 212.313C481.118 213.78 455.753 225.333 450.58 226.889C449.045 227.353 446.847 230.622 446.847 232.437C446.847 233.078 445.967 234.716 444.889 236.088C442.016 239.732 439.873 244.277 435.335 256.41C432.066 265.172 429.876 270.058 428.026 272.89C427.74 273.32 418.254 271.566 413.983 270.29L409.458 268.925L405.418 267.069L402.559 265.465C404.285 266.434 395.558 263.159 389.409 252.957C387.062 251.312 384.932 251.592 383.547 253.694C382.496 255.304 382.339 257.249 382.339 268.563V281.577L378.245 281.331C372.315 280.976 369.599 282.314 367.824 286.449C364.876 293.321 364.597 305.134 367.231 311.446C368.302 314.005 371.789 317.171 374.198 317.779C376.007 318.229 380.34 317.861 382.06 317.096C383.022 316.673 383.199 318.004 383.622 328.759C384.141 342.141 385.069 346.958 388.297 353.025C392.889 362.299 408.025 366.885 415.593 367.089C418.602 367.608 447.161 369.915 450.621 369.915C450.642 370.998 450.581 372.082 450.437 373.156C450.164 376.009 450.437 376.814 452.545 379.898C454.92 383.358 454.947 383.467 454.347 387.746C453.508 393.717 452.191 447.634 452.068 481.147C451.986 504.758 452.156 510.163 453.248 518.29C454.024 523.338 454.334 528.445 454.176 533.549C453.821 539.24 453.835 539.329 455.971 541.786C458.107 544.242 458.114 544.468 457.902 549.388L457.67 554.506H452.771C447.038 554.506 443.183 556.191 440.405 559.835C438.024 562.961 437.996 567.192 440.344 569.546C441.804 571 441.927 571.464 441.258 572.924C440.644 574.289 439.982 574.623 438.037 574.623C431.589 574.623 426 578.247 425.256 582.88L424.833 585.542H135.492L55.2751 586.449L28.1767 586.613C28.1767 586.613 24.6077 586.995 24.6077 588.319C24.6077 589.643 28.1767 590.025 28.1767 590.025L52.4021 590.38C65.7227 590.578 219.176 590.796 393.408 590.871C677.289 590.981 710.304 590.871 711.239 589.943C714.447 586.743 712.508 586.449 684.782 585.91C666.439 585.555 643.961 585.583 643.961 585.583H581.978L581.657 584.047C581.479 583.201 581.138 580.362 580.899 577.735C580.005 567.888 575.713 550.084 572.028 540.81C570.247 536.361 570.247 536.333 571.578 534.859C573.222 533.044 574.478 527.926 573.966 525.196C573.755 524.07 571.823 519.307 569.667 514.619C565.027 504.506 559.26 487.255 557.8 479.134C557.227 475.94 556.094 467.349 555.282 460.027C554.074 449.183 553.876 444.44 554.197 434.409C554.408 427.633 554.791 421.573 555.029 420.945C555.411 419.949 555.8 420.099 557.814 421.996C560.68 424.726 563.061 425.408 566.364 424.514C568.091 424.071 569.621 423.067 570.713 421.658C571.806 420.249 572.398 418.517 572.397 416.735C572.397 412.586 568.671 405.591 562.843 398.856C558.203 393.465 558.066 393.226 558.824 391.103C560.714 385.692 557.657 375.142 553.262 371.894C551.597 370.658 551.215 369.846 551.215 367.71C551.215 366.25 550.314 362.081 549.215 358.457C548.117 354.833 547.011 350.869 546.772 349.654C546.342 347.498 546.39 347.436 548.669 347.436C556.51 347.436 563.532 341.097 565.9 331.891C566.583 329.366 568.084 324.077 569.312 320.14C575.652 299.852 577.883 286.524 578.306 266.571C578.6 252.568 578.484 250.138 577.228 244.086C575.624 236.306 572.765 229.973 569.503 226.943C567.934 225.483 563.28 223.313 554.279 219.84C536.086 212.818 528.757 208.921 521.025 202.138C520.595 201.763 518.452 182.287 518.452 178.772C518.452 177.79 518.978 177.517 520.882 177.517C522.139 177.582 523.393 177.345 524.54 176.826C525.686 176.307 526.693 175.521 527.474 174.535C528.961 172.699 529.064 167.028 527.665 164.298C526.73 162.511 526.757 162.21 528.006 160.62C529.637 158.573 529.767 154.997 528.313 152.193C527.296 150.22 527.324 150.098 529.337 148.098C530.865 146.576 531.384 145.368 531.384 143.628C531.384 140.162 528.845 130.772 526.846 126.821C524.649 122.494 519.687 117.171 515.709 114.892C514.01 113.909 511.874 112.552 510.973 111.862C510.072 111.173 507.261 109.986 504.729 109.215C502.587 108.454 500.327 108.082 498.055 108.116L498.157 108.123ZM498.574 112.047C499.88 111.966 501.189 112.161 502.416 112.62C503.576 113.077 503.46 113.302 501.351 114.599C493.087 119.703 479.896 139.848 482.878 142.837C483.772 143.731 485.765 142.489 485.765 141.035C485.765 139.725 493.046 128.458 496.527 124.384C500.566 119.653 504.249 117.01 507.575 116.455C509.854 116.066 510.748 116.332 513.887 118.338C518.405 121.232 520.895 124.125 523.386 129.386C525.488 133.822 527.631 142.352 527.269 144.87C527.01 146.72 524.369 147.395 517.149 147.457L512.713 147.498V143.683C512.713 140.353 512.474 139.664 510.803 138.224C508.162 135.951 503.009 135.903 500.921 138.121C499.161 139.998 496.95 144.891 496.322 148.289C495.571 152.384 492.302 155.154 486.311 156.751C481.09 158.116 466.794 157.973 461.533 156.451C456.073 154.888 453.514 153.182 454.32 151.674C455.33 149.804 457.977 147.668 460.68 146.556C462.611 145.764 463.239 145.109 463.239 143.908C463.239 137.801 469.053 124.739 474.062 119.601C477.112 116.469 481.944 113.357 483.759 113.357C484.189 113.357 482.831 115.206 480.742 117.451C474.26 124.46 468.329 138.763 470.718 141.643C472.028 143.219 472.622 142.325 474.935 135.467C477.446 127.994 480.606 122.713 485.069 118.543C489.334 114.551 494.384 112.19 498.574 112.019V112.047ZM505.937 140.708C508.523 140.708 508.667 140.865 509.301 144.195L509.758 146.645L500.102 148.357L501.133 145.444C502.511 141.431 503.282 140.674 505.916 140.674L505.937 140.708ZM512.488 151.271C513.082 151.271 513.696 151.271 514.331 151.319C524.43 151.79 525.297 152.152 525.297 155.864C525.297 158.901 524.15 160.463 521.926 160.463C519.326 160.463 516.733 163.568 515.47 168.188C514.938 170.133 514.058 173.566 513.518 175.817L512.543 179.912L511.717 176.841C511.26 175.156 510.147 171.007 509.24 167.629C508.332 164.251 506.845 159.283 505.93 156.594C505.016 153.905 505.023 152.165 505.248 151.94C505.473 151.715 508.353 151.258 512.488 151.258V151.271ZM501.57 152.356C501.918 152.404 502.068 152.773 502.068 153.462C502.068 155.768 509.028 183.344 509.99 184.853C511.123 186.627 512.468 186.811 513.88 185.405C514.74 184.539 514.924 184.996 515.313 188.988C515.566 191.499 516.187 195.553 516.678 197.989C517.579 202.329 517.558 202.534 515.593 207.474C512.051 216.421 505.575 225.306 500.055 228.82C498.383 229.878 496.472 230.744 495.81 230.744C493.224 230.744 492.439 225.838 493.524 216.503C494.008 212.333 494.206 211.992 498.041 208.259C501.761 204.649 502.716 202.964 501.631 201.879C501.399 201.647 499.939 202.479 498.39 203.735C491.722 209.139 485.171 210.504 481.841 207.147C477.064 202.37 471.052 184.3 467.661 164.462L467.238 162.019L472.54 162.326C483.383 162.954 492.835 160.231 498.021 154.99C499.877 153.121 500.989 152.261 501.563 152.322L501.57 152.356ZM460.298 160.545C460.887 160.649 461.461 160.831 462.004 161.084C463.416 161.617 463.71 162.299 464.051 165.861C464.296 168.154 464.679 170.788 464.911 171.716C465.416 173.763 464.488 173.907 462.863 172.105C461.499 170.583 459.731 165.151 459.731 162.381C459.806 161.037 459.799 160.532 460.345 160.552L460.298 160.545ZM522.485 164.36C523.168 164.36 523.898 165.008 524.498 166.325C525.611 168.775 525.454 171 524.075 172.214C523.059 172.959 521.896 173.48 520.663 173.743C518.159 174.275 517.934 173.579 519.107 169.41C520.104 166.107 521.359 164.353 522.533 164.367L522.485 164.36ZM482.176 179.216C481.37 179.148 480.353 179.857 478.763 181.584C475.618 184.948 475.543 186.217 478.415 187.439C480.244 188.217 480.879 188.23 481.998 187.5C484.775 185.706 485.117 180.294 482.524 179.311C482.416 179.271 482.304 179.243 482.189 179.23L482.176 179.216ZM520.247 206.376L522.171 208.034L524.096 209.692L522.731 212.9C521.994 214.667 519.162 222.972 516.426 231.359L511.458 246.604L508.353 248.821C506.347 250.218 504.168 251.347 501.87 252.179C498.376 253.305 490.712 254.042 487.785 253.544C479.596 252.117 477.549 250.418 477.549 245.13C477.549 238.462 484.714 219.819 489.498 214.025L490.624 212.661L490.18 214.025C489.67 216.183 489.269 218.365 488.979 220.563C486.802 235.453 496.028 239.623 506.967 228.69C511.185 224.466 516.214 216.687 518.473 210.886L520.247 206.376ZM527.173 212.442C529.621 213.412 532.009 214.526 534.325 215.779C539.858 218.472 545.54 220.846 551.344 222.89L561.342 226.357L558.728 228.233C553.316 232.123 545.865 244.242 542.459 254.676C539.73 263.05 538.918 269.007 538.501 283.829C538.147 296.59 537.962 298.316 536.993 298.235C536.393 298.18 533.998 297.832 531.677 297.463C527.883 296.856 527.371 296.576 526.593 294.693C525.461 291.963 522.199 288.278 519.817 287.05C517.994 286.31 516.076 285.83 514.119 285.624L510.304 285.173V276.172C510.304 273.238 510.373 270.931 510.502 269.294C510.632 267.656 508.455 261.903 502.231 265.493C493.524 270.522 479.309 272.132 457.247 274.071L452.3 274.507V264.401C452.308 258.964 451.964 253.532 451.269 248.139C450.027 240.633 450 233.665 451.194 231.516C451.877 230.349 453.665 229.386 457.827 228.028C466.016 225.353 477.481 220.645 479.732 219.041C480.783 218.291 481.65 217.806 481.65 217.97C481.65 218.134 480.606 220.529 479.33 223.306C475.809 230.976 472.772 241.158 472.772 245.3C472.63 247.707 473.357 250.085 474.819 252.001C476.921 255.175 478.231 255.871 485.055 257.338C494.725 259.419 507.213 256.294 512.781 250.391C515.265 247.766 518.905 238.71 523.7 223.224C525.502 217.41 527.051 212.538 527.146 212.395H527.194L527.173 212.442ZM565.784 229.537C566.127 229.546 566.461 229.645 566.753 229.823C568.63 230.976 570.909 235.549 572.54 241.458C573.905 246.283 574.034 248.501 574.055 263.541C574.055 282.56 573.291 288.579 568.002 309.603C561.86 333.986 559.615 339.124 553.821 341.929C546.315 345.573 538.972 342.687 525.761 330.847L519.728 325.435L521.851 323.77C523.124 322.738 524.201 321.485 525.031 320.072C526.396 317.403 528.047 308.744 528.047 304.103V300.425L530.265 300.821C533.479 301.394 543.394 303.653 548.355 304.949C550.71 305.557 552.818 305.871 553.05 305.632C554.04 304.642 552.457 303.202 548.751 301.735C546.561 300.862 544.657 300.05 544.5 299.941C543.92 299.483 546.185 297.477 548.778 296.153C551.372 294.829 551.44 294.7 550.232 293.813C548.376 292.448 547.004 292.632 544.09 294.625L541.504 296.378L541.927 285.242C542.569 268.482 545.162 257.174 551.003 245.751C555.78 236.422 562.331 229.373 565.798 229.523L565.784 229.537ZM446.499 241.506C446.663 241.506 446.806 241.636 446.943 241.875C447.284 242.489 447.837 249.531 448.171 257.515C448.492 265.506 449.447 274.255 448.287 274.309C447.775 274.309 447.045 274.309 446.062 274.309C436.611 273.955 432.51 273.675 432.51 273.374C432.51 273.19 433.547 270.979 434.81 268.454C436.072 265.929 438.576 259.876 440.364 254.997C444.002 245.089 445.585 241.506 446.506 241.527L446.499 241.506ZM386.884 256.328C387.307 256.376 388.112 257.188 388.809 258.327C392.534 264.353 402.955 271.293 412.884 274.309C433.527 280.635 477.713 278.997 500.055 271.082C503.235 269.956 505.882 269.089 505.93 269.164C505.978 269.239 506.196 273.013 506.415 277.571L506.817 285.856L502.252 286.354C494.363 287.173 490.515 289.609 490.515 293.772C490.515 295.321 493.838 298.992 495.25 298.992C495.544 298.992 495.933 300.787 496.199 302.97C496.338 304.698 496.624 306.41 497.052 308.089C497.421 309.064 496.977 309.228 494.043 309.228C487.976 309.228 488.583 311.958 494.786 312.483C498.198 312.77 498.519 312.954 500.096 315.615C501.024 317.165 501.781 318.775 501.781 319.184C501.781 319.594 499.01 322.33 495.639 325.265C492.268 328.199 489.395 331.017 489.273 331.516C488.542 334.539 496.97 330.151 502.975 324.371C505.207 322.221 505.664 322.037 506.496 322.904C507.329 323.77 507.35 325.701 506.879 334.136C506.558 339.766 506.278 346.419 506.258 348.924C506.217 352.814 505.951 353.789 504.422 355.611C502.99 357.118 501.318 358.377 499.475 359.337C494.698 361.753 483.991 364.981 478.02 365.807C474.284 366.26 470.523 366.475 466.76 366.448C459.513 366.332 424.73 364.189 419.155 363.52C403.214 361.61 394.343 357.174 390.665 349.272C388.222 344.024 387.58 340.128 387.075 327.339L386.618 315.738L388.242 316.926C393.278 320.611 399.843 321.887 400.314 319.287C400.464 318.502 399.952 317.97 398.765 317.676C396.72 316.873 394.77 315.845 392.951 314.612L388.904 311.999L390.003 308.764C390.845 306.681 390.994 304.381 390.426 302.206C389.641 298.357 389.627 298.371 396.008 296.59C402.388 294.809 402.088 295 401.058 293.751C400.328 292.878 399.345 292.741 396.179 293.069C394.147 293.257 392.154 293.74 390.262 294.502C388.577 295.368 388.215 295.375 387.532 294.556C386.85 293.737 387.021 293.451 388.058 292.891C389.039 292.18 389.798 291.205 390.248 290.08C391.286 287.562 390.385 285.303 387.778 283.938L386.147 283.065V269.915C386.147 262.681 386.427 256.587 386.768 256.376C386.819 256.358 386.874 256.358 386.925 256.376L386.884 256.328ZM374.997 284.818C377.815 284.887 382.578 285.91 384.789 287.05C386.789 288.087 386.836 288.224 385.792 289.391C385.178 290.073 382.844 291.438 380.613 292.448C375.317 294.823 374.997 296.617 379.971 296.03C383.383 295.628 383.383 295.635 384.666 298.146C387.396 303.51 387.096 308.089 383.861 311.112C381.814 313.016 378.02 314.435 375.727 314.141C369.797 313.357 367.279 300.568 370.759 288.892C371.571 286.163 372.212 285.221 373.42 284.914C373.941 284.811 374.473 284.772 375.003 284.798L374.997 284.818ZM512.638 289.548C513.537 289.52 514.437 289.57 515.327 289.698C521.243 290.803 524.321 296.372 524.246 305.796C524.191 311.992 522.642 316.817 519.694 319.956C517.599 322.194 513.553 322.003 509.533 319.485C504.47 316.305 501.167 310.566 500.334 303.53L499.884 299.661H502.068C504.75 299.661 506.892 298.589 506.892 297.245C506.892 296.494 505.985 296.235 503.31 296.208C496.213 296.133 492.691 293.594 496.881 291.588C498.888 290.626 507.691 289.582 512.638 289.541V289.548ZM511.123 325.469L513.17 325.879C514.127 326.081 515.096 326.218 516.071 326.288C516.542 326.288 518.016 327.694 519.346 329.407C523.222 334.382 532.039 341.772 537.403 344.543C541.313 346.59 542.35 347.429 542.35 348.637C542.35 349.483 543.265 353.005 544.397 356.458C545.53 359.911 546.335 362.818 546.24 362.927C546.144 363.036 544.875 362.313 543.463 361.344C536.249 356.444 528.743 360.607 533.847 366.68C535.99 369.225 535.997 370.331 533.882 371.716C531.466 373.293 529.644 372.399 527.242 368.509C524.84 364.619 523.7 364.469 521.414 367.826C518.862 371.621 519.524 378.288 522.908 382.88C523.85 384.156 524.485 385.33 524.321 385.494C524.157 385.658 520.854 386.217 516.992 386.729C509.67 387.705 491.675 388.476 488.126 387.964L480.756 386.954C470.465 385.59 458.134 381.427 455.8 378.588C454.524 377.039 453.951 371.628 454.995 370.986C455.439 370.713 460.154 370.515 465.477 370.542C475.713 370.597 476.525 370.488 487.785 367.547C500.368 364.251 506.838 360.491 509.124 355.134C509.949 353.189 510.345 349.149 510.686 338.995L511.123 325.469ZM537.737 363.152C539.204 363.241 542.971 365.97 544.971 368.563C547.188 371.43 547.188 371.45 547.188 379.482C547.188 386.306 547.004 387.671 545.994 388.538C543.947 390.305 543.265 390.469 542.405 389.418C541.855 388.822 541.098 388.461 540.289 388.408C538.044 388.408 532.298 385.89 529.521 383.686C526.45 381.249 523.993 376.725 523.993 373.49V371.3L526.088 373.688C528.538 376.479 531.855 377.387 534.96 376.104C539.484 374.234 541.101 369.178 538.256 365.602C537.464 364.592 537.027 363.555 537.28 363.295C537.345 363.242 537.42 363.202 537.501 363.18C537.583 363.157 537.668 363.153 537.751 363.166L537.737 363.152ZM552.177 375.906L553.542 378.561C554.512 380.87 555.082 383.328 555.227 385.828C555.418 388.36 555.418 390.435 555.227 390.435C554.64 390.435 552.156 387.371 551.699 386.088C551.447 385.405 551.447 382.805 551.699 380.362L552.177 375.906ZM458.046 387.91C458.441 387.876 460.57 388.756 462.979 389.957C469.551 393.273 481.452 396.897 491.695 398.712C503.405 400.759 524.887 400.978 532.967 399.081C535.867 398.398 538.931 397.286 539.791 396.597L541.34 395.341L543.981 400.22C545.442 402.902 547.837 407.154 549.304 409.678L551.979 414.257L551.133 420.597C549.768 430.942 550.089 452.991 551.815 466.837C552.641 473.395 553.917 481.229 554.647 484.238C556.735 492.891 563.382 511.978 564.883 513.541C566.862 515.65 570.39 524.419 570.39 527.237C570.39 531.161 568.841 533.269 564.126 535.787C560.134 537.917 559.247 538.101 552.259 538.374C546.185 538.606 544.281 538.449 542.548 537.548C540.207 536.34 539.279 534.081 539.975 531.311C540.262 530.158 539.627 527.496 538.051 523.293C535.39 516.168 532.298 504.827 525.665 477.762C520.888 458.218 514.59 435.501 512.822 431.318L511.799 428.888L514.822 428.083C516.705 427.578 517.852 426.882 517.852 426.247C517.852 425.428 516.876 425.217 513.136 425.217C503.583 425.217 492.323 421.805 487.021 417.369C484.844 415.547 483.731 415.65 483.731 417.676C483.731 419.498 488.269 423.293 492.787 425.231C496.076 426.643 496.67 427.148 496.349 428.288C492.159 443.205 486.229 494.352 485.219 524.234C484.687 540.073 484.775 539.8 479.296 542.352C476.851 543.516 474.151 544.044 471.448 543.888C465.634 543.819 463.621 542.823 460.147 540.291C458.243 538.926 457.622 535.869 457.418 532.259C457.418 529.12 456.967 518.263 456.442 508.129C455.596 491.95 455.609 483.515 456.585 438.961C457.199 411.057 457.841 388.08 458.011 387.91C458.011 387.91 458.011 387.91 458.066 387.91H458.046ZM528.258 389.595C529.678 389.541 531.138 389.936 533.813 390.96C538.263 392.707 538.269 392.721 536.386 393.512C534.331 394.205 532.222 394.725 530.081 395.068C516.746 397.361 494.493 396.01 481.302 392.113C479.425 391.554 478.811 391.26 479.937 391.431C481.063 391.602 487.055 391.97 493.244 392.188C504.019 392.571 519.032 391.506 526.819 389.739C527.294 389.65 527.775 389.602 528.258 389.595ZM549.686 390.496L551.665 392.543L553.637 394.59L551.249 396.576C549.939 397.661 548.519 398.555 548.137 398.576C547.755 398.596 546.718 397.368 545.871 395.846C544.691 393.737 544.561 393.117 545.319 393.117C546.309 392.887 547.227 392.419 547.994 391.752L549.686 390.496ZM555.684 397.259L559.233 401.183C563.443 405.837 567.422 412.36 568.05 415.513C568.357 417.165 568.145 418.134 567.265 419.109C565.6 420.952 562.004 420.856 559.915 418.911C559.008 418.072 556.38 414.087 554.081 410.04L549.891 402.732L552.784 400.002L555.684 397.259ZM500.205 428.001L504.402 428.424C506.708 428.656 508.619 428.875 508.639 428.916C509.069 429.598 518.664 466.755 523.557 486.654C527.105 501.107 531.288 516.462 532.844 520.774C534.4 525.087 535.888 530.465 536.147 532.717C536.748 537.937 537.628 539.466 540.924 541.015C543.572 542.27 543.578 542.277 544.036 547.32C544.288 550.104 544.657 553.182 544.855 554.144C545.182 555.768 544.95 556 542.227 556.731C538.256 557.788 532.844 561.507 531.247 564.237C528.067 569.73 530.838 574.978 536.707 574.514C538.338 574.384 539.668 574.514 539.668 574.753C539.668 576.118 538.024 579.202 536.256 581.243C535.144 582.512 534.209 583.972 534.209 584.552C534.209 585.405 530.927 585.549 511.007 585.549H487.805V582.307C487.576 579.317 487.022 576.361 486.154 573.49C485.108 569.581 484.423 565.583 484.107 561.548C483.882 558.048 483.527 552.807 483.322 549.893C482.96 544.72 482.988 544.59 484.687 543.956C488.208 542.591 488.781 540.168 489.286 523.449C489.969 502.527 494.964 456.43 498.84 435.61L500.205 428.001ZM566.944 539.199C567.838 539.199 575.133 565.888 575.133 569.137C575.133 570.59 571.509 574.125 568.404 575.688C566.808 576.459 565.17 577.143 563.498 577.735C561.219 578.54 560.768 578.52 559.997 577.571C557.814 574.944 551.515 573.893 546.513 575.326C545.23 575.695 544.07 575.886 543.94 575.763C543.531 575.353 546.492 568.939 548.669 565.561L550.778 562.265L551.672 564.367C554.04 570.003 558.858 573.975 563.327 573.975C567.797 573.975 570.227 570.358 568.998 565.786C567.565 560.484 560.564 556.376 554.169 557.099C550.075 557.563 549.215 556.662 548.499 550.957C548.164 548.275 547.7 545.334 547.475 544.427C547.066 542.796 547.107 542.782 553.535 542.379C557.909 542.12 561.041 541.533 563.218 540.578C564.419 540 565.665 539.523 566.944 539.152V539.199ZM479.391 546.849L479.821 557.816L480.251 568.775L477.876 571.675C476.512 573.313 474.533 574.876 473.284 575.258C472.035 575.64 466.924 576.111 461.853 576.329C456.783 576.548 451.877 576.855 450.935 577.012C449.528 577.051 448.137 576.709 446.909 576.022L444.589 574.753L449.625 569.56L454.661 564.36L455.582 567.089C456.496 569.819 459.793 573.293 461.492 573.293C462.401 573.088 463.244 572.656 463.942 572.037C465.156 571.054 465.477 570.119 465.443 567.676C465.512 564.85 464.499 562.104 462.611 559.999C461.71 558.901 461.539 557.427 461.724 552.595C461.956 546.747 462.01 546.569 463.443 547.047C466.064 547.907 475.413 548.221 477.44 547.511L479.391 546.849ZM452.238 558.361C452.518 558.361 452.791 558.402 453.064 558.437C454.149 558.607 453.46 559.583 449.406 563.609C444.097 568.864 442.746 569.143 442.746 564.974C442.746 561.767 448.021 558.232 452.238 558.361ZM545.182 560.061C545.66 560.061 545.789 560.354 545.789 560.982C545.789 562.504 542.453 567.171 539.975 569.116C537.928 570.72 534.236 571.109 534.107 569.737C533.766 566.093 538.003 561.999 543.879 560.32C544.3 560.175 544.738 560.088 545.182 560.061ZM554.183 560.354C554.313 560.354 555.978 560.818 557.889 561.385C560.038 561.963 561.976 563.147 563.471 564.797C565.886 567.526 565.989 568.011 564.508 569.492C564.158 569.887 563.756 570.233 563.314 570.522C559.929 569.321 557.288 566.862 555.391 563.145C554.599 561.596 554.026 560.327 554.183 560.327V560.354ZM458.475 561.036C459.308 561.036 461.819 566.264 461.84 568.031C461.84 569.976 460.843 569.396 459.253 566.571C457.663 563.746 457.288 561.036 458.475 561.036ZM481.582 573.32L482.64 576.868C483.228 578.868 483.58 580.929 483.69 583.01V585.617H455.029L454.108 583.399C453.426 581.829 453.426 581.058 453.931 580.758C454.347 580.519 458.987 580.178 464.249 580.001C474.73 579.646 476.744 579.045 479.814 575.394L481.582 573.32ZM575.754 575.469L576.436 577.646C576.902 579.316 577.26 581.014 577.508 582.73L577.924 585.63H570.704C566.76 585.63 563.532 585.351 563.532 585.003C563.491 584.474 563.372 583.954 563.177 583.46C562.945 582.853 563.955 582.143 566.221 581.345C568.514 580.443 570.683 579.253 572.676 577.803L575.754 575.469ZM439.546 578.131C443.94 578.131 449.195 581.004 451.044 584.436C451.645 585.555 450.921 585.63 439.989 585.63H428.272L428.716 583.754C429.521 580.328 433.779 578.104 439.525 578.104L439.546 578.131ZM551.365 578.997C553.624 578.997 555.603 579.496 556.824 580.628C557.76 581.547 558.553 582.601 559.178 583.754L560.147 585.63H548.703H537.253L539.982 583.256C543.193 580.584 547.21 579.072 551.385 578.963L551.365 578.997Z" fill="#141416"/>
</svg>
