<svg width="145" height="40" viewBox="0 0 145 40" fill="none" xmlns="http://www.w3.org/2000/svg">
<path d="M25.7247 0.104481C22.7152 2.04139 21.3392 6.0572 21.3392 6.0572C21.3178 3.23086 22.7582 1.06088 23.6406 0C22.3665 0.0348269 20.9235 0.249146 19.3114 0.720648C18.6114 1.87797 17.7825 3.69701 17.5706 6.07059C17.5706 6.07059 16.5085 4.34264 17.112 1.51095C15.8084 2.10301 14.7221 2.90135 13.8342 3.83899C13.7216 5.03382 13.7591 6.50995 14.1803 8.14949C14.1803 8.14949 13.1503 7.319 12.5548 5.48925C11.9084 6.51798 11.4417 7.64852 11.1359 8.82995C11.3719 9.57471 11.6965 10.3623 12.1471 11.1687C12.1471 11.1687 11.5624 10.9062 10.8569 10.2016C10.2373 14.2844 11.4256 18.7288 13.971 21.6087L13.8772 13.762L23.2007 7.61637C23.2007 7.61637 24.338 3.12638 30.9149 2.27446C30.9176 2.27446 29.1929 0.554551 25.7247 0.104481Z" fill="#273990"/>
<path d="M25.7247 0.104481C22.7152 2.04139 21.3392 6.0572 21.3392 6.0572C21.3178 3.23086 22.7582 1.06088 23.6406 0C22.3665 0.0348269 20.9235 0.249146 19.3114 0.720648C18.6114 1.87797 17.7825 3.69701 17.5706 6.07059C17.5706 6.07059 16.5085 4.34264 17.112 1.51095C15.8084 2.10301 14.7221 2.90135 13.8342 3.83899C13.7216 5.03382 13.7591 6.50995 14.1803 8.14949C14.1803 8.14949 13.1503 7.319 12.5548 5.48925C11.9084 6.51798 11.4417 7.64852 11.1359 8.82995C11.3719 9.57471 11.6965 10.3623 12.1471 11.1687C12.1471 11.1687 11.5624 10.9062 10.8569 10.2016C10.2373 14.2844 11.4256 18.7288 13.971 21.6087L13.8772 13.762L23.2007 7.61637C23.2007 7.61637 24.338 3.12638 30.9149 2.27446C30.9176 2.27446 29.1929 0.554551 25.7247 0.104481Z" fill="black" fill-opacity="0.25"/>
<path d="M24.7803 24.6197L25.4428 25.0617L27.6825 22.0371C27.6825 22.0344 25.2845 24.4616 24.7803 24.6197Z" fill="#273990"/>
<path d="M24.7803 24.6197L25.4428 25.0617L27.6825 22.0371C27.6825 22.0344 25.2845 24.4616 24.7803 24.6197Z" fill="black" fill-opacity="0.25"/>
<path d="M26.2717 25.5417L26.9342 25.9837L29.8767 21.917C29.8767 21.917 26.776 25.3836 26.2717 25.5417Z" fill="#273990"/>
<path d="M26.2717 25.5417L26.9342 25.9837L29.8767 21.917C29.8767 21.917 26.776 25.3836 26.2717 25.5417Z" fill="black" fill-opacity="0.25"/>
<path d="M27.5244 26.5112L28.1869 26.9532L31.5317 22.1069C31.5317 22.1069 28.0314 26.3531 27.5244 26.5112Z" fill="#273990"/>
<path d="M27.5244 26.5112L28.1869 26.9532L31.5317 22.1069C31.5317 22.1069 28.0314 26.3531 27.5244 26.5112Z" fill="black" fill-opacity="0.25"/>
<path d="M21.8461 33.919C21.8461 33.919 16.5459 30.0746 11.7473 31.9017C6.95144 33.7288 6.82537 39.5288 11.8734 39.0225C16.9214 38.5188 16.4494 33.3484 16.4494 33.3484C16.4494 33.3484 16.7659 31.3659 21.8461 33.919Z" fill="#273990"/>
<path d="M21.8461 33.919C21.8461 33.919 16.5459 30.0746 11.7473 31.9017C6.95144 33.7288 6.82537 39.5288 11.8734 39.0225C16.9214 38.5188 16.4494 33.3484 16.4494 33.3484C16.4494 33.3484 16.7659 31.3659 21.8461 33.919Z" fill="black" fill-opacity="0.25"/>
<path d="M29.4102 37.5379C29.3968 36.6592 29.0508 35.818 28.45 35.1751C28.0771 34.7759 27.6077 34.2535 27.082 33.6186C27.0015 33.5221 27.2376 32.9863 27.1517 32.8872C24.9067 30.294 20.9208 27.1381 14.9635 27.4569L13.2603 30.294C13.2603 30.294 19.2551 29.6001 22.6965 32.689C26.1378 35.7779 29.4504 39.9999 29.4504 39.9999L29.4102 37.5379ZM19.8184 30.4279L15.8647 29.6724C15.8647 29.6724 17.3319 28.2311 19.8399 28.491L19.8184 30.4279ZM20.2449 30.3797L20.3629 28.7241L22.4336 29.576C23.0935 29.8466 23.7211 30.1975 24.2763 30.6476C26.3712 32.3461 26.0198 34.066 26.0198 34.066C24.9523 32.8845 20.2449 30.3797 20.2449 30.3797ZM28.694 37.7791L25.9259 34.5643C25.9259 34.5643 27.3234 34.7545 28.7182 36.3619L28.694 37.7791Z" fill="#273990"/>
<path d="M29.4102 37.5379C29.3968 36.6592 29.0508 35.818 28.45 35.1751C28.0771 34.7759 27.6077 34.2535 27.082 33.6186C27.0015 33.5221 27.2376 32.9863 27.1517 32.8872C24.9067 30.294 20.9208 27.1381 14.9635 27.4569L13.2603 30.294C13.2603 30.294 19.2551 29.6001 22.6965 32.689C26.1378 35.7779 29.4504 39.9999 29.4504 39.9999L29.4102 37.5379ZM19.8184 30.4279L15.8647 29.6724C15.8647 29.6724 17.3319 28.2311 19.8399 28.491L19.8184 30.4279ZM20.2449 30.3797L20.3629 28.7241L22.4336 29.576C23.0935 29.8466 23.7211 30.1975 24.2763 30.6476C26.3712 32.3461 26.0198 34.066 26.0198 34.066C24.9523 32.8845 20.2449 30.3797 20.2449 30.3797ZM28.694 37.7791L25.9259 34.5643C25.9259 34.5643 27.3234 34.7545 28.7182 36.3619L28.694 37.7791Z" fill="black" fill-opacity="0.25"/>
<path d="M23.7395 20.3015L32.1645 19.2299C31.5636 9.67934 23.203 7.44238 23.203 7.44238L15.9448 9.20784L12.7261 12.9906C12.7261 12.9906 13.4208 20.4596 13.8312 21.5633C14.2416 22.6671 16.103 24.5585 16.103 24.5585L16.0709 26.5436C22.004 26.7338 25.0323 29.7262 25.0323 29.7262L25.4427 28.9708C26.8321 29.8227 28.0606 30.2004 28.0606 30.2004C33.3608 27.4893 33.8355 20.4623 33.8355 20.4623L23.7395 20.3015ZM22.6666 10.9411C28.2215 10.7509 30.8716 17.6868 30.8716 17.6868L28.9162 17.6225C28.0472 14.5685 25.9631 13.0951 24.4234 12.4012C23.1735 11.8386 21.7465 11.8145 20.4832 12.3423C17.2698 13.6818 16.1647 16.993 16.1647 16.993C17.3637 10.4375 22.6666 10.9411 22.6666 10.9411ZM17.978 19.5621C17.978 18.745 18.6432 18.0807 19.4613 18.0807C20.2793 18.0807 20.9445 18.745 20.9445 19.5621C20.9445 20.3792 20.2793 21.0436 19.4613 21.0436C18.6432 21.0436 17.978 20.3792 17.978 19.5621ZM19.4773 22.9484C21.1511 27.141 27.7146 29.0618 27.7146 29.0618C20.6468 28.2769 19.4773 22.9484 19.4773 22.9484ZM27.7763 28.2769C27.7763 28.2769 23.1065 25.7881 22.7578 24.4004L25.5339 21.0918L33.1086 21.0918C33.1113 21.0892 29.2301 27.9929 27.7763 28.2769Z" fill="#273990"/>
<path d="M23.7395 20.3015L32.1645 19.2299C31.5636 9.67934 23.203 7.44238 23.203 7.44238L15.9448 9.20784L12.7261 12.9906C12.7261 12.9906 13.4208 20.4596 13.8312 21.5633C14.2416 22.6671 16.103 24.5585 16.103 24.5585L16.0709 26.5436C22.004 26.7338 25.0323 29.7262 25.0323 29.7262L25.4427 28.9708C26.8321 29.8227 28.0606 30.2004 28.0606 30.2004C33.3608 27.4893 33.8355 20.4623 33.8355 20.4623L23.7395 20.3015ZM22.6666 10.9411C28.2215 10.7509 30.8716 17.6868 30.8716 17.6868L28.9162 17.6225C28.0472 14.5685 25.9631 13.0951 24.4234 12.4012C23.1735 11.8386 21.7465 11.8145 20.4832 12.3423C17.2698 13.6818 16.1647 16.993 16.1647 16.993C17.3637 10.4375 22.6666 10.9411 22.6666 10.9411ZM17.978 19.5621C17.978 18.745 18.6432 18.0807 19.4613 18.0807C20.2793 18.0807 20.9445 18.745 20.9445 19.5621C20.9445 20.3792 20.2793 21.0436 19.4613 21.0436C18.6432 21.0436 17.978 20.3792 17.978 19.5621ZM19.4773 22.9484C21.1511 27.141 27.7146 29.0618 27.7146 29.0618C20.6468 28.2769 19.4773 22.9484 19.4773 22.9484ZM27.7763 28.2769C27.7763 28.2769 23.1065 25.7881 22.7578 24.4004L25.5339 21.0918L33.1086 21.0918C33.1113 21.0892 29.2301 27.9929 27.7763 28.2769Z" fill="black" fill-opacity="0.25"/>
<path d="M64.1002 2.71191L60.1707 2.71191L54.4413 8.3619H54.3448V2.71191L51.3916 2.71191V18.4429H54.3448V11.5767L60.8707 18.4028L60.911 18.4429H64.9746L56.7937 9.91036L64.1002 2.71191Z" fill="#273990"/>
<path d="M64.1002 2.71191L60.1707 2.71191L54.4413 8.3619H54.3448V2.71191L51.3916 2.71191V18.4429H54.3448V11.5767L60.8707 18.4028L60.911 18.4429H64.9746L56.7937 9.91036L64.1002 2.71191Z" fill="black" fill-opacity="0.25"/>
<path d="M77.4687 13.2993L68.5502 2.76014L68.5099 2.71191L65.8438 2.71191V18.4429H68.9659V8.26546L77.4526 18.3974L77.4928 18.4429H80.5909V2.71191L77.4687 2.71191V13.2993Z" fill="#273990"/>
<path d="M77.4687 13.2993L68.5502 2.76014L68.5099 2.71191L65.8438 2.71191V18.4429H68.9659V8.26546L77.4526 18.3974L77.4928 18.4429H80.5909V2.71191L77.4687 2.71191V13.2993Z" fill="black" fill-opacity="0.25"/>
<path d="M85.8856 2.71191L82.7661 2.71191V18.4456H85.8856V2.71191Z" fill="#273990"/>
<path d="M85.8856 2.71191L82.7661 2.71191V18.4456H85.8856V2.71191Z" fill="black" fill-opacity="0.25"/>
<path d="M96.8346 12.5308H99.3988V15.4482C99.0528 15.6036 98.5968 15.7376 98.0443 15.8447C96.6602 16.118 95.3379 16.0912 94.1684 15.6009C93.5005 15.3223 92.9104 14.9205 92.4142 14.4088C91.918 13.8971 91.5291 13.2836 91.2555 12.5871C90.9846 11.8879 90.8451 11.1243 90.8451 10.3126C90.8451 9.58393 90.9819 8.89811 91.2528 8.27122C91.5237 7.64434 91.9126 7.09247 92.4088 6.629C92.9051 6.16553 93.4978 5.79851 94.1738 5.54401C94.8497 5.28683 95.582 5.15823 96.3437 5.15823C97.473 5.15823 98.5325 5.35112 99.4927 5.73422C100.45 6.11463 101.25 6.6933 101.872 7.45413L101.912 7.50235H102.301V3.74909L102.237 3.7089C101.606 3.35527 100.737 3.02308 99.6536 2.72571C98.5673 2.42834 97.473 2.27832 96.3947 2.27832C95.1072 2.27832 93.9002 2.48996 92.8112 2.91056C91.7195 3.33116 90.77 3.93126 89.9841 4.70013C89.2008 5.46632 88.5893 6.36378 88.1682 7.36572C87.7471 8.36766 87.5352 9.4473 87.5352 10.5778C87.5352 11.7084 87.7471 12.7934 88.1682 13.8007C88.5893 14.8106 89.1982 15.7161 89.9841 16.4904C90.7673 17.2646 91.7007 17.8781 92.7602 18.3148C93.817 18.7514 94.9838 18.9711 96.2257 18.9711C96.7756 18.9711 97.414 18.8988 98.1221 18.7541C98.8221 18.6121 99.4873 18.4487 100.099 18.2719C100.705 18.0951 101.22 17.9343 101.628 17.7897C102.046 17.6423 102.325 17.5405 102.483 17.4762L102.567 17.4414V9.72591L96.8346 9.72591V12.5308Z" fill="#273990"/>
<path d="M96.8346 12.5308H99.3988V15.4482C99.0528 15.6036 98.5968 15.7376 98.0443 15.8447C96.6602 16.118 95.3379 16.0912 94.1684 15.6009C93.5005 15.3223 92.9104 14.9205 92.4142 14.4088C91.918 13.8971 91.5291 13.2836 91.2555 12.5871C90.9846 11.8879 90.8451 11.1243 90.8451 10.3126C90.8451 9.58393 90.9819 8.89811 91.2528 8.27122C91.5237 7.64434 91.9126 7.09247 92.4088 6.629C92.9051 6.16553 93.4978 5.79851 94.1738 5.54401C94.8497 5.28683 95.582 5.15823 96.3437 5.15823C97.473 5.15823 98.5325 5.35112 99.4927 5.73422C100.45 6.11463 101.25 6.6933 101.872 7.45413L101.912 7.50235H102.301V3.74909L102.237 3.7089C101.606 3.35527 100.737 3.02308 99.6536 2.72571C98.5673 2.42834 97.473 2.27832 96.3947 2.27832C95.1072 2.27832 93.9002 2.48996 92.8112 2.91056C91.7195 3.33116 90.77 3.93126 89.9841 4.70013C89.2008 5.46632 88.5893 6.36378 88.1682 7.36572C87.7471 8.36766 87.5352 9.4473 87.5352 10.5778C87.5352 11.7084 87.7471 12.7934 88.1682 13.8007C88.5893 14.8106 89.1982 15.7161 89.9841 16.4904C90.7673 17.2646 91.7007 17.8781 92.7602 18.3148C93.817 18.7514 94.9838 18.9711 96.2257 18.9711C96.7756 18.9711 97.414 18.8988 98.1221 18.7541C98.8221 18.6121 99.4873 18.4487 100.099 18.2719C100.705 18.0951 101.22 17.9343 101.628 17.7897C102.046 17.6423 102.325 17.5405 102.483 17.4762L102.567 17.4414V9.72591L96.8346 9.72591V12.5308Z" fill="black" fill-opacity="0.25"/>
<path d="M114.859 8.76643L107.746 8.76643V2.71191L104.626 2.71191V18.4429H107.746V11.6222L114.859 11.6222V18.4429H117.981V2.71191L114.859 2.71191V8.76643Z" fill="#273990"/>
<path d="M114.859 8.76643L107.746 8.76643V2.71191L104.626 2.71191V18.4429H107.746V11.6222L114.859 11.6222V18.4429H117.981V2.71191L114.859 2.71191V8.76643Z" fill="black" fill-opacity="0.25"/>
<path d="M119.75 5.54093L124.449 5.54093V18.4429H127.568V5.54093H132.482V2.71191L119.75 2.71191V5.54093Z" fill="#273990"/>
<path d="M119.75 5.54093L124.449 5.54093V18.4429H127.568V5.54093H132.482V2.71191L119.75 2.71191V5.54093Z" fill="black" fill-opacity="0.25"/>
<path d="M142.854 10.1438C142.393 9.72322 141.889 9.36155 141.355 9.07222C140.829 8.78557 140.134 8.45338 139.284 8.08635C138.756 7.85328 138.348 7.61485 138.072 7.37642C137.814 7.15407 137.688 6.85402 137.688 6.46021C137.688 6.12801 137.809 5.85476 138.053 5.62436C138.302 5.39129 138.568 5.27877 138.871 5.27877C139.346 5.27877 139.753 5.42076 140.078 5.70205C140.413 5.99139 140.716 6.42002 140.979 6.97457L141.041 7.10584L143.64 5.58418L143.597 5.47702C143.222 4.54473 142.615 3.80533 141.797 3.27221C140.979 2.74177 140.019 2.47119 138.943 2.47119C137.602 2.47119 136.524 2.88911 135.744 3.70889C134.963 4.52866 134.569 5.53596 134.569 6.69864C134.569 7.25855 134.679 7.77023 134.893 8.21763C135.105 8.65966 135.403 9.06151 135.773 9.4071C136.138 9.74733 136.546 10.0474 136.985 10.2992C137.415 10.5457 137.924 10.8082 138.509 11.0841C138.903 11.2583 139.252 11.4297 139.539 11.5932C139.826 11.7566 140.108 11.9468 140.373 12.1557C140.631 12.3593 140.84 12.6058 140.998 12.8844C141.154 13.1577 141.231 13.4684 141.231 13.8114C141.231 14.3713 141.036 14.8401 140.636 15.25C140.234 15.6572 139.783 15.8554 139.257 15.8554C138.686 15.8554 138.168 15.6491 137.718 15.2446C137.251 14.824 136.8 14.2159 136.379 13.4363L136.318 13.3238L133.627 14.6017L133.665 14.7142C134.056 15.917 134.756 16.8895 135.752 17.6075C136.744 18.3228 137.924 18.6871 139.257 18.6871C139.957 18.6871 140.633 18.5585 141.261 18.3067C141.889 18.0549 142.441 17.7013 142.897 17.2619C143.356 16.8199 143.721 16.2948 143.981 15.7C144.244 15.1026 144.375 14.4677 144.375 13.814C144.375 13.0023 144.238 12.287 143.967 11.6869C143.694 11.0868 143.321 10.5698 142.854 10.1438Z" fill="#273990"/>
<path d="M142.854 10.1438C142.393 9.72322 141.889 9.36155 141.355 9.07222C140.829 8.78557 140.134 8.45338 139.284 8.08635C138.756 7.85328 138.348 7.61485 138.072 7.37642C137.814 7.15407 137.688 6.85402 137.688 6.46021C137.688 6.12801 137.809 5.85476 138.053 5.62436C138.302 5.39129 138.568 5.27877 138.871 5.27877C139.346 5.27877 139.753 5.42076 140.078 5.70205C140.413 5.99139 140.716 6.42002 140.979 6.97457L141.041 7.10584L143.64 5.58418L143.597 5.47702C143.222 4.54473 142.615 3.80533 141.797 3.27221C140.979 2.74177 140.019 2.47119 138.943 2.47119C137.602 2.47119 136.524 2.88911 135.744 3.70889C134.963 4.52866 134.569 5.53596 134.569 6.69864C134.569 7.25855 134.679 7.77023 134.893 8.21763C135.105 8.65966 135.403 9.06151 135.773 9.4071C136.138 9.74733 136.546 10.0474 136.985 10.2992C137.415 10.5457 137.924 10.8082 138.509 11.0841C138.903 11.2583 139.252 11.4297 139.539 11.5932C139.826 11.7566 140.108 11.9468 140.373 12.1557C140.631 12.3593 140.84 12.6058 140.998 12.8844C141.154 13.1577 141.231 13.4684 141.231 13.8114C141.231 14.3713 141.036 14.8401 140.636 15.25C140.234 15.6572 139.783 15.8554 139.257 15.8554C138.686 15.8554 138.168 15.6491 137.718 15.2446C137.251 14.824 136.8 14.2159 136.379 13.4363L136.318 13.3238L133.627 14.6017L133.665 14.7142C134.056 15.917 134.756 16.8895 135.752 17.6075C136.744 18.3228 137.924 18.6871 139.257 18.6871C139.957 18.6871 140.633 18.5585 141.261 18.3067C141.889 18.0549 142.441 17.7013 142.897 17.2619C143.356 16.8199 143.721 16.2948 143.981 15.7C144.244 15.1026 144.375 14.4677 144.375 13.814C144.375 13.0023 144.238 12.287 143.967 11.6869C143.694 11.0868 143.321 10.5698 142.854 10.1438Z" fill="black" fill-opacity="0.25"/>
<path d="M59.0575 27.9587C59.3418 27.6479 59.5859 27.2568 59.7844 26.7907C60.0151 26.2495 60.1304 25.7003 60.1304 25.1592C60.1304 24.0715 59.7361 23.1713 58.9583 22.4855C58.1858 21.8051 57.1156 21.4595 55.7771 21.4595H50.5842V37.1932H56.2546C56.9814 37.1932 57.6869 37.1075 58.3494 36.9387C59.0173 36.7672 59.6208 36.4966 60.1438 36.1296C60.6696 35.7599 61.0961 35.259 61.4072 34.6428C61.7183 34.0266 61.8766 33.2872 61.8766 32.4407C61.8766 31.2994 61.5762 30.3216 60.9861 29.5366C60.4496 28.8106 59.8005 28.2829 59.0575 27.9587ZM53.7064 24.1197H54.7954C55.4606 24.1197 55.9568 24.2563 56.2653 24.5296C56.5737 24.8002 56.724 25.1726 56.724 25.6628C56.724 26.0941 56.5791 26.4692 56.2787 26.8067C55.9836 27.1389 55.6779 27.2997 55.3479 27.2997H53.7091V24.1197H53.7064ZM56.0427 34.3374H53.7064V30.1046H56.0427C56.8044 30.1046 57.416 30.3001 57.8612 30.6832C58.3065 31.0663 58.5211 31.5539 58.5211 32.1728C58.5211 33.6301 57.711 34.3374 56.0427 34.3374Z" fill="#273990"/>
<path d="M59.0575 27.9587C59.3418 27.6479 59.5859 27.2568 59.7844 26.7907C60.0151 26.2495 60.1304 25.7003 60.1304 25.1592C60.1304 24.0715 59.7361 23.1713 58.9583 22.4855C58.1858 21.8051 57.1156 21.4595 55.7771 21.4595H50.5842V37.1932H56.2546C56.9814 37.1932 57.6869 37.1075 58.3494 36.9387C59.0173 36.7672 59.6208 36.4966 60.1438 36.1296C60.6696 35.7599 61.0961 35.259 61.4072 34.6428C61.7183 34.0266 61.8766 33.2872 61.8766 32.4407C61.8766 31.2994 61.5762 30.3216 60.9861 29.5366C60.4496 28.8106 59.8005 28.2829 59.0575 27.9587ZM53.7064 24.1197H54.7954C55.4606 24.1197 55.9568 24.2563 56.2653 24.5296C56.5737 24.8002 56.724 25.1726 56.724 25.6628C56.724 26.0941 56.5791 26.4692 56.2787 26.8067C55.9836 27.1389 55.6779 27.2997 55.3479 27.2997H53.7091V24.1197H53.7064ZM56.0427 34.3374H53.7064V30.1046H56.0427C56.8044 30.1046 57.416 30.3001 57.8612 30.6832C58.3065 31.0663 58.5211 31.5539 58.5211 32.1728C58.5211 33.6301 57.711 34.3374 56.0427 34.3374Z" fill="black" fill-opacity="0.25"/>
<path d="M73.0644 28.4436C73.5821 27.6908 73.8422 26.8362 73.8422 25.9012C73.8422 25.2288 73.692 24.6073 73.3943 24.0554C73.0993 23.5062 72.6782 23.032 72.1444 22.6463C71.616 22.2632 71.0018 21.9685 70.3178 21.7649C69.6365 21.564 68.915 21.4595 68.1693 21.4595H63.7437V37.1932H66.8631V30.7047H68.0004L72.3697 37.1342L72.4099 37.1932H76.09L71.2378 30.1153C71.9674 29.7108 72.5789 29.1509 73.0644 28.4436ZM69.9155 27.3693C69.4863 27.7524 68.9016 27.9453 68.172 27.9453H66.8684V24.3126H68.7246C69.1376 24.3126 69.5534 24.4787 69.9584 24.8082C70.3607 25.135 70.5565 25.494 70.5565 25.9012C70.5538 26.5067 70.3446 26.9862 69.9155 27.3693Z" fill="#273990"/>
<path d="M73.0644 28.4436C73.5821 27.6908 73.8422 26.8362 73.8422 25.9012C73.8422 25.2288 73.692 24.6073 73.3943 24.0554C73.0993 23.5062 72.6782 23.032 72.1444 22.6463C71.616 22.2632 71.0018 21.9685 70.3178 21.7649C69.6365 21.564 68.915 21.4595 68.1693 21.4595H63.7437V37.1932H66.8631V30.7047H68.0004L72.3697 37.1342L72.4099 37.1932H76.09L71.2378 30.1153C71.9674 29.7108 72.5789 29.1509 73.0644 28.4436ZM69.9155 27.3693C69.4863 27.7524 68.9016 27.9453 68.172 27.9453H66.8684V24.3126H68.7246C69.1376 24.3126 69.5534 24.4787 69.9584 24.8082C70.3607 25.135 70.5565 25.494 70.5565 25.9012C70.5538 26.5067 70.3446 26.9862 69.9155 27.3693Z" fill="black" fill-opacity="0.25"/>
<path d="M80.3359 21.4595H77.2166V37.1932H80.3359V21.4595Z" fill="#273990"/>
<path d="M80.3359 21.4595H77.2166V37.1932H80.3359V21.4595Z" fill="black" fill-opacity="0.25"/>
<path d="M95.1843 23.8947C94.4708 23.1499 93.5562 22.5498 92.4645 22.1158C91.3755 21.6818 90.1121 21.4595 88.712 21.4595H82.583V37.1932H88.3982C91.2333 37.1932 93.4542 36.4645 94.9965 35.0259C96.5442 33.5846 97.3274 31.645 97.3274 29.2553C97.3274 28.2855 97.1477 27.3265 96.791 26.4076C96.4369 25.4833 95.8951 24.6368 95.1843 23.8947ZM92.4806 32.947C91.5042 33.823 89.9136 34.265 87.7517 34.265H85.7052V24.3849H87.5854C89.6374 24.3849 91.2306 24.8109 92.3223 25.6494C93.4006 26.4799 93.9478 27.6613 93.9478 29.1589C93.9451 30.8011 93.4516 32.0763 92.4806 32.947Z" fill="#273990"/>
<path d="M95.1843 23.8947C94.4708 23.1499 93.5562 22.5498 92.4645 22.1158C91.3755 21.6818 90.1121 21.4595 88.712 21.4595H82.583V37.1932H88.3982C91.2333 37.1932 93.4542 36.4645 94.9965 35.0259C96.5442 33.5846 97.3274 31.645 97.3274 29.2553C97.3274 28.2855 97.1477 27.3265 96.791 26.4076C96.4369 25.4833 95.8951 24.6368 95.1843 23.8947ZM92.4806 32.947C91.5042 33.823 89.9136 34.265 87.7517 34.265H85.7052V24.3849H87.5854C89.6374 24.3849 91.2306 24.8109 92.3223 25.6494C93.4006 26.4799 93.9478 27.6613 93.9478 29.1589C93.9451 30.8011 93.4516 32.0763 92.4806 32.947Z" fill="black" fill-opacity="0.25"/>
<path d="M108.567 31.2781H111.131V34.1956C110.785 34.3509 110.329 34.4849 109.777 34.592C108.393 34.8653 107.071 34.8385 105.901 34.3483C105.233 34.0696 104.643 33.6678 104.147 33.1561C103.651 32.6444 103.262 32.0309 102.988 31.3344C102.717 30.6352 102.578 29.8717 102.578 29.0599C102.578 28.3312 102.715 27.6454 102.985 27.0185C103.256 26.3917 103.645 25.8398 104.141 25.3763C104.638 24.9129 105.231 24.5458 105.906 24.2913C106.582 24.0341 107.315 23.9056 108.076 23.9056C109.206 23.9056 110.265 24.0984 111.225 24.4815C112.183 24.862 112.982 25.4406 113.605 26.2015L113.645 26.2497H114.034V22.4964L113.967 22.4589C113.336 22.1053 112.467 21.7731 111.384 21.4757C110.297 21.1783 109.203 21.0283 108.125 21.0283C106.837 21.0283 105.63 21.24 104.541 21.6606C103.449 22.0812 102.5 22.6813 101.714 23.4501C100.931 24.2163 100.319 25.1138 99.8981 26.1157C99.477 27.1177 99.2651 28.1973 99.2651 29.3278C99.2651 30.4584 99.477 31.5434 99.8981 32.5507C100.319 33.5606 100.928 34.4661 101.714 35.2404C102.497 36.0146 103.431 36.6281 104.49 37.0648C105.547 37.5014 106.714 37.7211 107.956 37.7211C108.506 37.7211 109.144 37.6488 109.852 37.5041C110.552 37.3621 111.217 37.1987 111.829 37.0219C112.435 36.8451 112.95 36.6843 113.358 36.5397C113.776 36.3923 114.055 36.2905 114.213 36.2262L114.297 36.1914V28.4732L108.565 28.4732V31.2781H108.567Z" fill="#273990"/>
<path d="M108.567 31.2781H111.131V34.1956C110.785 34.3509 110.329 34.4849 109.777 34.592C108.393 34.8653 107.071 34.8385 105.901 34.3483C105.233 34.0696 104.643 33.6678 104.147 33.1561C103.651 32.6444 103.262 32.0309 102.988 31.3344C102.717 30.6352 102.578 29.8717 102.578 29.0599C102.578 28.3312 102.715 27.6454 102.985 27.0185C103.256 26.3917 103.645 25.8398 104.141 25.3763C104.638 24.9129 105.231 24.5458 105.906 24.2913C106.582 24.0341 107.315 23.9056 108.076 23.9056C109.206 23.9056 110.265 24.0984 111.225 24.4815C112.183 24.862 112.982 25.4406 113.605 26.2015L113.645 26.2497H114.034V22.4964L113.967 22.4589C113.336 22.1053 112.467 21.7731 111.384 21.4757C110.297 21.1783 109.203 21.0283 108.125 21.0283C106.837 21.0283 105.63 21.24 104.541 21.6606C103.449 22.0812 102.5 22.6813 101.714 23.4501C100.931 24.2163 100.319 25.1138 99.8981 26.1157C99.477 27.1177 99.2651 28.1973 99.2651 29.3278C99.2651 30.4584 99.477 31.5434 99.8981 32.5507C100.319 33.5606 100.928 34.4661 101.714 35.2404C102.497 36.0146 103.431 36.6281 104.49 37.0648C105.547 37.5014 106.714 37.7211 107.956 37.7211C108.506 37.7211 109.144 37.6488 109.852 37.5041C110.552 37.3621 111.217 37.1987 111.829 37.0219C112.435 36.8451 112.95 36.6843 113.358 36.5397C113.776 36.3923 114.055 36.2905 114.213 36.2262L114.297 36.1914V28.4732L108.565 28.4732V31.2781H108.567Z" fill="black" fill-opacity="0.25"/>
<path d="M119.406 34.3856V30.3457H124.893V27.514H119.406V24.2644H126.548V21.4595H116.286V37.1905H127.004V34.3856H119.406Z" fill="#273990"/>
<path d="M119.406 34.3856V30.3457H124.893V27.514H119.406V24.2644H126.548V21.4595H116.286V37.1905H127.004V34.3856H119.406Z" fill="black" fill-opacity="0.25"/>
</svg>
