<svg width="355" height="310" viewBox="0 0 355 310" fill="none" xmlns="http://www.w3.org/2000/svg">
<g clip-path="url(#clip0_5785_210295)">
<path d="M219.458 35.7522C219.961 36.2653 220.412 36.771 220.806 37.2677C221.132 37.6767 221.421 38.0797 221.669 38.4724C221.796 38.6717 221.91 38.8695 222.016 39.0643C222.706 40.3448 222.937 41.5153 222.623 42.4969C220.863 47.9892 211.113 45.9636 199.331 40.8088C187.789 35.7581 179.501 28.3234 180.823 24.2037C181.235 22.9173 183.253 21.7215 187.755 21.961" stroke="#00BDE3" stroke-width="1.42928" stroke-miterlimit="10"/>
<path d="M220.76 40.5142C219.76 43.6329 210.574 42.4937 200.241 37.9725C189.908 33.4497 182.342 27.2569 183.341 24.1396C184.07 21.8671 189.891 21.2603 196.59 23.1714C199.085 23.8823 201.802 24.8594 204.606 26.0864C206.384 26.8642 208.081 27.6926 209.666 28.5463C211.556 29.5636 213.287 30.6165 214.809 31.6651C215.406 32.0755 215.97 32.4845 216.498 32.892C216.959 33.246 217.394 33.5985 217.8 33.9465" stroke="#00BDE3" stroke-width="1.42928" stroke-miterlimit="10"/>
<path d="M199.137 26.7568C200.536 27.2714 201.984 27.8529 203.456 28.4969C213.562 32.92 221.067 38.6474 220.221 41.2902" stroke="#00BDE3" stroke-width="1.42928" stroke-miterlimit="10"/>
<path d="M183.625 25.2738C183.708 25.0136 183.87 24.792 184.102 24.6105C185.278 23.6914 188.277 23.7554 192.258 24.6685C193.344 24.9169 194.503 25.2292 195.718 25.601" stroke="#00BDE3" stroke-width="1.42928" stroke-miterlimit="10"/>
<path d="M193.113 43.6921L195.03 39.7554" stroke="#00BDE3" stroke-width="1.42928" stroke-miterlimit="10"/>
<path d="M206.228 48.9838L207.847 45.2583" stroke="#00BDE3" stroke-width="1.42928" stroke-miterlimit="10"/>
<path d="M204.045 48.2641L205.91 44.4092" stroke="#00BDE3" stroke-width="1.42928" stroke-miterlimit="10"/>
<path d="M213.564 50.2348L215.064 46.8052" stroke="#00BDE3" stroke-width="1.42928" stroke-miterlimit="10"/>
<path d="M184.016 37.6747L185.843 34.0518" stroke="#00BDE3" stroke-width="1.42928" stroke-miterlimit="10"/>
<path d="M180.823 24.2036L178.514 31.4093C177.4 34.882 185.706 42.3867 197.25 47.4374C208.792 52.488 216.683 53.074 218.826 49.7024L222.624 42.4967" stroke="#00BDE3" stroke-width="1.42928" stroke-miterlimit="10"/>
<path d="M327.455 134.539C327.779 134.542 328.084 134.558 328.37 134.59C328.605 134.615 328.825 134.651 329.031 134.697C329.135 134.721 329.234 134.746 329.331 134.774C329.962 134.961 330.41 135.26 330.626 135.672C331.827 137.986 328.071 140.463 322.666 142.594C317.369 144.682 312.345 144.968 311.445 143.234C310.544 141.498 314.108 138.4 319.405 136.312C321.344 135.547 323.247 135.024 324.925 134.753" stroke="#00BDE3" stroke-width="0.85757" stroke-miterlimit="10"/>
<path d="M329.396 135.639C330.078 136.953 326.786 139.533 322.045 141.401C317.303 143.27 312.907 143.721 312.225 142.406C311.728 141.448 313.342 139.82 316.089 138.282C317.111 137.71 318.291 137.15 319.577 136.643C320.393 136.322 321.199 136.042 321.978 135.806C322.906 135.525 323.795 135.306 324.616 135.151C324.938 135.09 325.249 135.041 325.548 135.001C325.808 134.967 326.06 134.939 326.301 134.919" stroke="#00BDE3" stroke-width="0.85757" stroke-miterlimit="10"/>
<path d="M318.097 138.183C318.707 137.899 319.354 137.621 320.03 137.354C324.667 135.527 328.895 134.947 329.472 136.061" stroke="#00BDE3" stroke-width="0.85757" stroke-miterlimit="10"/>
<path d="M312.679 142.679C312.623 142.569 312.603 142.447 312.618 142.314C312.699 141.645 313.673 140.705 315.235 139.721C315.66 139.452 316.129 139.181 316.636 138.91" stroke="#00BDE3" stroke-width="0.85757" stroke-miterlimit="10"/>
<path d="M321.838 145.652L321.155 143.678" stroke="#00BDE3" stroke-width="0.85757" stroke-miterlimit="10"/>
<path d="M327.864 142.801L327.005 141.349" stroke="#00BDE3" stroke-width="0.85757" stroke-miterlimit="10"/>
<path d="M326.936 143.366L325.914 141.636" stroke="#00BDE3" stroke-width="0.85757" stroke-miterlimit="10"/>
<path d="M331.829 139.492L330.737 137.815" stroke="#00BDE3" stroke-width="0.85757" stroke-miterlimit="10"/>
<path d="M317.03 146.709L316.174 144.552" stroke="#00BDE3" stroke-width="0.85757" stroke-miterlimit="10"/>
<path d="M311.443 143.235L313.017 146.27C313.776 147.732 318.686 147.227 323.982 145.139C329.279 143.051 332.958 140.173 332.199 138.709L331.844 138.033L330.624 135.675" stroke="#00BDE3" stroke-width="0.85757" stroke-miterlimit="10"/>
<path d="M146.308 11.2791C146.509 11.2672 146.698 11.2642 146.875 11.2716C147.02 11.2776 147.159 11.291 147.287 11.3103C147.352 11.3207 147.415 11.3326 147.476 11.346C147.873 11.4352 148.163 11.6003 148.312 11.8472C149.15 13.2259 146.936 14.9124 143.685 16.4547C140.502 17.9657 137.411 18.3524 136.783 17.3188C136.155 16.2851 138.227 14.2223 141.41 12.7113C142.575 12.158 143.729 11.755 144.754 11.5185" stroke="#00BDE3" stroke-width="0.571714" stroke-miterlimit="10"/>
<path d="M147.553 11.8768C148.029 12.6591 146.105 14.3902 143.254 15.7421C140.404 17.0941 137.707 17.5566 137.232 16.7743C136.886 16.2032 137.814 15.1294 139.445 14.066C140.053 13.6704 140.758 13.2748 141.53 12.9089C142.021 12.6769 142.507 12.4702 142.978 12.2917C143.539 12.0791 144.08 11.9065 144.58 11.7772C144.776 11.7266 144.967 11.682 145.148 11.6448C145.307 11.6121 145.462 11.5853 145.609 11.563" stroke="#00BDE3" stroke-width="0.571714" stroke-miterlimit="10"/>
<path d="M140.681 13.9205C141.046 13.7197 141.434 13.5204 141.84 13.3271C144.628 12.0049 147.214 11.4695 147.617 12.1328" stroke="#00BDE3" stroke-width="0.571714" stroke-miterlimit="10"/>
<path d="M137.524 16.9233C137.484 16.8579 137.468 16.7835 137.472 16.7002C137.493 16.2838 138.057 15.6621 138.98 14.9884C139.231 14.8055 139.51 14.6166 139.812 14.4292" stroke="#00BDE3" stroke-width="0.571714" stroke-miterlimit="10"/>
<path d="M143.304 18.3758L142.8 17.186" stroke="#00BDE3" stroke-width="0.571714" stroke-miterlimit="10"/>
<path d="M146.906 16.364L146.315 15.5029" stroke="#00BDE3" stroke-width="0.571714" stroke-miterlimit="10"/>
<path d="M146.359 16.7518L145.655 15.7256" stroke="#00BDE3" stroke-width="0.571714" stroke-miterlimit="10"/>
<path d="M149.217 14.1536L148.473 13.1646" stroke="#00BDE3" stroke-width="0.571714" stroke-miterlimit="10"/>
<path d="M140.378 19.23L139.76 17.9346" stroke="#00BDE3" stroke-width="0.571714" stroke-miterlimit="10"/>
<path d="M136.784 17.3187L137.884 19.1272C138.414 19.9987 141.425 19.4797 144.608 17.9701C147.791 16.4591 149.943 14.5272 149.413 13.6571L149.166 13.2541L148.314 11.8486" stroke="#00BDE3" stroke-width="0.571714" stroke-miterlimit="10"/>
<path d="M348.353 44.4281C348.818 45.8171 349.178 47.2018 349.429 48.5715C349.636 49.7018 349.77 50.8217 349.828 51.9268C349.858 52.4874 349.867 53.0452 349.856 53.5969C349.786 57.2273 348.853 60.6554 346.963 63.676C339.033 76.3473 317.262 77.0315 298.338 65.2034C279.412 53.3753 270.501 33.5132 278.43 20.8418C286.361 8.17052 308.132 7.4849 327.056 19.3144C333.986 23.6468 339.574 29.0544 343.482 34.7937" stroke="#00BDE3" stroke-width="1.71523" stroke-miterlimit="10"/>
<path d="M276.671 23.9639L274.6 26.9636C265.621 41.3111 273.685 62.5296 292.61 74.3577C311.534 86.1858 334.155 84.1438 343.133 69.7978L347.289 63.1379" stroke="#00BDE3" stroke-width="1.71523" stroke-miterlimit="10"/>
<path d="M343.406 61.4516C336.299 72.8082 316.788 73.421 299.829 62.8214C282.869 52.2203 274.881 34.4209 281.988 23.0643C287.167 14.7878 298.934 12.2178 311.501 15.5344C316.178 16.7688 320.966 18.8197 325.566 21.6946C328.484 23.5194 331.137 25.557 333.495 27.7387C336.305 30.3399 338.692 33.1449 340.602 36.0361C341.351 37.1679 342.027 38.3145 342.626 39.4657C343.149 40.4696 343.615 41.4794 344.019 42.4877" stroke="#00BDE3" stroke-width="1.71523" stroke-miterlimit="10"/>
<path d="M317.379 19.7578C319.884 20.7558 322.367 22.0065 324.781 23.5161C341.349 33.8718 348.409 52.449 340.549 65.0102" stroke="#00BDE3" stroke-width="1.71523" stroke-miterlimit="10"/>
<path d="M280.549 27.5078C281.323 26.2704 282.215 25.1371 283.207 24.1095C288.215 18.9249 295.809 16.4382 304.119 16.8205C306.386 16.9246 308.706 17.2428 311.041 17.7768" stroke="#00BDE3" stroke-width="1.71523" stroke-miterlimit="10"/>
<path d="M282.913 62.7737L286.412 58.6035" stroke="#00BDE3" stroke-width="1.71523" stroke-miterlimit="10"/>
<path d="M305.611 77.8157L309.109 73.6455" stroke="#00BDE3" stroke-width="1.71523" stroke-miterlimit="10"/>
<path d="M301.199 76.7312L304.697 72.5625" stroke="#00BDE3" stroke-width="1.71523" stroke-miterlimit="10"/>
<path d="M327.201 78.8167L330.7 74.6479" stroke="#00BDE3" stroke-width="1.71523" stroke-miterlimit="10"/>
<path d="M272.779 45.3157L276.277 41.1455" stroke="#00BDE3" stroke-width="1.71523" stroke-miterlimit="10"/>
<path d="M330.264 238.051C329.435 237.538 328.594 237.093 327.745 236.72C327.045 236.413 326.34 236.154 325.633 235.948C325.274 235.843 324.914 235.752 324.555 235.674C322.194 235.162 319.83 235.24 317.584 235.999C308.162 239.186 304.381 253.163 309.14 267.218C313.9 281.273 325.397 290.083 334.82 286.897C344.243 283.709 348.024 269.733 343.264 255.677C341.521 250.531 338.875 246.086 335.757 242.678" stroke="#00BDE3" stroke-width="1.46273" stroke-miterlimit="10"/>
<path d="M332.529 287.556L330.268 288.437C319.6 292.045 307.092 283.576 302.333 269.522C297.574 255.467 302.363 241.149 313.032 237.54L317.983 235.874" stroke="#00BDE3" stroke-width="1.46273" stroke-miterlimit="10"/>
<path d="M318.48 238.641C310.035 241.497 306.647 254.024 310.912 266.62C315.177 279.216 325.481 287.111 333.926 284.255C340.081 282.174 343.549 274.957 343.328 266.32C343.245 263.105 342.652 259.693 341.494 256.277C340.76 254.109 339.847 252.081 338.796 250.223C337.542 248.006 336.091 246.032 334.511 244.353C333.892 243.695 333.255 243.083 332.6 242.517C332.03 242.025 331.447 241.57 330.856 241.153" stroke="#00BDE3" stroke-width="1.46273" stroke-miterlimit="10"/>
<path d="M341.495 261.869C341.232 260.096 340.802 258.298 340.196 256.505C336.029 244.2 325.079 236.786 315.739 239.945" stroke="#00BDE3" stroke-width="1.46273" stroke-miterlimit="10"/>
<path d="M308.35 277.567L311.587 275.944" stroke="#00BDE3" stroke-width="1.46273" stroke-miterlimit="10"/>
<path d="M302.086 260.581L305.324 258.957" stroke="#00BDE3" stroke-width="1.46273" stroke-miterlimit="10"/>
<path d="M302.112 263.6L305.349 261.978" stroke="#00BDE3" stroke-width="1.46273" stroke-miterlimit="10"/>
<path d="M304.748 246.46L307.985 244.837" stroke="#00BDE3" stroke-width="1.46273" stroke-miterlimit="10"/>
<path d="M49.4682 289.581C50.2688 290.292 51.1126 290.946 51.9951 291.536C52.7229 292.024 53.4789 292.469 54.2572 292.868C54.6531 293.07 55.0534 293.262 55.4611 293.44C58.1369 294.614 61.0568 295.261 64.1165 295.261C76.9537 295.261 87.3607 283.885 87.3607 269.851C87.3607 255.817 76.9537 244.441 64.1165 244.441C51.2793 244.441 40.8723 255.817 40.8723 269.851C40.8723 274.991 42.2682 279.772 44.6672 283.772" stroke="#00BDE3" stroke-width="1.14343" stroke-miterlimit="10"/>
<path d="M66.8816 295.261C79.7188 295.261 90.1258 283.885 90.1258 269.851C90.1258 255.817 79.7188 244.441 66.8816 244.441" stroke="#00BDE3" stroke-width="1.14343" stroke-miterlimit="10"/>
<path d="M64.117 292.622C75.6222 292.622 84.9488 282.427 84.9488 269.851C84.9488 257.275 75.6222 247.08 64.117 247.08C55.7324 247.08 48.5057 252.495 45.2019 260.3C43.9727 263.204 43.2866 266.441 43.2866 269.852C43.2866 272.016 43.5634 274.112 44.0798 276.094C44.6945 278.459 45.6514 280.668 46.8866 282.652C47.3702 283.428 47.8971 284.171 48.4626 284.875C48.9567 285.489 49.479 286.074 50.0297 286.627" stroke="#00BDE3" stroke-width="1.14343" stroke-miterlimit="10"/>
<path d="M65.3211 247.078C53.8158 247.078 44.4893 257.273 44.4893 269.849C44.4893 282.425 53.8158 292.622 65.3211 292.622" stroke="#00BDE3" stroke-width="1.14343" stroke-miterlimit="10"/>
<path d="M68.2161 203.987C68.3337 204.613 68.4155 205.21 68.4617 205.771C68.5004 206.233 68.5138 206.673 68.5018 207.085C68.4959 207.295 68.484 207.497 68.4646 207.694C68.3411 208.98 67.9319 209.957 67.2145 210.525C63.1994 213.708 57.0085 207.398 50.8681 197.775C44.8514 188.347 42.4152 178.77 45.4258 176.384C48.4364 173.999 55.7554 179.707 61.7722 189.134C63.9762 192.586 65.6996 196.059 66.8499 199.192" stroke="#00BDE3" stroke-width="1.42928" stroke-miterlimit="10"/>
<path d="M66.8191 208.145C64.5392 209.952 58.3245 204.574 52.9387 196.134C47.5529 187.693 45.0348 179.387 47.3133 177.582C48.9741 176.265 52.7258 178.764 56.7232 183.483C58.2114 185.239 59.7323 187.304 61.1937 189.593C62.1209 191.046 62.9632 192.494 63.7103 193.906C64.6017 195.589 65.3577 197.221 65.9619 198.747C66.1985 199.343 66.4128 199.925 66.6018 200.487C66.767 200.976 66.9144 201.45 67.0408 201.909" stroke="#00BDE3" stroke-width="1.42928" stroke-miterlimit="10"/>
<path d="M57.6726 187.315C58.4509 188.386 59.2308 189.53 59.9987 190.733C65.2669 198.987 67.971 206.92 66.0378 208.451" stroke="#00BDE3" stroke-width="1.42928" stroke-miterlimit="10"/>
<path d="M46.9626 178.558C47.1531 178.408 47.3808 178.325 47.6428 178.306C48.9658 178.209 51.1445 179.736 53.6313 182.376C54.3099 183.096 55.0108 183.899 55.7222 184.774" stroke="#00BDE3" stroke-width="1.42928" stroke-miterlimit="10"/>
<path d="M44.6604 197.33L48.2127 195.271" stroke="#00BDE3" stroke-width="1.42928" stroke-miterlimit="10"/>
<path d="M52.4224 207.875L54.9017 205.676" stroke="#00BDE3" stroke-width="1.42928" stroke-miterlimit="10"/>
<path d="M50.9836 206.302L53.9377 203.683" stroke="#00BDE3" stroke-width="1.42928" stroke-miterlimit="10"/>
<path d="M60.2974 214.282L63.1249 211.547" stroke="#00BDE3" stroke-width="1.42928" stroke-miterlimit="10"/>
<path d="M40.8149 188.456L44.656 185.999" stroke="#00BDE3" stroke-width="1.42928" stroke-miterlimit="10"/>
<path d="M45.4252 176.384L40.157 180.559C37.6181 182.571 40.4383 191.844 46.4551 201.272C52.4719 210.699 59.4069 216.712 61.9458 214.7L63.1199 213.763L67.214 210.525" stroke="#00BDE3" stroke-width="1.42928" stroke-miterlimit="10"/>
<path d="M67.1313 278.51H68.2996" stroke="#00BDE3" stroke-width="2.001" stroke-miterlimit="10"/>
<path d="M66.7407 286.409H67.6947" stroke="#00BDE3" stroke-width="2.001" stroke-miterlimit="10"/>
<path d="M65.9529 289.484H66.5913" stroke="#00BDE3" stroke-width="2.001" stroke-miterlimit="10"/>
<path d="M62.2935 296.121H63.0361" stroke="#00BDE3" stroke-width="2.001" stroke-miterlimit="10"/>
<path d="M10.8386 66.2731C11.5961 67.9106 12.4563 69.4841 13.4192 70.9802C14.2124 72.2147 15.074 73.397 16.0012 74.5199C16.473 75.091 16.9596 75.6457 17.4656 76.1856C20.7813 79.7297 24.8188 82.5793 29.4888 84.477C49.0839 92.4427 72.3995 80.6414 81.5683 58.117C90.7357 35.5942 82.2827 10.8777 62.689 2.91199C43.0924 -5.0522 19.7753 6.75058 10.608 29.2734C7.25057 37.5217 6.25645 46.0644 7.30712 53.9706" stroke="#00BDE3" stroke-width="1.71514" stroke-miterlimit="10"/>
<path d="M33.7078 86.1929C53.3029 94.1586 76.6185 82.3573 85.7874 59.833C94.9547 37.3101 86.5017 12.5936 66.908 4.62793" stroke="#00BDE3" stroke-width="1.71514" stroke-miterlimit="10"/>
<path d="M31.2092 80.244C48.77 87.3828 69.6658 76.8055 77.8822 56.6206C86.0985 36.4357 78.5236 14.2847 60.9628 7.14589C48.1658 1.94351 33.5963 6.14944 23.4542 16.6256C19.6801 20.5251 16.5177 25.2933 14.2899 30.7678C12.8761 34.242 11.9296 37.7742 11.4221 41.2782C10.8164 45.4558 10.8328 49.5934 11.4236 53.5435C11.6543 55.0902 11.9727 56.6087 12.3775 58.09C12.7302 59.3809 13.1454 60.6436 13.6246 61.872" stroke="#00BDE3" stroke-width="1.71514" stroke-miterlimit="10"/>
<path d="M62.8004 7.89436C45.2396 0.755583 24.3438 11.3329 16.1274 31.5178C7.91106 51.7026 15.486 73.8537 33.0468 80.9925" stroke="#00BDE3" stroke-width="1.71514" stroke-miterlimit="10"/>
<g opacity="0.42">
<g opacity="0.42">
<path opacity="0.42" d="M88.4554 66.8159L58.9746 79.2924C54.9408 81.0001 52.1028 84.7017 51.5066 89.0392L43.7804 145.108C42.9943 150.817 46.2386 156.317 51.6165 158.394L81.3737 158.036L81.8817 135.6C81.8817 135.6 122.4 132.512 129.152 131.352C143.177 115.334 162.668 117.073 162.668 117.073L164.225 90.1644C164.403 84.9864 156.351 80.2411 151.561 78.2588L122.268 66.1335C120.656 65.4661 118.922 65.1448 117.178 65.1914L92.9722 65.8389C91.4183 65.8789 89.8861 66.2101 88.4554 66.8159Z" fill="#00BDE3"/>
</g>
</g>
<path d="M84.4749 67.4756C84.4749 67.4756 91.8613 76.9678 100.88 78.1545L99.6558 81.951V132.96L109.735 131.296V78.0346C109.735 78.0346 124.72 74.9089 127.758 68.4043L128.659 66.0392L101.448 57.8652L84.4749 65.901V67.4756Z" fill="white"/>
<path d="M61.9336 80.1714C61.9336 80.1714 72.138 108.859 72.4944 121.198" stroke="#0063F5" stroke-width="1.59955" stroke-miterlimit="10"/>
<path d="M149.939 79.0796C149.939 79.0796 140.9 109.765 140.544 122.103" stroke="#0063F5" stroke-width="1.59955" stroke-miterlimit="10"/>
<path d="M87.5226 31.6701C87.5226 31.6701 84.2499 28.6908 83.174 32.2609C82.253 35.3135 83.8235 39.3297 86.978 40.8626L93.9963 50.6028L105.042 57.4968L118.695 47.9997L123.552 40.8626C123.552 40.8626 129.285 37.0711 126.317 31.0742C124.76 27.9251 121.915 31.6701 121.915 31.6701L120.746 28.8971L120.719 20.1789L116.539 14.5615H92.8205L88.7301 20.1789L88.6135 28.8971L87.5226 31.6701Z" fill="#F2BF85"/>
<path d="M109.216 28.0269C109.536 28.5379 114.9 26.6221 117.457 28.0269C117.457 28.0269 115.731 25.3455 113.751 25.4737C111.771 25.6019 109.216 25.8032 109.216 26.3775V28.0269Z" fill="#0063F5"/>
<path d="M109.216 33.2665C109.216 33.2665 113.04 27.6208 116.572 32.7506" stroke="#0063F5" stroke-width="1.59955" stroke-miterlimit="10"/>
<path d="M113.973 31.8452C113.973 32.4328 113.497 33.0886 112.909 33.0886C112.321 33.0886 111.845 32.6125 111.845 32.025C111.845 31.4375 112.321 30.9614 112.909 30.9614C113.497 30.9598 113.973 31.2577 113.973 31.8452Z" fill="#0063F5"/>
<path d="M99.7066 28.0269C99.3869 28.5379 94.0207 26.6221 91.4658 28.0269C91.4658 28.0269 93.1913 25.3455 95.1715 25.4737C97.1518 25.6019 99.7066 25.8032 99.7066 26.3775V28.0269Z" fill="#0063F5"/>
<path d="M99.7065 33.2665C99.7065 33.2665 95.8826 27.6208 92.3501 32.7506" stroke="#0063F5" stroke-width="1.59955" stroke-miterlimit="10"/>
<path d="M94.9495 31.8452C94.9495 32.4328 95.4258 33.0886 96.0137 33.0886C96.6016 33.0886 97.078 32.6125 97.078 32.025C97.078 31.4375 96.6016 30.9614 96.0137 30.9614C95.4258 30.9598 94.9495 31.2577 94.9495 31.8452Z" fill="#0063F5"/>
<path d="M101.324 40.7267C101.324 40.7267 100.854 40.8914 100.566 42.8172C100.278 44.7446 104.307 45.427 104.883 45.3255C105.461 45.2239 108.998 44.0638 108.998 44.0638C108.998 44.0638 109.301 41.3591 108.181 40.0742" stroke="#0063F5" stroke-width="1.59955" stroke-miterlimit="10"/>
<path d="M99.6694 26.7925C102.476 27.2086 103.608 29.3241 103.871 32.0637C104.374 37.3049 104.521 42.3997 104.176 43.6297" stroke="#0063F5" stroke-width="1.59955" stroke-miterlimit="10"/>
<path d="M111.593 36.256C111.593 36.256 115.878 34.9794 117.457 35.7451" stroke="#0063F5" stroke-width="1.59955" stroke-miterlimit="10"/>
<path d="M98.0358 36.256C98.0358 36.256 93.7505 34.9794 92.1716 35.7451" stroke="#0063F5" stroke-width="1.59955" stroke-miterlimit="10"/>
<path d="M99.0466 47.3843C98.5353 48.3197 103.32 49.4831 108.427 48.3829" stroke="#0063F5" stroke-width="1.59955" stroke-miterlimit="10" stroke-linecap="round" stroke-linejoin="round"/>
<path d="M121.041 51.8283C122.179 51.6968 122.179 30.9582 122.179 30.9582C122.179 30.9582 119.353 43.7492 115.447 47.2878C115.447 47.2878 114.791 42.9353 111.92 43.0119C109.048 43.0885 105.448 45.7199 105.448 45.7199C105.448 45.7199 109.68 48.13 112.854 46.5688V51.081L106.805 52.6988C106.805 52.6988 106.833 51.1676 105.448 51.081C105.144 51.0627 104.936 51.056 104.795 51.0577C104.653 51.056 104.445 51.0627 104.142 51.081C102.756 51.1659 102.784 52.6988 102.784 52.6988L96.7354 51.081V47.8104C96.7354 46.7102 97.8945 44.2702 98.8089 44.8844C102.53 47.381 104.14 45.7183 104.14 45.7183C104.14 45.7183 100.539 41.9201 97.668 41.8452C94.7967 41.7703 94.1405 47.2861 94.1405 47.2861C90.235 43.7459 87.4086 30.9565 87.4086 30.9565C87.4086 30.9565 87.4086 51.6952 88.5462 51.8267C87.6685 53.4961 85.9164 58.3362 89.2557 62.9982C90.8612 72.5903 103.286 72.274 104.793 72.1991C106.3 72.274 118.725 72.5903 120.33 62.9982C123.671 58.3379 121.919 53.4994 121.041 51.8283Z" fill="#0063F5"/>
<path d="M99.7115 46.7006C99.8947 46.6706 98.534 46.9103 98.0959 48.5165" stroke="#0063F5" stroke-width="1.59955" stroke-miterlimit="10" stroke-linecap="round" stroke-linejoin="round"/>
<path d="M118.496 19.4453C118.496 19.4453 118.184 29.6049 121.915 31.6705L123.401 30.5969V21.1896L118.496 19.4453ZM85.864 21.1913V30.5986L87.3496 31.6721C91.0803 29.6082 90.7689 19.447 90.7689 19.447L85.864 21.1913Z" fill="#0063F5"/>
<path d="M123.435 25.8466C123.435 25.8466 115.041 22.3064 104.688 22.3064C94.3353 22.3064 85.9412 25.8466 85.9412 25.8466C85.9412 25.8466 85.0952 12.9357 89.0407 9.25068C92.3334 6.1765 99.9779 5.20947 104.688 5.20947C107.994 5.20947 117.849 6.30965 120.545 9.10088C126.294 15.0478 123.435 25.8466 123.435 25.8466Z" fill="#FCFCFC"/>
<path d="M123.435 25.8466C123.435 25.8466 115.041 22.3064 104.688 22.3064C94.3353 22.3064 85.9412 25.8466 85.9412 25.8466C85.9412 25.8466 85.0952 12.9357 89.0407 9.25068C92.3334 6.1765 99.9779 5.20947 104.688 5.20947C107.994 5.20947 117.849 6.30965 120.545 9.10088C126.294 15.0478 123.435 25.8466 123.435 25.8466Z" stroke="#0063F5" stroke-width="1.59955" stroke-miterlimit="10"/>
<path d="M123.401 16.7275C123.401 16.7275 114.524 17.5781 109.216 22.1752" stroke="#0063F5" stroke-width="1.59955" stroke-miterlimit="10"/>
<path d="M119.888 9.23779C119.888 9.23779 96.3593 11.3666 87.2991 24.7285" stroke="#0063F5" stroke-width="1.59955" stroke-miterlimit="10"/>
<path d="M108.388 5.69238C108.388 5.69238 95.6322 6.08852 86.084 18.089" stroke="#0063F5" stroke-width="1.59955" stroke-miterlimit="10"/>
<path d="M117.458 18.0903C117.458 18.0903 120.898 21.4092 120.947 24.728" stroke="#0063F5" stroke-width="1.59955" stroke-miterlimit="10"/>
<path d="M111.592 53.668C111.592 53.668 111.199 57.4978 115.288 57.4978" stroke="#00BDE3" stroke-width="1.59955" stroke-miterlimit="10"/>
<path d="M99.7065 56.6465C99.7065 56.6465 100.083 62.2639 104.363 62.7749C104.363 62.7749 102.938 66.4349 107.621 67.9662" stroke="#00BDE3" stroke-width="1.59955" stroke-miterlimit="10"/>
<path d="M120.331 63C120.331 63 116.49 66.9463 112.907 63.456" stroke="#00BDE3" stroke-width="1.59955" stroke-miterlimit="10"/>
<path d="M96.0281 64.3081C96.0281 64.3081 94.9489 70.3866 100.094 71.9278" stroke="#00BDE3" stroke-width="1.59955" stroke-miterlimit="10"/>
<path d="M88.5486 51.8276C88.5486 51.8276 88.6285 56.4747 93.3135 58.3472" stroke="#00BDE3" stroke-width="1.59955" stroke-miterlimit="10"/>
<path d="M90.9301 56.8716C90.9301 56.8716 90.2772 60.5017 92.3491 63" stroke="#00BDE3" stroke-width="1.59955" stroke-miterlimit="10"/>
<path d="M119.201 54.2627C119.201 54.2627 120.48 54.0929 121.042 51.8276" stroke="#00BDE3" stroke-width="1.59955" stroke-miterlimit="10"/>
<path d="M104.364 60.3911C104.364 60.3911 104.215 63.0292 106.94 64.3058" stroke="#00BDE3" stroke-width="1.59955" stroke-miterlimit="10"/>
<path d="M131.187 117.072H129.083C124.25 117.072 120.333 113.157 120.333 108.327V91.3149H139.939V108.327C139.937 113.155 136.02 117.072 131.187 117.072Z" fill="white"/>
<g opacity="0.38">
<g opacity="0.38">
<path opacity="0.38" d="M140.286 94.4085H120.073C119.044 94.4085 118.209 93.5747 118.209 92.5461V90.3757C118.209 89.3471 119.044 88.5132 120.073 88.5132H140.286C141.315 88.5132 142.149 89.3471 142.149 90.3757V92.5461C142.149 93.5747 141.315 94.4085 140.286 94.4085Z" fill="#273990"/>
</g>
</g>
<path d="M106.938 85.0148C106.938 86.125 106.038 87.0238 104.927 87.0238C103.817 87.0238 102.917 86.125 102.917 85.0148C102.917 83.9046 103.817 83.0059 104.927 83.0059C106.038 83.0059 106.938 83.9063 106.938 85.0148Z" fill="#0063F5"/>
<path d="M106.938 105.369C106.938 106.479 106.038 107.378 104.927 107.378C103.817 107.378 102.917 106.479 102.917 105.369C102.917 104.259 103.817 103.36 104.927 103.36C106.038 103.36 106.938 104.261 106.938 105.369Z" fill="#0063F5"/>
<path d="M106.996 125.807C106.996 126.917 106.097 127.816 104.986 127.816C103.875 127.816 102.976 126.917 102.976 125.807C102.976 124.697 103.875 123.798 104.986 123.798C106.097 123.798 106.996 124.697 106.996 125.807Z" fill="#0063F5"/>
<path d="M76.5376 160.373H70.1255V148.514C70.1255 146.745 71.5611 145.31 73.3315 145.31C75.102 145.31 76.5376 146.745 76.5376 148.514V160.373Z" stroke="#0063F5" stroke-width="1.59955" stroke-miterlimit="10"/>
<path d="M74.9342 149.552C74.9342 150.323 74.3096 150.947 73.5385 150.947C72.7674 150.947 72.1428 150.323 72.1428 149.552C72.1428 148.782 72.7674 148.158 73.5385 148.158C74.3096 148.158 74.9342 148.782 74.9342 149.552Z" fill="#0063F5"/>
<path d="M52.6729 140.327C52.6729 140.327 57.9957 135.402 63.8233 136.204" stroke="#0063F5" stroke-width="1.59955" stroke-miterlimit="10"/>
<g opacity="0.42">
<g opacity="0.42">
<path opacity="0.42" d="M63.8237 159.517V303.769H126.643H136.93C136.93 303.769 124.446 248.063 131.263 234.418C138.079 220.773 137.713 220.061 137.713 220.061L139.732 216.046V211.637C139.732 211.637 135.012 214.987 132.457 213.854C131.737 213.534 129.244 214.307 127.7 205.823C117.014 198.488 98.4325 163.998 98.4325 163.998L107.303 153.484L82.4156 157.141L82.1191 159.343L63.8237 159.517Z" fill="#00BDE3"/>
</g>
</g>
<g opacity="0.55">
<g opacity="0.55">
<path opacity="0.55" d="M145.651 153.817C145.651 153.817 133.145 166.392 129.015 168.57L127.386 168.209C127.386 168.209 135.29 187.976 137.315 195.78C137.315 195.78 143.654 193.237 146.336 193.886C146.336 193.886 155.507 187.6 154.37 182.373C153.232 177.147 150.353 169.649 150.353 169.649C150.353 169.649 143.566 162.565 145.651 153.817Z" fill="#00BDE3"/>
</g>
</g>
<path d="M99.2483 169.739V205.437L102.343 210.036C103.272 211.416 105.304 211.416 106.232 210.036L109.326 205.437V185.964L99.2483 169.739Z" fill="white"/>
<path d="M121.041 95.9117C121.772 95.6204 138.632 95.9117 138.632 95.9117" stroke="#0063F5" stroke-width="1.59955" stroke-miterlimit="10"/>
<path d="M71.0752 84.8569C71.0752 84.8569 72.8556 97.6713 72.1444 102.476" stroke="#0063F5" stroke-width="1.59955" stroke-miterlimit="10" stroke-dasharray="3.84 3.84"/>
<path d="M107.622 119.029C107.622 119.029 115.149 125.259 118.49 126.682" stroke="#0063F5" stroke-width="1.59955" stroke-miterlimit="10"/>
<path d="M80.5075 246.155C80.5075 246.155 80.4575 246.503 80.3643 247.142" stroke="#0063F5" stroke-width="1.59955" stroke-miterlimit="10"/>
<path d="M80.0779 249.068C79.032 256.052 76.2423 274.049 73.5392 285.89C71.1809 296.217 69.8585 302.534 69.2639 305.453" stroke="#0063F5" stroke-width="1.59955" stroke-miterlimit="10" stroke-dasharray="3.74 3.74"/>
<path d="M104.287 284.132C104.287 284.132 105.075 289.354 109.327 292.2" stroke="#0063F5" stroke-width="1.59955" stroke-miterlimit="10"/>
<path d="M96.4834 286.506C96.4834 286.506 95.4908 294.219 101.448 303.769" stroke="#0063F5" stroke-width="1.59955" stroke-miterlimit="10"/>
<path d="M106.293 196.479C106.293 197.589 105.393 198.488 104.282 198.488C103.172 198.488 102.272 197.589 102.272 196.479C102.272 195.369 103.172 194.47 104.282 194.47C105.393 194.47 106.293 195.369 106.293 196.479Z" fill="#0063F5"/>
<path d="M127.079 132.897L99.6737 135.74L80.5072 130.282C77.9158 129.096 74.9345 121.106 74.9345 121.106C71.915 117.704 63.4693 114.778 63.4693 114.778C63.4693 114.778 61.569 114.382 61.569 114.224C61.569 114.066 60.6197 115.727 60.6197 115.727L63.1529 117.596C67.8229 118.703 70.7508 123.322 70.7508 123.322C67.0035 121.301 56.1878 121.028 56.1878 121.028C56.1878 121.028 55.7914 122.451 55.7131 122.857C55.6332 123.262 56.5592 123.799 56.5592 123.799C56.5592 123.799 56.5042 125.379 56.2678 125.808C59.3556 124.971 65.2914 130.284 65.2914 130.284C63.8674 129.572 58.2497 129.255 58.2497 129.255V131.154L60.3832 131.945C64.2621 132.103 68.0611 134.951 68.0611 134.951H82.3076V137.542L78.3188 137.957L78.457 155.873L107.705 152.078L109.588 150.976L108.581 149.654L127.079 132.897Z" fill="#F2BF85"/>
<path d="M74.5111 122.115C74.5111 122.115 75.3422 123.598 74.0364 124.903L73.3319 125.141C73.3319 125.141 74.2896 126.742 73.3319 127.692C72.3743 128.641 72.1444 128.463 72.1444 128.463C72.1444 128.463 72.8656 130.538 71.0752 131.133" stroke="#0063F5" stroke-width="1.59955" stroke-miterlimit="10"/>
<path d="M58.2478 123.656C58.2445 123.478 65.2495 124.546 65.2495 124.546C65.2495 124.546 66.4953 126.92 67.9209 127.334" stroke="#0063F5" stroke-width="1.59955" stroke-miterlimit="10"/>
<path d="M80.5081 157.682V135.598H65.4954C65.4954 135.598 53.2674 139.08 52.6729 149.551" stroke="#0063F5" stroke-width="1.59955" stroke-miterlimit="10"/>
<path d="M82.3066 137.541L99.6727 135.74" stroke="#0063F5" stroke-width="1.59955" stroke-miterlimit="10"/>
<path d="M160.131 206.839L156.55 217.078L141.749 210.316C141.749 210.316 126.156 236.657 126.156 251.132C126.156 265.608 132.448 295.372 134.942 304.042L136.722 311.051H182.313C182.313 311.051 181.126 270.591 176.852 263.116L180.058 264.303C180.058 264.303 189.438 301.323 196.443 312H242.629C242.629 312 236.811 276.287 231.232 258.429C225.651 240.572 212.828 216.071 212.828 216.071H208.911L209.026 227.639L190.865 224.199L192.568 213.588C192.749 212.461 192.07 211.373 190.977 211.04C189.701 210.65 188.362 211.431 188.076 212.733L185.779 223.13L161.303 218.385L164.757 208.42C165.195 207.157 164.459 205.79 163.165 205.457L162.864 205.381C161.708 205.084 160.524 205.719 160.131 206.839Z" fill="#0063F5"/>
<path d="M163.048 63.3691C163.048 63.3691 141.232 69.7122 151.561 93.6798C154.779 101.148 155.202 110.371 149.977 110.845C149.949 111.115 150.907 112.428 151.361 112.997C153.508 115.685 157.79 116.382 161.233 116.382H202.482C204.893 116.382 207.247 115.625 209.195 114.205C210.183 113.486 211.082 112.716 211.402 112.112C211.402 112.112 206.621 110.833 208.091 107.939C214.727 94.8899 210.391 86.6393 206.81 82.172C206.81 82.172 209.422 80.8272 209.422 75.2514C209.422 75.2514 204.752 76.9924 203.176 71.6762C195.279 45.0422 164.719 50.0804 163.048 63.3691Z" fill="#273990"/>
<path d="M155.126 217.434C155.126 217.434 149.07 226.688 145.271 234.401C141.472 242.114 135.298 249.588 127.699 247.919" stroke="#DDC11D" stroke-width="2.23937" stroke-miterlimit="10"/>
<path d="M144.085 213.163C144.085 213.163 130.759 239.652 129.838 252.554C128.651 269.165 138.624 304.88 138.624 304.88" stroke="#DDC11D" stroke-width="2.23937" stroke-miterlimit="10"/>
<path d="M201.311 227.639C201.311 227.639 207.246 246.385 210.452 251.132C213.658 255.878 218.11 259.2 229.123 260.268" stroke="#DDC11D" stroke-width="2.23937" stroke-miterlimit="10"/>
<path d="M213.777 228.705C213.777 228.705 222.656 249.99 226.482 263.47C230.993 279.37 236.811 311.998 236.811 311.998" stroke="#DDC11D" stroke-width="2.23937" stroke-miterlimit="10"/>
<path d="M161.3 250.894C161.3 250.894 167.178 257.538 178.901 261.809" stroke="#DDC11D" stroke-width="2.23937" stroke-miterlimit="10"/>
<path d="M242.628 167.659C242.628 167.659 229.253 179.625 228.765 180.617C228.275 181.61 233.085 185.703 233.085 185.703C233.085 185.703 222.446 207.881 220.665 216.069H215.144L210.336 212.509L204.28 218.026L205.35 220.162L211.227 216.069L213.067 218.917C213.067 218.917 205.706 225.857 204.282 229.595L207.132 233.512C207.132 233.512 214.611 226.571 216.748 225.859C218.885 225.146 219.776 225.146 219.776 225.146L213.067 233.512L215.322 235.469L221.911 228.529C221.911 228.529 223.159 231.02 224.672 230.486C226.186 229.952 230.46 228.35 230.638 221.942C230.638 221.942 251.475 195.601 253.968 185.457L242.628 167.659Z" fill="#D79467"/>
<path d="M154.532 200.229L154.921 198.686C154.921 198.686 141.947 197.143 136.961 200.822L125.087 168.549L130.76 164.785L115.351 150.157C115.351 150.157 100.985 164.632 100.748 165.937C100.748 165.937 118.082 198.922 129.125 206.754C129.125 206.754 130.549 213.516 133.042 213.872C135.535 214.228 139.572 212.211 139.572 212.211L148.596 215.533L149.19 213.516C149.19 213.516 145.153 209.125 141.236 208.651C141.236 208.651 149.547 206.872 153.82 209.244L156.552 205.031L145.51 201.887L154.532 200.229Z" fill="#D79467"/>
<path d="M189.062 117.446L188.619 109.935C189.129 108.156 194.34 103.863 196.381 101.273C197.413 99.9617 198.158 97.0007 198.664 94.1379C199.345 94.1729 201.312 94.0747 201.758 91.8593L199.47 88.146C199.522 87.6084 199.547 87.2938 199.547 87.2938L198.259 84.4976C194.519 85.403 189.241 80.1518 189.241 80.1518C185.029 81.2204 182.529 78.4907 182.529 78.4907C173.094 82.6035 166.84 73.1113 166.84 73.1113C166.84 73.1113 162.131 80.032 162.963 84.917C163.154 86.0389 163.359 87.5219 163.58 89.1047L161.457 93.1243C161.7 94.8187 163.562 95.1748 164.525 95.2464C164.773 96.5746 165.034 97.6864 165.311 98.3589C166.26 100.666 171.93 107.442 171.93 107.442C172.374 111.95 173.315 116.934 169.941 118.595C166.878 120.103 157.593 120.73 157.593 120.73V132.729C157.593 138.53 161.813 143.468 167.546 144.375L194.818 148.692C199.273 149.398 203.304 145.958 203.304 141.451V126.188C199.367 125.446 194.852 123.395 192.022 121.964C190.302 121.096 189.176 119.372 189.062 117.446Z" fill="#D79467"/>
<path d="M165.553 99.5754C165.049 100.924 163.741 101.831 162.301 101.831C160.385 101.831 158.828 100.274 158.828 98.3604L157.907 99.8467C158.528 101.676 160.264 102.996 162.301 102.996C163.918 102.996 165.409 102.142 166.243 100.8L165.553 99.5754Z" fill="#F9F7F7"/>
<path d="M205.968 99.3202C205.23 100.906 203.621 102.01 201.758 102.01C200.029 102.01 198.486 101.063 197.689 99.6048L198.388 98.22C198.775 99.7663 200.16 100.845 201.758 100.845C203.671 100.845 205.23 99.2886 205.23 97.3745" fill="#F9F7F7"/>
<path d="M179.219 86.5841C179.219 90.7452 175.843 94.1189 171.68 94.1189C167.516 94.1189 164.14 90.7452 164.14 86.5841C164.14 82.4231 167.516 79.0493 171.68 79.0493C175.843 79.0493 179.219 82.4231 179.219 86.5841Z" stroke="#0063F5" stroke-width="1.59955" stroke-miterlimit="10"/>
<path d="M197.759 86.5841C197.759 90.7452 194.383 94.1189 190.22 94.1189C186.056 94.1189 182.68 90.7452 182.68 86.5841C182.68 82.4231 186.056 79.0493 190.22 79.0493C194.383 79.0493 197.759 82.4231 197.759 86.5841Z" stroke="#0063F5" stroke-width="1.59955" stroke-miterlimit="10"/>
<path d="M179.219 85.2996C179.219 85.2996 181.538 84.3509 182.793 85.2996" stroke="#0063F5" stroke-width="1.59955" stroke-miterlimit="10"/>
<path d="M175.913 86.8572C175.913 86.8572 170.273 81.7558 167.958 86.5609L166.356 85.6788" stroke="#0063F5" stroke-width="1.59955" stroke-miterlimit="10"/>
<path d="M167.542 84.501L168.502 85.6794" stroke="#0063F5" stroke-width="1.59955" stroke-miterlimit="10"/>
<path d="M173.591 85.9021C173.591 86.6727 172.967 87.2969 172.195 87.2969C171.424 87.2969 170.8 86.6727 170.8 85.9021C170.8 85.1315 171.424 84.5073 172.195 84.5073C172.967 84.5073 173.591 85.1331 173.591 85.9021Z" fill="#0063F5"/>
<path d="M185.287 86.6394C185.287 86.6394 190.926 81.538 193.241 86.3432L194.843 85.461" stroke="#0063F5" stroke-width="1.59955" stroke-miterlimit="10"/>
<path d="M193.658 84.2808L192.699 85.4592" stroke="#0063F5" stroke-width="1.59955" stroke-miterlimit="10"/>
<path d="M187.775 85.6824C187.775 86.453 188.4 87.0772 189.171 87.0772C189.942 87.0772 190.567 86.453 190.567 85.6824C190.567 84.9118 189.942 84.2876 189.171 84.2876C188.4 84.2893 187.775 84.9134 187.775 85.6824Z" fill="#0063F5"/>
<path d="M177.803 98.1301C177.803 98.1301 178.594 97.774 179.387 98.1301C179.785 98.3099 180.286 98.5479 180.687 98.741C180.897 98.8425 181.132 98.6461 181.064 98.4247C180.792 97.5476 180.696 96.0812 181.174 94.748C181.813 92.9688 180.772 91.2478 180.712 91.0098" stroke="#0063F5" stroke-width="1.59955" stroke-miterlimit="10"/>
<path d="M184.618 97.9526L182.627 98.2489L181.173 98.7699" stroke="#0063F5" stroke-width="1.59955" stroke-miterlimit="10"/>
<path d="M174.382 100.858C174.382 100.858 175.273 102.401 176.757 102.637C178.241 102.875 180.468 102.993 181.046 103.29C181.046 103.29 183.319 102.637 184.284 102.577C185.246 102.517 187.656 101.818 187.953 100.928" stroke="#0063F5" stroke-width="1.59955" stroke-miterlimit="10"/>
<path d="M176.045 102.413C176.045 102.413 178.656 100.206 179.964 100.859L181.27 101.511C181.27 101.511 181.851 100.875 182.627 100.737C184.284 100.443 186.256 101.94 186.256 101.94L181.419 102.992L176.045 102.413Z" fill="#0063F5"/>
<path d="M178.816 105.784C178.816 105.784 181.705 106.93 183.486 105.784" stroke="#0063F5" stroke-width="1.59955" stroke-miterlimit="10"/>
<path d="M174.112 123.604C174.905 123.755 175.658 124.067 176.327 124.518L176.752 124.804C178.392 125.913 180.486 126.106 182.303 125.32L183.186 124.937C183.782 124.679 184.44 124.598 185.081 124.704" stroke="#0063F5" stroke-width="1.59955" stroke-miterlimit="10"/>
<path d="M216.863 216.069C216.863 216.069 216.15 217.948 217.418 219.293C217.904 219.809 218.587 219.965 219.178 219.985C219.821 220.007 220.401 220.376 220.662 220.964C221.078 221.906 221.671 222.362 222.761 222.379C222.782 222.379 223.632 222.379 223.901 223.284C224.105 223.965 224.155 225.033 224.937 225.621" stroke="#0063F5" stroke-width="1.59955" stroke-miterlimit="10"/>
<path d="M215.676 221.983L211.086 225.622C211.086 225.622 207.604 228.786 206.258 231.001" stroke="#0063F5" stroke-width="1.59955" stroke-miterlimit="10"/>
<path d="M141.748 199.754C141.748 199.754 141.035 200.545 140.324 203.393C139.611 206.241 138.9 207.902 137.713 208.93" stroke="#0063F5" stroke-width="1.59955" stroke-miterlimit="10"/>
<path d="M144.757 204.343H147.765C147.765 204.343 150.298 205.134 152.039 205.846C153.781 206.559 155.125 207.233 155.125 207.233" stroke="#0063F5" stroke-width="1.59955" stroke-miterlimit="10"/>
<path d="M158.865 202.899C158.865 202.899 164.921 203.921 167.949 206.881C170.977 209.84 176.141 211.621 182.017 209.484" stroke="#00A3E7" stroke-width="1.59955" stroke-miterlimit="10"/>
<g opacity="0.4">
<g opacity="0.4">
<path opacity="0.4" d="M170.031 208.872L169.191 213.696C168.963 215.006 169.844 216.252 171.155 216.477L180.143 218.013C181.371 218.223 182.557 217.461 182.875 216.257L184.136 211.479C184.495 210.112 183.604 208.731 182.209 208.496L172.799 206.917C171.493 206.695 170.257 207.569 170.031 208.872Z" fill="#0063F5"/>
</g>
</g>
<path d="M156.55 121.03C156.55 121.03 144.973 121.386 133.398 131.887C121.822 142.388 111.491 152.176 111.491 152.176L127.164 168.551C127.164 168.551 142.123 158.406 148.892 149.684C148.892 149.684 146.755 158.406 148.179 163.389C149.604 168.372 151.919 168.194 154.056 174.424C156.193 180.654 158.865 185.994 156.55 189.73C154.234 193.469 148.179 197.918 148.179 197.918" stroke="#00BDE3" stroke-width="2.23937" stroke-miterlimit="10"/>
<path d="M206.259 208.14C203.286 202.718 199.257 194.648 199.829 191.686C200.72 187.059 201.787 179.05 207.13 171.753C212.473 164.456 211.582 158.582 211.582 158.582C211.582 158.582 224.226 178.871 230.104 183.499L246.311 170.684C246.311 170.684 225.296 139.894 217.994 134.02C210.693 128.147 203.746 127.371 203.746 127.371" stroke="#00BDE3" stroke-width="2.23937" stroke-miterlimit="10"/>
<path d="M148.58 132.42C149.941 138.828 150.279 142.209 149.2 148.788" stroke="#00BDE3" stroke-width="2.23937" stroke-miterlimit="10"/>
<path d="M176.795 161.43C176.795 161.43 178.85 169.796 185.777 173.888" stroke="#00BDE3" stroke-width="2.23937" stroke-miterlimit="10"/>
<path d="M246.308 181.719C246.308 181.719 238.202 179.188 233.083 185.704" stroke="#0063F5" stroke-width="1.59955" stroke-miterlimit="10"/>
<path d="M113.986 161.43C113.986 161.43 122 163.566 124.672 167.66" stroke="#0063F5" stroke-width="1.59955" stroke-miterlimit="10"/>
<path d="M168.082 81.3451C169.003 79.6141 173.121 80.1683 174.654 80.4413C174.985 80.4995 175.25 80.8424 175.275 81.2402C175.305 81.7013 175.003 82.0608 174.62 82.0208L168.082 81.3451Z" fill="#0063F5"/>
<path d="M192.04 81.8192C191.119 80.0882 187 80.6424 185.468 80.9154C185.137 80.9737 184.872 81.3165 184.847 81.7143C184.817 82.1754 185.118 82.5349 185.501 82.4949L192.04 81.8192Z" fill="#0063F5"/>
<path d="M172.266 107.278C172.266 107.278 175.231 111.557 177.051 112.191C178.872 112.824 183.155 112.824 185.287 112.191C187.419 111.559 188.442 109.027 188.442 109.027" stroke="#0063F5" stroke-width="1.59955" stroke-miterlimit="10"/>
<path d="M184.844 71.2949C184.844 71.2949 184.904 75.7955 188.933 79.1609" stroke="#0063F5" stroke-width="1.59955" stroke-miterlimit="10"/>
<path d="M174.042 72.0078C174.042 72.0078 178.127 77.1825 182.528 78.4941" stroke="#0063F5" stroke-width="1.59955" stroke-miterlimit="10"/>
<path d="M165.099 74.2212C165.099 74.2212 165.257 78.8633 161.617 84.4524C157.976 90.0415 148.636 91.7225 150.14 102.075" stroke="#0063F5" stroke-width="1.59955" stroke-miterlimit="10"/>
<path d="M161.323 84.8771L162.301 84.4526C162.301 84.4526 161.357 89.0231 159.876 93.6802C158.53 97.9111 155.587 101.037 158.245 107.523C160.904 114.009 164.141 113.455 164.141 113.455" stroke="#0063F5" stroke-width="1.59955" stroke-miterlimit="10"/>
<path d="M198.43 84.8701C198.43 84.8701 200.084 87.2735 204.041 93.5218C207.999 99.77 207.84 107.734 204.28 110.95" stroke="#0063F5" stroke-width="1.59955" stroke-miterlimit="10"/>
<path d="M206.811 82.1719C206.811 82.1719 203.306 85.9035 198.104 84.8716" stroke="#0063F5" stroke-width="1.59955" stroke-miterlimit="10"/>
<path d="M207.009 209.485L209.617 213.163" stroke="#00A3E7" stroke-width="1.59955" stroke-miterlimit="10"/>
<path d="M208.313 151.701L212.34 159.787" stroke="#00BDE3" stroke-width="2.23937" stroke-miterlimit="10"/>
<path d="M211.521 153.837L211.636 159.473" stroke="#00BDE3" stroke-width="2.23937" stroke-miterlimit="10"/>
<path d="M170.8 138.649C170.8 138.649 175.483 143.276 175.277 144.819" stroke="#00BDE3" stroke-width="2.23937" stroke-miterlimit="10"/>
<path d="M194.543 255.285L185.775 260.268" stroke="#DDC11D" stroke-width="2.23937" stroke-miterlimit="10"/>
<path d="M163.581 89.1079L164.193 95.2479" stroke="#0063F5" stroke-width="1.59955" stroke-miterlimit="10"/>
<path d="M199.47 88.1489L198.664 94.1392" stroke="#0063F5" stroke-width="1.59955" stroke-miterlimit="10"/>
<g opacity="0.42">
<g opacity="0.42">
<path opacity="0.42" d="M182.189 172.069L165.204 166.548C161.408 165.314 161.47 159.925 165.296 158.78L182.937 153.499C185.648 152.686 188.341 154.82 188.169 157.645L187.512 168.447C187.35 171.103 184.722 172.892 182.189 172.069Z" fill="#00BDE3"/>
</g>
</g>
<g opacity="0.58">
<g opacity="0.58">
<path opacity="0.58" d="M182.874 178.316L173.787 180.924C173.292 181.065 172.763 181.029 172.293 180.815L168.051 178.903C167.013 178.435 165.793 178.846 165.248 179.845L165.188 179.957C164.793 180.682 164.845 181.571 165.321 182.247L174.416 195.136C175.346 196.454 177.339 196.336 178.106 194.916L185.387 181.433C185.747 180.766 185.733 179.958 185.35 179.304C184.847 178.45 183.828 178.043 182.874 178.316Z" fill="#0063F5"/>
</g>
</g>
<g opacity="0.36">
<g opacity="0.36">
<path opacity="0.36" d="M193.926 176.114C193.926 180.883 190.059 184.748 185.287 184.748C180.515 184.748 176.648 180.883 176.648 176.114C176.648 171.346 180.515 167.481 185.287 167.481C190.057 167.481 193.926 171.346 193.926 176.114Z" fill="#D97BEF"/>
</g>
</g>
<path d="M278.364 48.2091C278.364 48.2091 281.688 36.5482 280.739 33.3842C279.79 30.2201 272.903 26.2655 270.924 28.7971C270.924 28.7971 267.752 17.7237 253.032 17.1694C238.313 16.6152 240.846 25.3168 240.846 25.3168C240.846 25.3168 237.918 25.3168 237.996 28.8769C237.996 28.8769 234.592 31.7248 238.471 36.7879C238.471 36.7879 236.592 39.8821 240.579 47.4718L242.864 48.9448L259.119 39.5575L262.297 39.3195L278.364 48.2091Z" fill="#273990"/>
<path d="M241.876 48.2533C241.876 48.2533 238.552 45.4854 237.457 48.8025C236.521 51.6404 238.117 55.372 241.323 56.7967L244.529 69.2948L248.091 73.2495V95.3746C248.091 95.3746 253.316 90.7209 254.265 87.1074C254.265 87.1074 269.581 80.1718 274.211 74.8324V71.1141L275.161 70.0072L278.485 56.7967C278.485 56.7967 284.309 53.2732 281.295 47.7007C279.711 44.7747 276.823 48.255 276.823 48.255L275.635 45.6784L275.609 37.5777L271.36 32.3564H247.259L243.103 37.5777L242.985 45.6784L241.876 48.2533Z" fill="#F2BF85"/>
<path d="M263.729 44.5748C264.026 45.0492 269.012 43.2699 271.387 44.5748C271.387 44.5748 269.785 42.0832 267.945 42.2013C266.104 42.3195 263.729 43.5062 263.729 44.0405V44.5748Z" fill="#0063F5"/>
<path d="M264.551 48.2534C264.551 48.2534 266.926 46.038 270.567 48.9658" stroke="#0063F5" stroke-width="1.59955" stroke-miterlimit="10"/>
<path d="M268.15 48.4564C268.15 49.0024 267.707 49.4451 267.161 49.4451C266.615 49.4451 266.172 49.0024 266.172 48.4564C266.172 47.9105 266.615 47.4678 267.161 47.4678C267.707 47.4678 268.15 47.9105 268.15 48.4564Z" fill="#0063F5"/>
<path d="M255.473 44.5748C255.176 45.0492 250.19 43.2699 247.815 44.5748C247.815 44.5748 249.417 42.0832 251.257 42.2013C253.098 42.3195 255.473 43.5062 255.473 44.0405V44.5748Z" fill="#0063F5"/>
<path d="M254.653 48.2534C254.653 48.2534 252.278 46.038 248.637 48.9658" stroke="#0063F5" stroke-width="1.59955" stroke-miterlimit="10"/>
<path d="M251.053 48.4564C251.053 49.0024 251.496 49.4451 252.043 49.4451C252.589 49.4451 253.032 49.0024 253.032 48.4564C253.032 47.9105 252.589 47.4678 252.043 47.4678C251.496 47.4678 251.053 47.9105 251.053 48.4564Z" fill="#0063F5"/>
<path d="M245.289 48.6323L245.546 51.2138C245.784 52.8416 247.181 54.0483 248.827 54.0483H253.548C254.916 54.0483 256.14 53.2078 256.641 51.9362C256.873 51.3453 257.072 49.8324 257.161 49.1034" stroke="#0063F5" stroke-width="1.59955" stroke-miterlimit="10"/>
<path d="M273.219 48.6323L272.963 51.2138C272.725 52.8416 271.328 54.0483 269.68 54.0483H264.959C263.591 54.0483 262.367 53.2078 261.868 51.9362C261.636 51.3453 261.436 49.8324 261.348 49.1034" stroke="#0063F5" stroke-width="1.59955" stroke-miterlimit="10"/>
<path d="M242.865 48.5548H245.597L245.87 47.225C249.038 45.0296 253.789 45.98 255.401 46.4544C256.606 46.8089 257 48.0905 257.123 48.7163C257.158 48.8927 257.335 48.9893 257.488 48.9177C258.626 48.3817 259.916 48.3817 261.054 48.9177C261.207 48.9893 261.384 48.8927 261.419 48.7163C261.542 48.0905 261.935 46.8089 263.141 46.4544C264.753 45.98 269.505 45.0313 272.672 47.225L272.946 48.5548H275.677" stroke="#0063F5" stroke-width="1.59955" stroke-miterlimit="10"/>
<path d="M258.577 51.1411C257.627 54.2652 259.506 57.6789 259.046 59.3683" stroke="#0063F5" stroke-width="1.59955" stroke-miterlimit="10"/>
<path d="M255.316 58.7177C255.316 58.7177 254.737 58.8142 254.38 59.9411C254.024 61.0679 259.249 62.2546 259.961 62.1947C260.674 62.1347 265.008 60.3555 265.008 60.3555C265.008 60.3555 265.383 58.7726 263.999 58.022" stroke="#0063F5" stroke-width="1.59955" stroke-miterlimit="10"/>
<path d="M272.584 62.532C269.848 63.2743 266.955 62.5353 260.21 63.0113C253.451 62.5353 250.027 63.2743 247.29 62.532C244.521 61.7813 241.679 58.2012 241.679 58.2012C241.679 58.2012 243.58 66.4467 244.692 69.6291C246.531 71.4666 249.182 74.7105 253.683 76.2734C255.578 76.9325 257.82 77.0174 260.434 77.0174C264.846 77.0174 266.314 76.9658 269.695 74.4359C272.303 72.4852 272.979 72.0624 275.156 70.0069C276.85 66.8911 278.135 58.1646 278.135 58.1646C278.135 58.1646 275.356 61.7797 272.584 62.532Z" fill="#273990"/>
<path d="M267.558 62.5322C267.558 62.5322 266.445 64.3015 260.589 64.8957C258.286 65.1287 255.033 64.8075 253.906 64.8657C253.906 64.8657 256.144 66.8231 257.162 67.2975C258.179 67.7718 263.737 67.0012 264.55 66.8231C265.363 66.645 266.17 64.5695 266.17 64.5695C266.17 64.5695 267.161 63.7173 267.558 62.5322Z" fill="white"/>
<path d="M267.558 62.5322C267.558 62.5322 266.445 64.3015 260.589 64.8957C258.286 65.1287 255.033 64.8075 253.906 64.8657C253.906 64.8657 256.144 66.8231 257.162 67.2975C258.179 67.7718 263.737 67.0012 264.55 66.8231C265.363 66.645 266.17 64.5695 266.17 64.5695C266.17 64.5695 267.161 63.7173 267.558 62.5322Z" stroke="#0063F5" stroke-width="1.59955" stroke-miterlimit="10" stroke-linecap="round" stroke-linejoin="round"/>
<path d="M249.552 73.6459C249.552 73.6459 252.56 76.3356 255.093 76.6518C257.627 76.9681 266.17 76.6518 266.17 76.6518L272.19 72.5391" stroke="#0063F5" stroke-width="1.59955" stroke-miterlimit="10"/>
<path d="M245.913 18.8291C245.913 18.8291 250.122 18.884 251.228 20.7282C252.483 22.8237 251.922 22.3893 252.044 26.8183C252.044 26.8183 251.497 30.5366 254.365 32.3558" stroke="#0063F5" stroke-width="1.59955" stroke-miterlimit="10"/>
<path d="M240.846 25.3155C240.846 25.3155 244.409 24.1288 245.913 26.9766C247.417 29.8244 246.862 31.6436 249.792 32.356" stroke="#0063F5" stroke-width="1.59955" stroke-miterlimit="10"/>
<path d="M242.864 37.0226C242.864 37.0226 238.709 35.3616 239.35 32.3556C239.896 29.7958 242.507 29.6659 242.507 29.6659C242.507 29.6659 238.629 25.0705 243.322 22.4374C247.985 19.8209 250.295 25.0788 250.137 27.0561" stroke="#0063F5" stroke-width="1.59955" stroke-miterlimit="10"/>
<path d="M238.47 36.7837C238.47 36.7837 239.657 38.6828 242.507 38.4448" stroke="#0063F5" stroke-width="1.59955" stroke-miterlimit="10"/>
<path d="M276.872 45.6367C276.872 45.6367 276.717 49.2135 277.798 53.0101C277.798 53.0101 276.485 55.9977 274.477 57.1145" stroke="#0063F5" stroke-width="1.59955" stroke-miterlimit="10"/>
<path d="M242.508 45.9697C242.508 45.9697 243.744 50.953 242.508 53.7209C242.508 53.7209 244.229 56.9649 245.684 57.5175" stroke="#0063F5" stroke-width="1.59955" stroke-miterlimit="10"/>
<path d="M273.22 24.2866C273.22 24.2866 274.324 30.2985 270.567 32.3557" stroke="#0063F5" stroke-width="1.59955" stroke-miterlimit="10"/>
<path d="M263.729 71.4302C264.118 72.537 265.225 74.6558 265.938 74.6641" stroke="#00BDE3" stroke-width="2.23937" stroke-miterlimit="10"/>
<path d="M258.303 71.4302C258.303 71.4302 257.873 74.5277 258.303 75.0753" stroke="#00BDE3" stroke-width="2.23937" stroke-miterlimit="10"/>
<path d="M253.907 70.1655C253.907 70.1655 253.274 71.5104 253.352 72.539" stroke="#00BDE3" stroke-width="2.23937" stroke-miterlimit="10"/>
<path d="M267.161 68.9785C267.161 68.9785 267.679 69.7691 268.47 70.1652" stroke="#00BDE3" stroke-width="2.23937" stroke-miterlimit="10"/>
<path d="M249.669 66.2422C249.669 66.2422 248.295 67.4888 247.959 68.7421" stroke="#00BDE3" stroke-width="2.23937" stroke-miterlimit="10"/>
<path d="M271.387 64.9907C271.387 64.9907 271.86 65.8928 273.371 66.289" stroke="#00BDE3" stroke-width="2.23937" stroke-miterlimit="10"/>
<path d="M247.816 77.1611L242.141 80.738C240.617 81.6983 239.693 83.3727 239.693 85.1736V93.9351L242.863 92.8899" stroke="#00BDE3" stroke-width="2.23937" stroke-miterlimit="10"/>
<path d="M241.679 83.9019L246.306 97.6916" stroke="#00BDE3" stroke-width="2.23937" stroke-miterlimit="10"/>
<path d="M274.21 74.8326L276.505 72.5391L278.958 80.1721C278.958 80.1721 270.764 94.5293 260.733 98.8601L255.475 87.7668" stroke="#00BDE3" stroke-width="2.23937" stroke-miterlimit="10"/>
<path d="M247.816 96.3599C247.816 96.3599 244.173 98.3239 243.993 100.994C243.993 100.994 244.53 135.936 243.993 140.801C243.457 145.667 242.033 162.039 242.033 162.039" stroke="#00BDE3" stroke-width="2.23937" stroke-miterlimit="10"/>
<path d="M250.7 192.415C250.7 192.415 259.485 193.72 265.777 192.415" stroke="#00BDE3" stroke-width="2.23937" stroke-miterlimit="10"/>
<path d="M259.843 188.38C259.843 188.38 264.066 191.679 266.609 192.994C270.765 195.142 277.057 193.481 277.532 193.6" stroke="#00BDE3" stroke-width="2.23937" stroke-miterlimit="10"/>
<path d="M251.645 128.284C251.645 128.284 256.431 136.115 258.112 136.649" stroke="#00BDE3" stroke-width="2.23937" stroke-miterlimit="10"/>
<path d="M249.789 102.734C249.789 103.695 249.009 104.475 248.047 104.475C247.086 104.475 246.304 103.696 246.304 102.734C246.304 101.774 247.084 100.993 248.047 100.993C249.009 100.993 249.789 101.774 249.789 102.734Z" fill="#273990"/>
<path d="M249.558 131.803C249.558 132.764 248.779 133.544 247.816 133.544C246.854 133.544 246.076 132.766 246.076 131.803C246.076 130.843 246.855 130.062 247.816 130.062C248.777 130.062 249.558 130.843 249.558 131.803Z" fill="#273990"/>
<path d="M248.565 159.213C248.565 160.173 247.785 160.954 246.823 160.954C245.86 160.954 245.082 160.175 245.082 159.213C245.082 158.251 245.862 157.474 246.823 157.474C247.784 157.474 248.565 158.251 248.565 159.213Z" fill="#273990"/>
<path d="M239.005 94.8834L232.229 145.523C232.229 145.523 221.936 130.064 216.386 129.2V110.451C216.386 101.441 222.141 93.4386 230.685 90.5642L239.005 87.7646V94.8834Z" fill="#0063F5"/>
<path d="M264.473 98.0262L256.31 156.008C255.168 164.01 257.769 172.094 263.365 177.932L277.532 192.705L278.125 194.103L271.082 207.036L292.491 224.805V246.519H300.624C305.902 246.519 310.182 242.243 310.182 236.967C310.182 231.637 313.646 226.925 318.736 225.332L337.49 219.465L321.343 182.327C321.343 182.327 325.26 164.766 323.123 137.714C320.986 110.662 314.099 94.8804 314.099 94.8804L280.002 80.167L279.682 80.7895C275.427 87.3589 271.26 92.4005 265.544 97.1357L264.473 98.0262Z" fill="#0063F5"/>
<path d="M290.23 84.584L292.604 95.2546C292.955 96.8324 292.759 98.4819 292.048 99.9332L264.051 157.089C262.805 159.631 262.159 162.422 262.159 165.253V175.092" stroke="#00BDE3" stroke-width="2.23937" stroke-miterlimit="10"/>
<path d="M313.448 95.9106C313.448 95.9106 292.077 103.189 290.296 130.421V158.561C290.296 160.089 290.926 161.547 292.037 162.596C293.994 164.443 294.518 167.346 293.334 169.761C290.353 175.836 284.432 187.136 278.958 192.994" stroke="#00BDE3" stroke-width="2.23937" stroke-miterlimit="10"/>
<path d="M295.104 163.346C295.104 163.346 303.653 163.702 303.118 170.643" stroke="#00BDE3" stroke-width="2.23937" stroke-miterlimit="10"/>
<path d="M282.639 153.024C282.639 153.024 284.792 166.141 291.084 174.209" stroke="#00BDE3" stroke-width="2.23937" stroke-miterlimit="10"/>
<path d="M285.726 169.873C285.726 169.873 288.128 174.168 290.013 176.232" stroke="#00BDE3" stroke-width="2.23937" stroke-miterlimit="10"/>
<path d="M320.631 183.706C320.631 183.706 310.063 204.915 293.442 224.492" stroke="#00BDE3" stroke-width="2.23937" stroke-miterlimit="10"/>
<path d="M306.027 211.163L308.4 233.47" stroke="#00BDE3" stroke-width="2.23937" stroke-miterlimit="10"/>
<path d="M303.144 222.909C303.144 222.909 303.94 229.672 303.144 231.096" stroke="#00BDE3" stroke-width="2.23937" stroke-miterlimit="10"/>
<path d="M276.582 206.772L271.478 213.192C271.478 213.192 277.413 225.4 283.707 227.892L289.525 219.468L276.582 206.772Z" fill="#F2BF85"/>
<path d="M294.704 218.533C294.704 219.787 293.688 220.802 292.434 220.802C291.18 220.802 290.164 219.787 290.164 218.533C290.164 217.28 291.18 216.265 292.434 216.265C293.688 216.265 294.704 217.28 294.704 218.533Z" fill="#273990"/>
<path d="M224.462 100.993C224.462 100.993 219.237 125.081 219.415 130.638" stroke="#00BDE3" stroke-width="2.23937" stroke-miterlimit="10"/>
<path d="M215.382 165.589L215.216 199.563H224.581C224.581 199.563 228.901 187.982 230.825 184.732C230.825 184.732 217.219 171.724 215.382 165.589Z" fill="#0063F5"/>
<path d="M242.033 204.662C242.033 204.662 241.083 224.725 244.288 229.001" stroke="#00BDE3" stroke-width="2.23937" stroke-miterlimit="10"/>
<g opacity="0.42">
<g opacity="0.42">
<path opacity="0.42" d="M292.433 302.605V225.637L271.083 207.035L277.532 193.602C277.532 193.602 266.571 195.468 264.649 192.996H249.557L230.753 219.983C230.753 219.983 231.524 224.452 228.497 226.469V245.623C228.497 245.623 241.854 289.101 242.032 302.042L292.433 302.605Z" fill="#00BDE3"/>
</g>
</g>
<path d="M271.003 211.756C271.003 211.756 275.276 226.824 285.962 229.553" stroke="#00BDE3" stroke-width="2.23937" stroke-miterlimit="10"/>
<path d="M274.328 224.49C274.328 224.49 280.858 234.062 288.218 232.163" stroke="#00BDE3" stroke-width="2.23937" stroke-miterlimit="10"/>
<path d="M261.386 227.001C261.386 227.001 262.099 244.265 262.574 246.52C263.048 248.774 262.574 251.029 265.185 251.978C267.797 252.926 285.962 252.477 285.962 252.477" stroke="#00BDE3" stroke-width="2.23937" stroke-miterlimit="10"/>
<path d="M241.142 230.794L246.08 231.479C249.939 232.013 252.81 235.31 252.81 239.203V302.138" stroke="#00BDE3" stroke-width="2.23937" stroke-miterlimit="10"/>
<g opacity="0.4">
<g opacity="0.4">
<path opacity="0.4" d="M255.867 202.343H252.914C251.293 202.343 249.981 201.03 249.981 199.412C249.981 197.794 251.295 196.481 252.914 196.481H255.867C257.487 196.481 258.799 197.794 258.799 199.412C258.799 201.03 257.487 202.343 255.867 202.343Z" fill="#0063F5"/>
</g>
</g>
<g opacity="0.4">
<g opacity="0.4">
<path opacity="0.4" d="M268.545 202.496H265.593C263.972 202.496 262.66 201.183 262.66 199.565C262.66 197.947 263.974 196.634 265.593 196.634H268.545C270.166 196.634 271.478 197.947 271.478 199.565C271.478 201.183 270.166 202.496 268.545 202.496Z" fill="#0063F5"/>
</g>
</g>
</g>
<defs>
<clipPath id="clip0_5785_210295">
<rect width="355" height="310" fill="white"/>
</clipPath>
</defs>
</svg>
