<svg width="32" height="32" viewBox="0 0 32 32" fill="none" xmlns="http://www.w3.org/2000/svg">
<path d="M16 32C24.8366 32 32 24.8366 32 16C32 7.16344 24.8366 0 16 0C7.16344 0 0 7.16344 0 16C0 24.8366 7.16344 32 16 32Z" fill="#6CDE07"/>
<path fill-rule="evenodd" clip-rule="evenodd" d="M22 19.154C22 21.724 19.914 23.43 16.834 23.687V26H14.724V23.664C12.6407 23.4291 10.6613 22.6289 9 21.35L10.552 19.224C11.935 20.299 13.244 21 14.821 21.234V16.654C11.28 15.766 9.631 14.481 9.631 11.841C9.631 9.318 11.692 7.589 14.724 7.355V6H16.834V7.402C18.4831 7.58518 20.0554 8.19754 21.394 9.178L20.035 11.374C18.968 10.603 17.877 10.112 16.737 9.879V14.318C20.424 15.206 22 16.631 22 19.154ZM14.82 13.827V9.715C13.293 9.832 12.493 10.65 12.493 11.678C12.493 12.658 12.953 13.29 14.821 13.828L14.82 13.827ZM19.138 19.317C19.138 18.267 18.628 17.636 16.737 17.098V21.328C18.265 21.21 19.138 20.439 19.138 19.318V19.317Z" fill="white"/>
</svg>
