<svg width="20" height="20" viewBox="0 0 20 20" fill="none" xmlns="http://www.w3.org/2000/svg">
<g clip-path="url(#clip0_4641_203356)">
<rect width="20" height="20" fill="#273990"/>
<rect width="20" height="20" fill="black" fill-opacity="0.25"/>
<g filter="url(#filter0_d_4641_203356)">
<path fill-rule="evenodd" clip-rule="evenodd" d="M11.8456 2.04059C10.6754 2.79313 10.1404 4.35337 10.1404 4.35337C10.132 3.25527 10.6921 2.41218 11.0353 2C10.5398 2.01353 9.97872 2.0968 9.35189 2.27999C9.07967 2.72964 8.75739 3.43638 8.67499 4.35857C8.67499 4.35857 8.26197 3.68722 8.49664 2.58704C7.98976 2.81707 7.56735 3.12724 7.22213 3.49154C7.17832 3.95576 7.19292 4.52927 7.35667 5.16627C7.35667 5.16627 6.95617 4.84361 6.72463 4.1327C6.47327 4.53239 6.29179 4.97163 6.17289 5.43065C6.26467 5.72 6.39087 6.02601 6.56609 6.33931C6.56609 6.33931 6.33872 6.23731 6.06442 5.96356C5.82969 7.50904 6.26224 9.18789 7.20002 10.308C7.20737 10.3357 7.21453 10.3591 7.22149 10.3778C7.38107 10.8066 8.10489 11.5414 8.10489 11.5414L8.09238 12.3127C10.3994 12.3866 11.577 13.5492 11.577 13.5492L11.7365 13.2557C12.2768 13.5867 12.7545 13.7335 12.7545 13.7335C14.8154 12.6801 15 9.94996 15 9.94996L11.0743 9.88751L14.3502 9.47117C14.1268 5.9223 11.1434 4.9726 10.8837 4.89655C10.9916 4.58197 11.5962 3.17717 13.8638 2.88368C13.8649 2.88368 13.1942 2.21546 11.8456 2.04059ZM11.4789 11.5655L11.7365 11.7372L12.6074 10.5621C12.6074 10.5621 12.6054 10.564 12.6017 10.5677L12.5899 10.5794C12.4613 10.7079 11.6591 11.5091 11.4789 11.5655ZM12.3164 12.0939L12.0588 11.9221C12.2549 11.8607 13.4606 10.5139 13.4606 10.5139L12.3164 12.0939ZM12.5457 12.3006L12.8034 12.4723L14.104 10.5894C14.104 10.5894 12.7429 12.2392 12.5457 12.3006ZM6.41089 14.3941C8.27678 13.6843 10.3377 15.1779 10.3377 15.1779C8.3623 14.186 8.23923 14.9562 8.23923 14.9562C8.23923 14.9562 8.42279 16.965 6.45991 17.1607C4.49702 17.3575 4.54604 15.104 6.41089 14.3941ZM13.2777 16.584C13.2725 16.2426 13.1379 15.9157 12.9043 15.6659C12.7593 15.5108 12.5768 15.3079 12.3724 15.0612C12.357 15.0427 12.3715 14.9828 12.3861 14.9221C12.4012 14.8597 12.4164 14.7966 12.3995 14.777C11.5265 13.7695 9.97667 12.5434 7.66022 12.6672L6.99792 13.7695C6.99792 13.7695 9.32898 13.4999 10.6671 14.7C12.0053 15.9001 13.2933 17.5405 13.2933 17.5405L13.2777 16.584ZM9.54801 13.8215L8.01066 13.528C8.01066 13.528 8.58117 12.968 9.55635 13.069L9.54801 13.8215ZM9.71384 13.8028L9.75973 13.1596L10.5649 13.4905C10.8215 13.5957 11.0655 13.732 11.2814 13.9069C12.096 14.5668 11.9594 15.235 11.9594 15.235C11.5443 14.776 9.71384 13.8028 9.71384 13.8028ZM12.9992 16.6776L11.9229 15.4286C11.9229 15.4286 12.4663 15.5025 13.0086 16.127L12.9992 16.6776ZM13.8475 8.87164C13.8475 8.87164 12.8171 6.17688 10.6571 6.25078C10.6571 6.25078 8.59509 6.0551 8.12888 8.60206C8.12888 8.60206 8.55859 7.31557 9.80808 6.79514C10.2993 6.5901 10.8542 6.59946 11.3402 6.81804C11.9389 7.08762 12.7493 7.66009 13.0872 8.84666L13.8475 8.87164ZM9.4107 9.02465C9.09259 9.02465 8.83393 9.28278 8.83393 9.60024C8.83393 9.9177 9.09259 10.1758 9.4107 10.1758C9.72881 10.1758 9.98747 9.9177 9.98747 9.60024C9.98747 9.28278 9.72881 9.02465 9.4107 9.02465ZM9.41696 10.9159C10.0678 12.5448 12.6199 13.2911 12.6199 13.2911C9.8717 12.9861 9.41696 10.9159 9.41696 10.9159ZM10.6925 11.48C10.8281 12.0192 12.6439 12.9861 12.6439 12.9861C13.2092 12.8758 14.7184 10.1935 14.7174 10.1946H11.772L10.6925 11.48Z" fill="url(#paint0_linear_4641_203356)"/>
</g>
</g>
<defs>
<filter id="filter0_d_4641_203356" x="-1" y="-1" width="22" height="27.5405" filterUnits="userSpaceOnUse" color-interpolation-filters="sRGB">
<feFlood flood-opacity="0" result="BackgroundImageFix"/>
<feColorMatrix in="SourceAlpha" type="matrix" values="0 0 0 0 0 0 0 0 0 0 0 0 0 0 0 0 0 0 127 0" result="hardAlpha"/>
<feOffset dy="3"/>
<feGaussianBlur stdDeviation="3"/>
<feColorMatrix type="matrix" values="0 0 0 0 0 0 0 0 0 0 0 0 0 0 0 0 0 0 0.15 0"/>
<feBlend mode="normal" in2="BackgroundImageFix" result="effect1_dropShadow_4641_203356"/>
<feBlend mode="normal" in="SourceGraphic" in2="effect1_dropShadow_4641_203356" result="shape"/>
</filter>
<linearGradient id="paint0_linear_4641_203356" x1="13.3458" y1="5.41639" x2="7.46915" y2="11.3545" gradientUnits="userSpaceOnUse">
<stop stop-color="white"/>
<stop offset="1" stop-color="#FCFCFD" stop-opacity="0.75"/>
</linearGradient>
<clipPath id="clip0_4641_203356">
<rect width="20" height="20" fill="white"/>
</clipPath>
</defs>
</svg>
