<svg width="56" height="56" viewBox="0 0 56 56" fill="none" xmlns="http://www.w3.org/2000/svg">
<rect x="0.5" y="0.5" width="55" height="55" rx="27.5" fill="url(#paint0_linear_6359_210303)"/>
<path d="M32.4304 9.43247C29.6218 11.2401 28.3377 14.9878 28.3377 14.9878C28.3176 12.3501 29.6619 10.325 30.4854 9.33496C29.2964 9.36746 27.9497 9.56748 26.4452 10.0075C25.7919 11.0876 25.0184 12.7852 24.8207 15.0003C24.8207 15.0003 23.8294 13.3877 24.3926 10.745C23.176 11.2976 22.1622 12.0426 21.3337 12.9177C21.2286 14.0327 21.2636 15.4103 21.6566 16.9404C21.6566 16.9404 20.6954 16.1654 20.1397 14.4578C19.5364 15.4178 19.1008 16.4729 18.8155 17.5755C19.0357 18.2705 19.3386 19.0055 19.7592 19.7581C19.7592 19.7581 19.2135 19.5131 18.5551 18.8555C17.9769 22.6658 19.0858 26.8135 21.4613 29.5012L21.3737 22.1782L30.0749 16.4429C30.0749 16.4429 31.1363 12.2526 37.2741 11.4576C37.2766 11.4576 35.6671 9.85249 32.4304 9.43247Z" fill="#273990"/>
<path d="M32.4304 9.43247C29.6218 11.2401 28.3377 14.9878 28.3377 14.9878C28.3176 12.3501 29.6619 10.325 30.4854 9.33496C29.2964 9.36746 27.9497 9.56748 26.4452 10.0075C25.7919 11.0876 25.0184 12.7852 24.8207 15.0003C24.8207 15.0003 23.8294 13.3877 24.3926 10.745C23.176 11.2976 22.1622 12.0426 21.3337 12.9177C21.2286 14.0327 21.2636 15.4103 21.6566 16.9404C21.6566 16.9404 20.6954 16.1654 20.1397 14.4578C19.5364 15.4178 19.1008 16.4729 18.8155 17.5755C19.0357 18.2705 19.3386 19.0055 19.7592 19.7581C19.7592 19.7581 19.2135 19.5131 18.5551 18.8555C17.9769 22.6658 19.0858 26.8135 21.4613 29.5012L21.3737 22.1782L30.0749 16.4429C30.0749 16.4429 31.1363 12.2526 37.2741 11.4576C37.2766 11.4576 35.6671 9.85249 32.4304 9.43247Z" fill="black" fill-opacity="0.25"/>
<path d="M31.5492 32.3113L32.1675 32.7238L34.2577 29.9011C34.2577 29.8986 32.0198 32.1638 31.5492 32.3113Z" fill="#273990"/>
<path d="M31.5492 32.3113L32.1675 32.7238L34.2577 29.9011C34.2577 29.8986 32.0198 32.1638 31.5492 32.3113Z" fill="black" fill-opacity="0.25"/>
<path d="M32.941 33.1713L33.5593 33.5838L36.3054 29.7886C36.3054 29.7886 33.4116 33.0238 32.941 33.1713Z" fill="#273990"/>
<path d="M32.941 33.1713L33.5593 33.5838L36.3054 29.7886C36.3054 29.7886 33.4116 33.0238 32.941 33.1713Z" fill="black" fill-opacity="0.25"/>
<path d="M34.1101 34.0763L34.7284 34.4888L37.8499 29.9661C37.8499 29.9661 34.5832 33.9288 34.1101 34.0763Z" fill="#273990"/>
<path d="M34.1101 34.0763L34.7284 34.4888L37.8499 29.9661C37.8499 29.9661 34.5832 33.9288 34.1101 34.0763Z" fill="black" fill-opacity="0.25"/>
<path d="M28.8108 40.9895C28.8108 40.9895 23.8645 37.4018 19.3862 39.1069C14.9105 40.812 14.7928 46.2248 19.5039 45.7523C24.2149 45.2822 23.7744 40.457 23.7744 40.457C23.7744 40.457 24.0697 38.6068 28.8108 40.9895Z" fill="#273990"/>
<path d="M28.8108 40.9895C28.8108 40.9895 23.8645 37.4018 19.3862 39.1069C14.9105 40.812 14.7928 46.2248 19.5039 45.7523C24.2149 45.2822 23.7744 40.457 23.7744 40.457C23.7744 40.457 24.0697 38.6068 28.8108 40.9895Z" fill="black" fill-opacity="0.25"/>
<path d="M35.8699 44.3672C35.8574 43.5471 35.5345 42.7621 34.9738 42.162C34.6258 41.7895 34.1878 41.302 33.6972 40.7094C33.6221 40.6194 33.8423 40.1194 33.7622 40.0269C31.667 37.6067 27.9473 34.6616 22.3876 34.9591L20.7981 37.6067C20.7981 37.6067 26.3928 36.9592 29.6044 39.8419C32.816 42.7246 35.9075 46.6648 35.9075 46.6648L35.8699 44.3672ZM26.9185 37.7318L23.2287 37.0267C23.2287 37.0267 24.598 35.6816 26.9385 35.9241L26.9185 37.7318ZM27.3165 37.6868L27.4266 36.1417L29.3591 36.9367C29.9749 37.1892 30.5606 37.5167 31.0788 37.9368C33.0338 39.5219 32.7059 41.127 32.7059 41.127C31.7096 40.0244 27.3165 37.6868 27.3165 37.6868ZM35.2016 44.5922L32.6183 41.592C32.6183 41.592 33.9224 41.7695 35.2241 43.2696L35.2016 44.5922Z" fill="#273990"/>
<path d="M35.8699 44.3672C35.8574 43.5471 35.5345 42.7621 34.9738 42.162C34.6258 41.7895 34.1878 41.302 33.6972 40.7094C33.6221 40.6194 33.8423 40.1194 33.7622 40.0269C31.667 37.6067 27.9473 34.6616 22.3876 34.9591L20.7981 37.6067C20.7981 37.6067 26.3928 36.9592 29.6044 39.8419C32.816 42.7246 35.9075 46.6648 35.9075 46.6648L35.8699 44.3672ZM26.9185 37.7318L23.2287 37.0267C23.2287 37.0267 24.598 35.6816 26.9385 35.9241L26.9185 37.7318ZM27.3165 37.6868L27.4266 36.1417L29.3591 36.9367C29.9749 37.1892 30.5606 37.5167 31.0788 37.9368C33.0338 39.5219 32.7059 41.127 32.7059 41.127C31.7096 40.0244 27.3165 37.6868 27.3165 37.6868ZM35.2016 44.5922L32.6183 41.592C32.6183 41.592 33.9224 41.7695 35.2241 43.2696L35.2016 44.5922Z" fill="black" fill-opacity="0.25"/>
<path d="M30.5779 28.2812L38.4405 27.2812C37.8797 18.3681 30.0772 16.2805 30.0772 16.2805L23.3035 17.9281L20.2997 21.4583C20.2997 21.4583 20.948 28.4288 21.331 29.4588C21.714 30.4889 23.4512 32.254 23.4512 32.254L23.4212 34.1066C28.9583 34.2841 31.7844 37.0768 31.7844 37.0768L32.1674 36.3717C33.4641 37.1668 34.6105 37.5193 34.6105 37.5193C39.5569 34.9892 40 28.4313 40 28.4313L30.5779 28.2812ZM29.5766 19.5457C34.7607 19.3682 37.2339 25.8411 37.2339 25.8411L35.4091 25.7811C34.598 22.9309 32.653 21.5558 31.2162 20.9083C30.0497 20.3833 28.718 20.3608 27.539 20.8533C24.5401 22.1034 23.5088 25.1936 23.5088 25.1936C24.6277 19.0757 29.5766 19.5457 29.5766 19.5457ZM25.201 27.5912C25.201 26.8287 25.8218 26.2086 26.5852 26.2086C27.3487 26.2086 27.9695 26.8287 27.9695 27.5912C27.9695 28.3538 27.3487 28.9738 26.5852 28.9738C25.8218 28.9738 25.201 28.3538 25.201 27.5912ZM26.6003 30.7514C28.1623 34.6641 34.2876 36.4568 34.2876 36.4568C27.6917 35.7242 26.6003 30.7514 26.6003 30.7514ZM34.3452 35.7242C34.3452 35.7242 29.9871 33.4016 29.6617 32.1065L32.2525 29.0188L39.3216 29.0188C39.3241 29.0163 35.7019 35.4592 34.3452 35.7242Z" fill="#273990"/>
<path d="M30.5779 28.2812L38.4405 27.2812C37.8797 18.3681 30.0772 16.2805 30.0772 16.2805L23.3035 17.9281L20.2997 21.4583C20.2997 21.4583 20.948 28.4288 21.331 29.4588C21.714 30.4889 23.4512 32.254 23.4512 32.254L23.4212 34.1066C28.9583 34.2841 31.7844 37.0768 31.7844 37.0768L32.1674 36.3717C33.4641 37.1668 34.6105 37.5193 34.6105 37.5193C39.5569 34.9892 40 28.4313 40 28.4313L30.5779 28.2812ZM29.5766 19.5457C34.7607 19.3682 37.2339 25.8411 37.2339 25.8411L35.4091 25.7811C34.598 22.9309 32.653 21.5558 31.2162 20.9083C30.0497 20.3833 28.718 20.3608 27.539 20.8533C24.5401 22.1034 23.5088 25.1936 23.5088 25.1936C24.6277 19.0757 29.5766 19.5457 29.5766 19.5457ZM25.201 27.5912C25.201 26.8287 25.8218 26.2086 26.5852 26.2086C27.3487 26.2086 27.9695 26.8287 27.9695 27.5912C27.9695 28.3538 27.3487 28.9738 26.5852 28.9738C25.8218 28.9738 25.201 28.3538 25.201 27.5912ZM26.6003 30.7514C28.1623 34.6641 34.2876 36.4568 34.2876 36.4568C27.6917 35.7242 26.6003 30.7514 26.6003 30.7514ZM34.3452 35.7242C34.3452 35.7242 29.9871 33.4016 29.6617 32.1065L32.2525 29.0188L39.3216 29.0188C39.3241 29.0163 35.7019 35.4592 34.3452 35.7242Z" fill="black" fill-opacity="0.25"/>
<rect x="0.5" y="0.5" width="55" height="55" rx="27.5" stroke="url(#paint1_linear_6359_210303)"/>
<defs>
<linearGradient id="paint0_linear_6359_210303" x1="28" y1="0" x2="28" y2="56" gradientUnits="userSpaceOnUse">
<stop stop-color="white" stop-opacity="0.14"/>
<stop offset="1" stop-color="#D6DBF5"/>
</linearGradient>
<linearGradient id="paint1_linear_6359_210303" x1="28" y1="0" x2="28" y2="56" gradientUnits="userSpaceOnUse">
<stop stop-color="#273990" stop-opacity="0.14"/>
<stop offset="1" stop-color="#273990"/>
</linearGradient>
</defs>
</svg>
