<svg width="32" height="32" viewBox="0 0 32 32" fill="none" xmlns="http://www.w3.org/2000/svg">
<path d="M20.0961 0.0835845C17.6865 1.63311 16.5848 4.84576 16.5848 4.84576C16.5677 2.58469 17.7209 0.848704 18.4275 0C17.4074 0.0278615 16.252 0.199317 14.9613 0.576519C14.4008 1.50238 13.7372 2.9576 13.5675 4.85647C13.5675 4.85647 12.7171 3.47411 13.2003 1.20876C12.1566 1.68241 11.2868 2.32108 10.5759 3.07119C10.4857 4.02706 10.5158 5.20796 10.853 6.51959C10.853 6.51959 10.0283 5.8552 9.55155 4.3914C9.03399 5.21439 8.66031 6.11881 8.41549 7.06396C8.60447 7.65977 8.86433 8.28987 9.22512 8.93497C9.22512 8.93497 8.75695 8.72494 8.19214 8.16128C7.69605 11.4275 8.64742 14.9831 10.6855 17.287L10.6103 11.0096L18.0753 6.09309C18.0753 6.09309 18.9858 2.50111 24.2517 1.81957C24.2538 1.81957 22.8729 0.443641 20.0961 0.0835845Z" fill="white"/>
<path d="M19.34 19.6949L19.8705 20.0486L21.6637 17.6289C21.6637 17.6268 19.7438 19.5685 19.34 19.6949Z" fill="white"/>
<path d="M20.5341 20.4329L21.0646 20.7866L23.4205 17.5332C23.4205 17.5332 20.9379 20.3065 20.5341 20.4329Z" fill="white"/>
<path d="M21.5371 21.209L22.0676 21.5626L24.7456 17.6855C24.7456 17.6855 21.943 21.0825 21.5371 21.209Z" fill="white"/>
<path d="M16.9907 27.1348C16.9907 27.1348 12.7471 24.0593 8.90513 25.521C5.06527 26.9826 4.96433 31.6226 9.00606 31.2176C13.0478 30.8147 12.6698 26.6783 12.6698 26.6783C12.6698 26.6783 12.9232 25.0923 16.9907 27.1348Z" fill="white"/>
<path d="M23.0469 30.03C23.0362 29.327 22.7591 28.654 22.2781 28.1397C21.9796 27.8203 21.6038 27.4024 21.1828 26.8945C21.1184 26.8173 21.3074 26.3887 21.2387 26.3094C19.4412 24.2348 16.2499 21.7101 11.4801 21.9651L10.1164 24.2348C10.1164 24.2348 14.9162 23.6797 17.6716 26.1508C20.4269 28.6219 23.0791 31.9996 23.0791 31.9996L23.0469 30.03ZM15.3672 24.3419L12.2017 23.7376C12.2017 23.7376 13.3764 22.5845 15.3844 22.7924L15.3672 24.3419ZM15.7087 24.3034L15.8032 22.9789L17.4611 23.6604C17.9894 23.8769 18.4919 24.1576 18.9365 24.5177C20.6137 25.8765 20.3324 27.2524 20.3324 27.2524C19.4777 26.3072 15.7087 24.3034 15.7087 24.3034ZM22.4735 30.2229L20.2572 27.651C20.2572 27.651 21.3761 27.8032 22.4929 29.0891L22.4735 30.2229Z" fill="white"/>
<path d="M18.5067 16.2404L25.2522 15.3832C24.7712 7.74268 18.0772 5.95312 18.0772 5.95312L12.2659 7.36549L9.68878 10.3917C9.68878 10.3917 10.245 16.3669 10.5736 17.2499C10.9022 18.1329 12.3926 19.646 12.3926 19.646L12.3668 21.2341C17.1172 21.3863 19.5418 23.7802 19.5418 23.7802L19.8704 23.1758C20.9829 23.8574 21.9664 24.1595 21.9664 24.1595C26.21 21.9906 26.5902 16.369 26.5902 16.369L18.5067 16.2404ZM17.6477 8.75212C22.0953 8.59996 24.2171 14.1487 24.2171 14.1487L22.6515 14.0973C21.9557 11.654 20.287 10.4753 19.0543 9.92017C18.0536 9.4701 16.9111 9.45081 15.8996 9.87302C13.3268 10.9446 12.442 13.5936 12.442 13.5936C13.4019 8.34921 17.6477 8.75212 17.6477 8.75212ZM13.8937 15.6489C13.8937 14.9953 14.4263 14.4637 15.0813 14.4637C15.7363 14.4637 16.2689 14.9953 16.2689 15.6489C16.2689 16.3026 15.7363 16.8341 15.0813 16.8341C14.4263 16.8341 13.8937 16.3026 13.8937 15.6489ZM15.0942 18.3579C16.4343 21.712 21.6894 23.2487 21.6894 23.2487C16.0306 22.6207 15.0942 18.3579 15.0942 18.3579ZM21.7388 22.6207C21.7388 22.6207 17.9999 20.6297 17.7207 19.5195L19.9434 16.8727H26.0082C26.0103 16.8705 22.9028 22.3936 21.7388 22.6207Z" fill="white"/>
</svg>
