<svg width="48" height="48" viewBox="0 0 48 48" fill="none" xmlns="http://www.w3.org/2000/svg">
<path fill-rule="evenodd" clip-rule="evenodd" d="M19.9457 1.0313C22.4736 -0.343768 25.5262 -0.343768 28.0542 1.0313L42.7096 9.00307C45.4402 10.4884 47.14 13.348 47.14 16.4565V31.5435C47.14 34.652 45.4402 37.5116 42.7096 38.9969L28.0542 46.9687C25.5262 48.3438 22.4736 48.3438 19.9457 46.9687L5.2903 38.9969C2.55967 37.5116 0.859863 34.652 0.859863 31.5435L0.859863 16.4565C0.859863 13.348 2.55967 10.4884 5.2903 9.00307L19.9457 1.0313Z" fill="#0063F5"/>
<g filter="url(#filter0_d_5241_211008)">
<path fill-rule="evenodd" clip-rule="evenodd" d="M26.8773 9.07604C24.6852 10.4857 23.683 13.4083 23.683 13.4083C23.6673 11.3514 24.7165 9.77209 25.3593 9C24.4312 9.02535 23.3802 9.18132 22.206 9.52447C21.6961 10.3667 21.0924 11.6906 20.938 13.4181C20.938 13.4181 20.1644 12.1605 20.604 10.0996C19.6545 10.5305 18.8632 11.1115 18.2165 11.7939C18.1345 12.6635 18.1618 13.7378 18.4686 14.931C18.4686 14.931 17.7183 14.3266 17.2846 12.995C16.8138 13.7437 16.4738 14.5664 16.2511 15.4263C16.423 15.9683 16.6594 16.5415 16.9877 17.1284C16.9877 17.1284 16.5618 16.9373 16.0479 16.4245C15.6084 19.3187 16.418 22.4626 18.1737 24.5607C18.1876 24.6135 18.2012 24.658 18.2144 24.6935C18.5134 25.4968 19.8692 26.8733 19.8692 26.8733L19.8458 28.318C24.1674 28.4564 26.3731 30.6343 26.3731 30.6343L26.672 30.0845C27.684 30.7045 28.5788 30.9794 28.5788 30.9794C32.4393 29.0063 32.7851 23.8922 32.7851 23.8922L25.4314 23.7752L31.568 22.9953C31.1496 16.3508 25.5662 14.5703 25.0751 14.4264C25.2767 13.8382 26.4086 11.2052 30.6577 10.6553C30.6596 10.6553 29.4034 9.40359 26.8773 9.07604ZM26.1891 26.918L26.6717 27.2397L28.303 25.0385C28.303 25.0383 28.2917 25.0496 28.2708 25.0705L28.2704 25.0709C28.0295 25.3115 26.5267 26.8123 26.1891 26.918ZM27.7578 27.9099L27.2752 27.5882C27.6425 27.4731 29.901 24.9502 29.901 24.9502L27.7578 27.9099ZM28.188 28.2944L28.6706 28.6161L31.1069 25.0891C31.1069 25.0891 28.5573 28.1794 28.188 28.2944ZM16.6961 32.217C20.1913 30.8873 24.0518 33.6851 24.0518 33.6851C20.3515 31.8271 20.1209 33.2698 20.1209 33.2698C20.1209 33.2698 20.4648 37.0328 16.7879 37.3993C13.1111 37.7678 13.2029 33.5467 16.6961 32.217ZM29.561 36.3193C29.5512 35.6798 29.2992 35.0676 28.8615 34.5996C28.59 34.3091 28.2481 33.9289 27.8651 33.4669C27.8363 33.4323 27.8634 33.32 27.8908 33.2063C27.9191 33.0894 27.9476 32.9712 27.9159 32.9346C26.2807 31.0473 23.3775 28.7505 19.0383 28.9825L17.7977 31.0473C17.7977 31.0473 22.1643 30.5423 24.6708 32.7903C27.1774 35.0383 29.5903 38.1111 29.5903 38.1111L29.561 36.3193ZM22.5745 31.1448L19.6948 30.5949C19.6948 30.5949 20.7635 29.546 22.5902 29.7351L22.5745 31.1448ZM22.8852 31.1097L22.9711 29.9047L24.4794 30.5247C24.96 30.7217 25.4172 30.9771 25.8216 31.3046C27.3474 32.5407 27.0915 33.7925 27.0915 33.7925C26.3139 32.9326 22.8852 31.1097 22.8852 31.1097ZM29.0393 36.4948L27.0231 34.1551C27.0231 34.1551 28.041 34.2935 29.0569 35.4634L29.0393 36.4948ZM30.6263 21.8723C30.6263 21.8723 28.696 16.8245 24.6499 16.9629C24.6499 16.9629 20.7875 16.5963 19.9142 21.3673C19.9142 21.3673 20.7191 18.9574 23.0596 17.9826C23.9798 17.5985 25.0192 17.616 25.9296 18.0255C27.051 18.5305 28.569 19.6028 29.202 21.8255L30.6263 21.8723ZM22.3153 22.1589C21.7194 22.1589 21.2349 22.6424 21.2349 23.2371C21.2349 23.8317 21.7194 24.3153 22.3153 24.3153C22.9111 24.3153 23.3957 23.8317 23.3957 23.2371C23.3957 22.6424 22.9111 22.1589 22.3153 22.1589ZM22.327 25.7015C23.5461 28.7528 28.3268 30.1507 28.3268 30.1507C23.1788 29.5795 22.327 25.7015 22.327 25.7015ZM24.7164 26.7582C24.9703 27.7682 28.3717 29.5795 28.3717 29.5795C29.4306 29.3728 32.2576 24.3484 32.2557 24.3503H26.7384L24.7164 26.7582Z" fill="url(#paint0_linear_5241_211008)"/>
</g>
<path d="M20.304 1.69014C22.6085 0.436619 25.3913 0.436619 27.6958 1.69014L42.3512 9.66191C44.8404 11.0159 46.39 13.6228 46.39 16.4565V31.5435C46.39 34.3772 44.8404 36.9841 42.3512 38.3381L27.6958 46.3099C25.3913 47.5634 22.6085 47.5634 20.304 46.3099L5.64867 38.3381C3.15942 36.9841 1.60986 34.3772 1.60986 31.5435V16.4565C1.60986 13.6228 3.15942 11.0159 5.64867 9.66191L20.304 1.69014Z" stroke="url(#paint1_linear_5241_211008)" stroke-width="1.5"/>
<defs>
<filter id="filter0_d_5241_211008" x="8.05322" y="6" width="30.7319" height="41.1111" filterUnits="userSpaceOnUse" color-interpolation-filters="sRGB">
<feFlood flood-opacity="0" result="BackgroundImageFix"/>
<feColorMatrix in="SourceAlpha" type="matrix" values="0 0 0 0 0 0 0 0 0 0 0 0 0 0 0 0 0 0 127 0" result="hardAlpha"/>
<feOffset dy="3"/>
<feGaussianBlur stdDeviation="3"/>
<feColorMatrix type="matrix" values="0 0 0 0 0 0 0 0 0 0 0 0 0 0 0 0 0 0 0.15 0"/>
<feBlend mode="normal" in2="BackgroundImageFix" result="effect1_dropShadow_5241_211008"/>
<feBlend mode="normal" in="SourceGraphic" in2="effect1_dropShadow_5241_211008" result="shape"/>
</filter>
<linearGradient id="paint0_linear_5241_211008" x1="29.6863" y1="15.3998" x2="18.6779" y2="26.5229" gradientUnits="userSpaceOnUse">
<stop stop-color="white"/>
<stop offset="1" stop-color="#FCFCFD"/>
</linearGradient>
<linearGradient id="paint1_linear_5241_211008" x1="23.9999" y1="0" x2="23.9999" y2="48" gradientUnits="userSpaceOnUse">
<stop stop-color="#99B7FF" stop-opacity="0.27"/>
<stop offset="1" stop-color="#010714" stop-opacity="0.42"/>
</linearGradient>
</defs>
</svg>
