<svg width="178" height="56" viewBox="0 0 178 56" fill="none" xmlns="http://www.w3.org/2000/svg">
<rect x="0.5" y="0.5" width="55" height="55" rx="27.5" fill="url(#paint0_linear_6359_210302)"/>
<path d="M32.4304 9.43247C29.6218 11.2401 28.3377 14.9878 28.3377 14.9878C28.3176 12.3501 29.6619 10.325 30.4854 9.33496C29.2964 9.36746 27.9497 9.56748 26.4452 10.0075C25.7919 11.0876 25.0184 12.7852 24.8207 15.0003C24.8207 15.0003 23.8294 13.3877 24.3926 10.745C23.176 11.2976 22.1622 12.0426 21.3337 12.9177C21.2285 14.0327 21.2636 15.4103 21.6566 16.9404C21.6566 16.9404 20.6954 16.1654 20.1397 14.4578C19.5364 15.4178 19.1008 16.4729 18.8155 17.5755C19.0357 18.2705 19.3386 19.0055 19.7592 19.7581C19.7592 19.7581 19.2135 19.5131 18.5551 18.8555C17.9769 22.6658 19.0858 26.8135 21.4613 29.5012L21.3737 22.1782L30.0749 16.4429C30.0749 16.4429 31.1363 12.2526 37.2741 11.4576C37.2766 11.4576 35.6671 9.85249 32.4304 9.43247Z" fill="#273990"/>
<path d="M32.4304 9.43247C29.6218 11.2401 28.3377 14.9878 28.3377 14.9878C28.3176 12.3501 29.6619 10.325 30.4854 9.33496C29.2964 9.36746 27.9497 9.56748 26.4452 10.0075C25.7919 11.0876 25.0184 12.7852 24.8207 15.0003C24.8207 15.0003 23.8294 13.3877 24.3926 10.745C23.176 11.2976 22.1622 12.0426 21.3337 12.9177C21.2285 14.0327 21.2636 15.4103 21.6566 16.9404C21.6566 16.9404 20.6954 16.1654 20.1397 14.4578C19.5364 15.4178 19.1008 16.4729 18.8155 17.5755C19.0357 18.2705 19.3386 19.0055 19.7592 19.7581C19.7592 19.7581 19.2135 19.5131 18.5551 18.8555C17.9769 22.6658 19.0858 26.8135 21.4613 29.5012L21.3737 22.1782L30.0749 16.4429C30.0749 16.4429 31.1363 12.2526 37.2741 11.4576C37.2766 11.4576 35.6671 9.85249 32.4304 9.43247Z" fill="black" fill-opacity="0.25"/>
<path d="M31.5492 32.3113L32.1675 32.7238L34.2577 29.9011C34.2577 29.8986 32.0198 32.1638 31.5492 32.3113Z" fill="#273990"/>
<path d="M31.5492 32.3113L32.1675 32.7238L34.2577 29.9011C34.2577 29.8986 32.0198 32.1638 31.5492 32.3113Z" fill="black" fill-opacity="0.25"/>
<path d="M32.941 33.1713L33.5593 33.5838L36.3054 29.7886C36.3054 29.7886 33.4116 33.0238 32.941 33.1713Z" fill="#273990"/>
<path d="M32.941 33.1713L33.5593 33.5838L36.3054 29.7886C36.3054 29.7886 33.4116 33.0238 32.941 33.1713Z" fill="black" fill-opacity="0.25"/>
<path d="M34.1101 34.0763L34.7284 34.4888L37.8499 29.9661C37.8499 29.9661 34.5832 33.9288 34.1101 34.0763Z" fill="#273990"/>
<path d="M34.1101 34.0763L34.7284 34.4888L37.8499 29.9661C37.8499 29.9661 34.5832 33.9288 34.1101 34.0763Z" fill="black" fill-opacity="0.25"/>
<path d="M28.8108 40.9895C28.8108 40.9895 23.8645 37.4018 19.3862 39.1069C14.9105 40.812 14.7928 46.2248 19.5039 45.7523C24.2149 45.2822 23.7744 40.457 23.7744 40.457C23.7744 40.457 24.0697 38.6068 28.8108 40.9895Z" fill="#273990"/>
<path d="M28.8108 40.9895C28.8108 40.9895 23.8645 37.4018 19.3862 39.1069C14.9105 40.812 14.7928 46.2248 19.5039 45.7523C24.2149 45.2822 23.7744 40.457 23.7744 40.457C23.7744 40.457 24.0697 38.6068 28.8108 40.9895Z" fill="black" fill-opacity="0.25"/>
<path d="M35.8699 44.3672C35.8574 43.5471 35.5345 42.7621 34.9738 42.162C34.6258 41.7895 34.1878 41.302 33.6972 40.7094C33.6221 40.6194 33.8423 40.1194 33.7622 40.0269C31.667 37.6067 27.9473 34.6616 22.3876 34.9591L20.7981 37.6067C20.7981 37.6067 26.3928 36.9592 29.6044 39.8419C32.816 42.7246 35.9075 46.6648 35.9075 46.6648L35.8699 44.3672ZM26.9185 37.7318L23.2287 37.0267C23.2287 37.0267 24.598 35.6816 26.9385 35.9241L26.9185 37.7318ZM27.3165 37.6868L27.4266 36.1417L29.3591 36.9367C29.9749 37.1892 30.5606 37.5167 31.0788 37.9368C33.0338 39.5219 32.7059 41.127 32.7059 41.127C31.7096 40.0244 27.3165 37.6868 27.3165 37.6868ZM35.2016 44.5922L32.6183 41.592C32.6183 41.592 33.9224 41.7695 35.2241 43.2696L35.2016 44.5922Z" fill="#273990"/>
<path d="M35.8699 44.3672C35.8574 43.5471 35.5345 42.7621 34.9738 42.162C34.6258 41.7895 34.1878 41.302 33.6972 40.7094C33.6221 40.6194 33.8423 40.1194 33.7622 40.0269C31.667 37.6067 27.9473 34.6616 22.3876 34.9591L20.7981 37.6067C20.7981 37.6067 26.3928 36.9592 29.6044 39.8419C32.816 42.7246 35.9075 46.6648 35.9075 46.6648L35.8699 44.3672ZM26.9185 37.7318L23.2287 37.0267C23.2287 37.0267 24.598 35.6816 26.9385 35.9241L26.9185 37.7318ZM27.3165 37.6868L27.4266 36.1417L29.3591 36.9367C29.9749 37.1892 30.5606 37.5167 31.0788 37.9368C33.0338 39.5219 32.7059 41.127 32.7059 41.127C31.7096 40.0244 27.3165 37.6868 27.3165 37.6868ZM35.2016 44.5922L32.6183 41.592C32.6183 41.592 33.9224 41.7695 35.2241 43.2696L35.2016 44.5922Z" fill="black" fill-opacity="0.25"/>
<path d="M30.5779 28.2812L38.4405 27.2812C37.8797 18.3681 30.0772 16.2805 30.0772 16.2805L23.3035 17.9281L20.2997 21.4583C20.2997 21.4583 20.948 28.4288 21.331 29.4588C21.714 30.4889 23.4512 32.254 23.4512 32.254L23.4212 34.1066C28.9583 34.2841 31.7844 37.0768 31.7844 37.0768L32.1674 36.3717C33.4641 37.1668 34.6105 37.5193 34.6105 37.5193C39.5569 34.9892 40 28.4313 40 28.4313L30.5779 28.2812ZM29.5766 19.5457C34.7607 19.3682 37.2339 25.8411 37.2339 25.8411L35.4091 25.7811C34.598 22.9309 32.653 21.5558 31.2162 20.9083C30.0497 20.3833 28.718 20.3608 27.539 20.8533C24.5401 22.1034 23.5088 25.1936 23.5088 25.1936C24.6277 19.0757 29.5766 19.5457 29.5766 19.5457ZM25.201 27.5912C25.201 26.8287 25.8218 26.2086 26.5852 26.2086C27.3487 26.2086 27.9695 26.8287 27.9695 27.5912C27.9695 28.3538 27.3487 28.9738 26.5852 28.9738C25.8218 28.9738 25.201 28.3538 25.201 27.5912ZM26.6003 30.7514C28.1623 34.6641 34.2876 36.4568 34.2876 36.4568C27.6917 35.7242 26.6003 30.7514 26.6003 30.7514ZM34.3452 35.7242C34.3452 35.7242 29.9871 33.4016 29.6617 32.1065L32.2525 29.0188L39.3216 29.0188C39.3241 29.0163 35.7019 35.4592 34.3452 35.7242Z" fill="#273990"/>
<path d="M30.5779 28.2812L38.4405 27.2812C37.8797 18.3681 30.0772 16.2805 30.0772 16.2805L23.3035 17.9281L20.2997 21.4583C20.2997 21.4583 20.948 28.4288 21.331 29.4588C21.714 30.4889 23.4512 32.254 23.4512 32.254L23.4212 34.1066C28.9583 34.2841 31.7844 37.0768 31.7844 37.0768L32.1674 36.3717C33.4641 37.1668 34.6105 37.5193 34.6105 37.5193C39.5569 34.9892 40 28.4313 40 28.4313L30.5779 28.2812ZM29.5766 19.5457C34.7607 19.3682 37.2339 25.8411 37.2339 25.8411L35.4091 25.7811C34.598 22.9309 32.653 21.5558 31.2162 20.9083C30.0497 20.3833 28.718 20.3608 27.539 20.8533C24.5401 22.1034 23.5088 25.1936 23.5088 25.1936C24.6277 19.0757 29.5766 19.5457 29.5766 19.5457ZM25.201 27.5912C25.201 26.8287 25.8218 26.2086 26.5852 26.2086C27.3487 26.2086 27.9695 26.8287 27.9695 27.5912C27.9695 28.3538 27.3487 28.9738 26.5852 28.9738C25.8218 28.9738 25.201 28.3538 25.201 27.5912ZM26.6003 30.7514C28.1623 34.6641 34.2876 36.4568 34.2876 36.4568C27.6917 35.7242 26.6003 30.7514 26.6003 30.7514ZM34.3452 35.7242C34.3452 35.7242 29.9871 33.4016 29.6617 32.1065L32.2525 29.0188L39.3216 29.0188C39.3241 29.0163 35.7019 35.4592 34.3452 35.7242Z" fill="black" fill-opacity="0.25"/>
<rect x="0.5" y="0.5" width="55" height="55" rx="27.5" stroke="url(#paint1_linear_6359_210302)"/>
<path d="M64 42.0001V14.0001H70.88V26.2401L82.2 14.0001H90.52L77.56 27.1601L91.24 42.0001H82.12L70.88 29.1601V42.0001H64Z" fill="#273990"/>
<path d="M64 42.0001V14.0001H70.88V26.2401L82.2 14.0001H90.52L77.56 27.1601L91.24 42.0001H82.12L70.88 29.1601V42.0001H64Z" fill="black" fill-opacity="0.25"/>
<path d="M91.2456 42.0001L101.846 27.5601L91.7256 14.0001H99.9256L105.926 22.4401L111.926 14.0001H119.806L109.846 27.5601L120.646 42.0001H112.446L105.766 32.6401L99.1256 42.0001H91.2456Z" fill="#273990"/>
<path d="M91.2456 42.0001L101.846 27.5601L91.7256 14.0001H99.9256L105.926 22.4401L111.926 14.0001H119.806L109.846 27.5601L120.646 42.0001H112.446L105.766 32.6401L99.1256 42.0001H91.2456Z" fill="black" fill-opacity="0.25"/>
<path d="M134.134 42.4001C132 42.4001 130.014 42.0401 128.174 41.3201C126.36 40.5734 124.774 39.5467 123.414 38.2401C122.054 36.9334 120.987 35.4134 120.214 33.6801C119.467 31.9201 119.094 30.0267 119.094 28.0001C119.094 25.9467 119.467 24.0534 120.214 22.3201C120.987 20.5601 122.054 19.0267 123.414 17.7201C124.8 16.4134 126.4 15.4001 128.214 14.6801C130.054 13.9334 132.027 13.5601 134.134 13.5601C135.68 13.5601 137.2 13.7867 138.694 14.2401C140.187 14.6934 141.56 15.3334 142.814 16.1601C144.094 16.9601 145.16 17.9201 146.014 19.0401L141.374 23.6001C140.387 22.3467 139.28 21.4134 138.054 20.8001C136.854 20.1867 135.547 19.8801 134.134 19.8801C133.014 19.8801 131.96 20.0934 130.974 20.5201C130.014 20.9201 129.174 21.4801 128.454 22.2001C127.734 22.9201 127.174 23.7734 126.774 24.7601C126.374 25.7467 126.174 26.8267 126.174 28.0001C126.174 29.1467 126.374 30.2134 126.774 31.2001C127.2 32.1601 127.774 33.0134 128.494 33.7601C129.24 34.4801 130.107 35.0401 131.094 35.4401C132.107 35.8401 133.2 36.0401 134.374 36.0401C135.734 36.0401 136.987 35.7467 138.134 35.1601C139.307 34.5734 140.36 33.7067 141.294 32.5601L145.814 37.0001C144.96 38.0934 143.907 39.0534 142.654 39.8801C141.4 40.6801 140.04 41.3067 138.574 41.7601C137.107 42.1867 135.627 42.4001 134.134 42.4001Z" fill="#273990"/>
<path d="M134.134 42.4001C132 42.4001 130.014 42.0401 128.174 41.3201C126.36 40.5734 124.774 39.5467 123.414 38.2401C122.054 36.9334 120.987 35.4134 120.214 33.6801C119.467 31.9201 119.094 30.0267 119.094 28.0001C119.094 25.9467 119.467 24.0534 120.214 22.3201C120.987 20.5601 122.054 19.0267 123.414 17.7201C124.8 16.4134 126.4 15.4001 128.214 14.6801C130.054 13.9334 132.027 13.5601 134.134 13.5601C135.68 13.5601 137.2 13.7867 138.694 14.2401C140.187 14.6934 141.56 15.3334 142.814 16.1601C144.094 16.9601 145.16 17.9201 146.014 19.0401L141.374 23.6001C140.387 22.3467 139.28 21.4134 138.054 20.8001C136.854 20.1867 135.547 19.8801 134.134 19.8801C133.014 19.8801 131.96 20.0934 130.974 20.5201C130.014 20.9201 129.174 21.4801 128.454 22.2001C127.734 22.9201 127.174 23.7734 126.774 24.7601C126.374 25.7467 126.174 26.8267 126.174 28.0001C126.174 29.1467 126.374 30.2134 126.774 31.2001C127.2 32.1601 127.774 33.0134 128.494 33.7601C129.24 34.4801 130.107 35.0401 131.094 35.4401C132.107 35.8401 133.2 36.0401 134.374 36.0401C135.734 36.0401 136.987 35.7467 138.134 35.1601C139.307 34.5734 140.36 33.7067 141.294 32.5601L145.814 37.0001C144.96 38.0934 143.907 39.0534 142.654 39.8801C141.4 40.6801 140.04 41.3067 138.574 41.7601C137.107 42.1867 135.627 42.4001 134.134 42.4001Z" fill="black" fill-opacity="0.25"/>
<path d="M162.101 42.4401C159.994 42.4401 158.034 42.0801 156.221 41.3601C154.407 40.6134 152.821 39.5867 151.461 38.2801C150.101 36.9467 149.034 35.4134 148.261 33.6801C147.514 31.9201 147.141 30.0267 147.141 28.0001C147.141 25.9734 147.514 24.0934 148.261 22.3601C149.034 20.6001 150.101 19.0667 151.461 17.7601C152.821 16.4267 154.407 15.4001 156.221 14.6801C158.034 13.9334 159.994 13.5601 162.101 13.5601C164.207 13.5601 166.167 13.9334 167.981 14.6801C169.794 15.4001 171.381 16.4267 172.741 17.7601C174.101 19.0667 175.154 20.6001 175.901 22.3601C176.674 24.0934 177.061 25.9734 177.061 28.0001C177.061 30.0267 176.674 31.9201 175.901 33.6801C175.154 35.4134 174.101 36.9467 172.741 38.2801C171.381 39.5867 169.794 40.6134 167.981 41.3601C166.167 42.0801 164.207 42.4401 162.101 42.4401ZM162.101 36.1201C163.221 36.1201 164.261 35.9201 165.221 35.5201C166.181 35.0934 167.007 34.5201 167.701 33.8001C168.421 33.0801 168.981 32.2267 169.381 31.2401C169.781 30.2267 169.981 29.1467 169.981 28.0001C169.981 26.8267 169.781 25.7467 169.381 24.7601C168.981 23.7734 168.421 22.9201 167.701 22.2001C167.007 21.4801 166.181 20.9201 165.221 20.5201C164.261 20.0934 163.221 19.8801 162.101 19.8801C160.981 19.8801 159.941 20.0934 158.981 20.5201C158.021 20.9201 157.181 21.4801 156.461 22.2001C155.767 22.9201 155.221 23.7734 154.821 24.7601C154.421 25.7467 154.221 26.8267 154.221 28.0001C154.221 29.1467 154.421 30.2267 154.821 31.2401C155.221 32.2267 155.767 33.0801 156.461 33.8001C157.181 34.5201 158.021 35.0934 158.981 35.5201C159.941 35.9201 160.981 36.1201 162.101 36.1201Z" fill="#273990"/>
<path d="M162.101 42.4401C159.994 42.4401 158.034 42.0801 156.221 41.3601C154.407 40.6134 152.821 39.5867 151.461 38.2801C150.101 36.9467 149.034 35.4134 148.261 33.6801C147.514 31.9201 147.141 30.0267 147.141 28.0001C147.141 25.9734 147.514 24.0934 148.261 22.3601C149.034 20.6001 150.101 19.0667 151.461 17.7601C152.821 16.4267 154.407 15.4001 156.221 14.6801C158.034 13.9334 159.994 13.5601 162.101 13.5601C164.207 13.5601 166.167 13.9334 167.981 14.6801C169.794 15.4001 171.381 16.4267 172.741 17.7601C174.101 19.0667 175.154 20.6001 175.901 22.3601C176.674 24.0934 177.061 25.9734 177.061 28.0001C177.061 30.0267 176.674 31.9201 175.901 33.6801C175.154 35.4134 174.101 36.9467 172.741 38.2801C171.381 39.5867 169.794 40.6134 167.981 41.3601C166.167 42.0801 164.207 42.4401 162.101 42.4401ZM162.101 36.1201C163.221 36.1201 164.261 35.9201 165.221 35.5201C166.181 35.0934 167.007 34.5201 167.701 33.8001C168.421 33.0801 168.981 32.2267 169.381 31.2401C169.781 30.2267 169.981 29.1467 169.981 28.0001C169.981 26.8267 169.781 25.7467 169.381 24.7601C168.981 23.7734 168.421 22.9201 167.701 22.2001C167.007 21.4801 166.181 20.9201 165.221 20.5201C164.261 20.0934 163.221 19.8801 162.101 19.8801C160.981 19.8801 159.941 20.0934 158.981 20.5201C158.021 20.9201 157.181 21.4801 156.461 22.2001C155.767 22.9201 155.221 23.7734 154.821 24.7601C154.421 25.7467 154.221 26.8267 154.221 28.0001C154.221 29.1467 154.421 30.2267 154.821 31.2401C155.221 32.2267 155.767 33.0801 156.461 33.8001C157.181 34.5201 158.021 35.0934 158.981 35.5201C159.941 35.9201 160.981 36.1201 162.101 36.1201Z" fill="black" fill-opacity="0.25"/>
<defs>
<linearGradient id="paint0_linear_6359_210302" x1="28" y1="0" x2="28" y2="56" gradientUnits="userSpaceOnUse">
<stop stop-color="white" stop-opacity="0.14"/>
<stop offset="1" stop-color="#D6DBF5"/>
</linearGradient>
<linearGradient id="paint1_linear_6359_210302" x1="28" y1="0" x2="28" y2="56" gradientUnits="userSpaceOnUse">
<stop stop-color="#273990" stop-opacity="0.14"/>
<stop offset="1" stop-color="#273990"/>
</linearGradient>
</defs>
</svg>
