<svg width="115" height="32" viewBox="0 0 115 32" fill="none" xmlns="http://www.w3.org/2000/svg">
<path d="M20.0797 0.0835845C17.6721 1.63311 16.5713 4.84576 16.5713 4.84576C16.5541 2.58469 17.7064 0.848704 18.4124 0C17.3931 0.0278615 16.2387 0.199317 14.9491 0.576519C14.389 1.50238 13.7259 2.9576 13.5564 4.85647C13.5564 4.85647 12.7067 3.47411 13.1895 1.20876C12.1466 1.68241 11.2776 2.32108 10.5673 3.07119C10.4772 4.02706 10.5072 5.20796 10.8441 6.51959C10.8441 6.51959 10.0201 5.8552 9.54374 4.3914C9.0266 5.21439 8.65323 6.11881 8.40861 7.06396C8.59744 7.65977 8.85708 8.28987 9.21758 8.93497C9.21758 8.93497 8.74979 8.72494 8.18544 8.16128C7.68976 11.4275 8.64035 14.9831 10.6767 17.287L10.6016 11.0096L18.0605 6.09309C18.0605 6.09309 18.9703 2.50111 24.2318 1.81957C24.234 1.81957 22.8542 0.443641 20.0797 0.0835845Z" fill="#273990"/>
<path d="M20.0797 0.0835845C17.6721 1.63311 16.5713 4.84576 16.5713 4.84576C16.5541 2.58469 17.7064 0.848704 18.4124 0C17.3931 0.0278615 16.2387 0.199317 14.9491 0.576519C14.389 1.50238 13.7259 2.9576 13.5564 4.85647C13.5564 4.85647 12.7067 3.47411 13.1895 1.20876C12.1466 1.68241 11.2776 2.32108 10.5673 3.07119C10.4772 4.02706 10.5072 5.20796 10.8441 6.51959C10.8441 6.51959 10.0201 5.8552 9.54374 4.3914C9.0266 5.21439 8.65323 6.11881 8.40861 7.06396C8.59744 7.65977 8.85708 8.28987 9.21758 8.93497C9.21758 8.93497 8.74979 8.72494 8.18544 8.16128C7.68976 11.4275 8.64035 14.9831 10.6767 17.287L10.6016 11.0096L18.0605 6.09309C18.0605 6.09309 18.9703 2.50111 24.2318 1.81957C24.234 1.81957 22.8542 0.443641 20.0797 0.0835845Z" fill="black" fill-opacity="0.25"/>
<path d="M19.3242 19.6949L19.8542 20.0486L21.646 17.6289C21.646 17.6268 19.7276 19.5685 19.3242 19.6949Z" fill="#273990"/>
<path d="M19.3242 19.6949L19.8542 20.0486L21.646 17.6289C21.646 17.6268 19.7276 19.5685 19.3242 19.6949Z" fill="black" fill-opacity="0.25"/>
<path d="M20.5173 20.4329L21.0473 20.7866L23.4013 17.5332C23.4013 17.5332 20.9207 20.3065 20.5173 20.4329Z" fill="#273990"/>
<path d="M20.5173 20.4329L21.0473 20.7866L23.4013 17.5332C23.4013 17.5332 20.9207 20.3065 20.5173 20.4329Z" fill="black" fill-opacity="0.25"/>
<path d="M21.5195 21.209L22.0495 21.5626L24.7254 17.6855C24.7254 17.6855 21.9251 21.0825 21.5195 21.209Z" fill="#273990"/>
<path d="M21.5195 21.209L22.0495 21.5626L24.7254 17.6855C24.7254 17.6855 21.9251 21.0825 21.5195 21.209Z" fill="black" fill-opacity="0.25"/>
<path d="M16.9769 27.1348C16.9769 27.1348 12.7367 24.0593 8.89787 25.521C5.06115 26.9826 4.9603 31.6226 8.99872 31.2176C13.0371 30.8147 12.6595 26.6783 12.6595 26.6783C12.6595 26.6783 12.9127 25.0923 16.9769 27.1348Z" fill="#273990"/>
<path d="M16.9769 27.1348C16.9769 27.1348 12.7367 24.0593 8.89787 25.521C5.06115 26.9826 4.9603 31.6226 8.99872 31.2176C13.0371 30.8147 12.6595 26.6783 12.6595 26.6783C12.6595 26.6783 12.9127 25.0923 16.9769 27.1348Z" fill="black" fill-opacity="0.25"/>
<path d="M23.0281 30.03C23.0174 29.327 22.7406 28.654 22.2599 28.1397C21.9616 27.8203 21.5861 27.4024 21.1655 26.8945C21.1012 26.8173 21.29 26.3887 21.2213 26.3094C19.4253 24.2348 16.2366 21.7101 11.4707 21.9651L10.1082 24.2348C10.1082 24.2348 14.9041 23.6797 17.6571 26.1508C20.4102 28.6219 23.0603 31.9996 23.0603 31.9996L23.0281 30.03ZM15.3547 24.3419L12.1917 23.7376C12.1917 23.7376 13.3655 22.5845 15.3718 22.7924L15.3547 24.3419ZM15.6959 24.3034L15.7903 22.9789L17.4468 23.6604C17.9747 23.8769 18.4768 24.1576 18.921 24.5177C20.5969 25.8765 20.3158 27.2524 20.3158 27.2524C19.4618 26.3072 15.6959 24.3034 15.6959 24.3034ZM22.4552 30.2229L20.2407 27.651C20.2407 27.651 21.3587 27.8032 22.4745 29.0891L22.4552 30.2229Z" fill="#273990"/>
<path d="M23.0281 30.03C23.0174 29.327 22.7406 28.654 22.2599 28.1397C21.9616 27.8203 21.5861 27.4024 21.1655 26.8945C21.1012 26.8173 21.29 26.3887 21.2213 26.3094C19.4253 24.2348 16.2366 21.7101 11.4707 21.9651L10.1082 24.2348C10.1082 24.2348 14.9041 23.6797 17.6571 26.1508C20.4102 28.6219 23.0603 31.9996 23.0603 31.9996L23.0281 30.03ZM15.3547 24.3419L12.1917 23.7376C12.1917 23.7376 13.3655 22.5845 15.3718 22.7924L15.3547 24.3419ZM15.6959 24.3034L15.7903 22.9789L17.4468 23.6604C17.9747 23.8769 18.4768 24.1576 18.921 24.5177C20.5969 25.8765 20.3158 27.2524 20.3158 27.2524C19.4618 26.3072 15.6959 24.3034 15.6959 24.3034ZM22.4552 30.2229L20.2407 27.651C20.2407 27.651 21.3587 27.8032 22.4745 29.0891L22.4552 30.2229Z" fill="black" fill-opacity="0.25"/>
<path d="M18.4916 16.2404L25.2316 15.3832C24.751 7.74269 18.0625 5.95313 18.0625 5.95313L12.2559 7.36549L9.68091 10.3917C9.68091 10.3917 10.2367 16.3669 10.565 17.2499C10.8933 18.1329 12.3825 19.646 12.3825 19.646L12.3567 21.2341C17.1033 21.3863 19.5259 23.7802 19.5259 23.7802L19.8542 23.1758C20.9657 23.8574 21.9485 24.1595 21.9485 24.1595C26.1887 21.9906 26.5685 16.369 26.5685 16.369L18.4916 16.2404ZM17.6333 8.75213C22.0773 8.59997 24.1973 14.1487 24.1973 14.1487L22.633 14.0973C21.9378 11.654 20.2705 10.4753 19.0388 9.92017C18.0389 9.4701 16.8973 9.45081 15.8866 9.87302C13.3159 10.9446 12.4318 13.5936 12.4318 13.5936C13.391 8.34921 17.6333 8.75213 17.6333 8.75213ZM13.8824 15.6489C13.8824 14.9953 14.4146 14.4637 15.069 14.4637C15.7235 14.4637 16.2557 14.9953 16.2557 15.6489C16.2557 16.3026 15.7235 16.8341 15.069 16.8341C14.4146 16.8341 13.8824 16.3026 13.8824 15.6489ZM15.0819 18.3579C16.4209 21.712 21.6717 23.2487 21.6717 23.2487C16.0175 22.6207 15.0819 18.3579 15.0819 18.3579ZM21.7211 22.6207C21.7211 22.6207 17.9852 20.6297 17.7063 19.5195L19.9272 16.8727H25.987C25.9891 16.8705 22.8841 22.3936 21.7211 22.6207Z" fill="#273990"/>
<path d="M18.4916 16.2404L25.2316 15.3832C24.751 7.74269 18.0625 5.95313 18.0625 5.95313L12.2559 7.36549L9.68091 10.3917C9.68091 10.3917 10.2367 16.3669 10.565 17.2499C10.8933 18.1329 12.3825 19.646 12.3825 19.646L12.3567 21.2341C17.1033 21.3863 19.5259 23.7802 19.5259 23.7802L19.8542 23.1758C20.9657 23.8574 21.9485 24.1595 21.9485 24.1595C26.1887 21.9906 26.5685 16.369 26.5685 16.369L18.4916 16.2404ZM17.6333 8.75213C22.0773 8.59997 24.1973 14.1487 24.1973 14.1487L22.633 14.0973C21.9378 11.654 20.2705 10.4753 19.0388 9.92017C18.0389 9.4701 16.8973 9.45081 15.8866 9.87302C13.3159 10.9446 12.4318 13.5936 12.4318 13.5936C13.391 8.34921 17.6333 8.75213 17.6333 8.75213ZM13.8824 15.6489C13.8824 14.9953 14.4146 14.4637 15.069 14.4637C15.7235 14.4637 16.2557 14.9953 16.2557 15.6489C16.2557 16.3026 15.7235 16.8341 15.069 16.8341C14.4146 16.8341 13.8824 16.3026 13.8824 15.6489ZM15.0819 18.3579C16.4209 21.712 21.6717 23.2487 21.6717 23.2487C16.0175 22.6207 15.0819 18.3579 15.0819 18.3579ZM21.7211 22.6207C21.7211 22.6207 17.9852 20.6297 17.7063 19.5195L19.9272 16.8727H25.987C25.9891 16.8705 22.8841 22.3936 21.7211 22.6207Z" fill="black" fill-opacity="0.25"/>
<path d="M50.7802 2.16992L47.6366 2.16992L43.0531 6.68991H42.9759V2.16992L40.6133 2.16992V14.7547H42.9759V9.26174L48.1966 14.7226L48.2288 14.7547H51.4797L44.935 7.92868L50.7802 2.16992Z" fill="#273990"/>
<path d="M50.7802 2.16992L47.6366 2.16992L43.0531 6.68991H42.9759V2.16992L40.6133 2.16992V14.7547H42.9759V9.26174L48.1966 14.7226L48.2288 14.7547H51.4797L44.935 7.92868L50.7802 2.16992Z" fill="black" fill-opacity="0.25"/>
<path d="M61.4748 10.6398L54.34 2.2085L54.3078 2.16992L52.1749 2.16992V14.7547H54.6726V6.61276L61.4619 14.7183L61.4941 14.7547H63.9725V2.16992L61.4748 2.16992V10.6398Z" fill="#273990"/>
<path d="M61.4748 10.6398L54.34 2.2085L54.3078 2.16992L52.1749 2.16992V14.7547H54.6726V6.61276L61.4619 14.7183L61.4941 14.7547H63.9725V2.16992L61.4748 2.16992V10.6398Z" fill="black" fill-opacity="0.25"/>
<path d="M68.2085 2.16992L65.713 2.16992V14.7569H68.2085V2.16992Z" fill="#273990"/>
<path d="M68.2085 2.16992L65.713 2.16992V14.7569H68.2085V2.16992Z" fill="black" fill-opacity="0.25"/>
<path d="M76.9677 10.0243H79.0191V12.3582C78.7423 12.4825 78.3775 12.5897 77.9354 12.6754C76.8282 12.894 75.7703 12.8726 74.8347 12.4804C74.3004 12.2575 73.8284 11.936 73.4314 11.5266C73.0344 11.1173 72.7233 10.6265 72.5044 10.0693C72.2877 9.5099 72.1761 8.89909 72.1761 8.2497C72.1761 7.66675 72.2855 7.11809 72.5022 6.61659C72.719 6.11508 73.0301 5.67358 73.4271 5.30281C73.8241 4.93204 74.2983 4.63842 74.839 4.43482C75.3798 4.22907 75.9656 4.1262 76.575 4.1262C77.4784 4.1262 78.326 4.28051 79.0942 4.58698C79.8602 4.89132 80.4997 5.35425 80.9975 5.96291L81.0297 6.00149H81.3409V2.99888L81.2894 2.96673C80.7851 2.68383 80.0898 2.41807 79.2229 2.18018C78.3539 1.94228 77.4784 1.82227 76.6158 1.82227C75.5858 1.82227 74.6202 1.99158 73.749 2.32806C72.8756 2.66454 72.116 3.14461 71.4873 3.75971C70.8607 4.37266 70.3714 5.09063 70.0345 5.89219C69.6977 6.69374 69.5281 7.55745 69.5281 8.46187C69.5281 9.3663 69.6977 10.2343 70.0345 11.0401C70.3714 11.8481 70.8585 12.5725 71.4873 13.1919C72.1138 13.8113 72.8606 14.3021 73.7082 14.6514C74.5536 15.0008 75.4871 15.1765 76.4806 15.1765C76.9205 15.1765 77.4312 15.1186 77.9977 15.0029C78.5577 14.8893 79.0899 14.7586 79.5791 14.6171C80.0641 14.4757 80.4761 14.3471 80.8023 14.2313C81.137 14.1135 81.3602 14.032 81.4868 13.9806L81.5533 13.9527V7.78034L76.9677 7.78034V10.0243Z" fill="#273990"/>
<path d="M76.9677 10.0243H79.0191V12.3582C78.7423 12.4825 78.3775 12.5897 77.9354 12.6754C76.8282 12.894 75.7703 12.8726 74.8347 12.4804C74.3004 12.2575 73.8284 11.936 73.4314 11.5266C73.0344 11.1173 72.7233 10.6265 72.5044 10.0693C72.2877 9.5099 72.1761 8.89909 72.1761 8.2497C72.1761 7.66675 72.2855 7.11809 72.5022 6.61659C72.719 6.11508 73.0301 5.67358 73.4271 5.30281C73.8241 4.93204 74.2983 4.63842 74.839 4.43482C75.3798 4.22907 75.9656 4.1262 76.575 4.1262C77.4784 4.1262 78.326 4.28051 79.0942 4.58698C79.8602 4.89132 80.4997 5.35425 80.9975 5.96291L81.0297 6.00149H81.3409V2.99888L81.2894 2.96673C80.7851 2.68383 80.0898 2.41807 79.2229 2.18018C78.3539 1.94228 77.4784 1.82227 76.6158 1.82227C75.5858 1.82227 74.6202 1.99158 73.749 2.32806C72.8756 2.66454 72.116 3.14461 71.4873 3.75971C70.8607 4.37266 70.3714 5.09063 70.0345 5.89219C69.6977 6.69374 69.5281 7.55745 69.5281 8.46187C69.5281 9.3663 69.6977 10.2343 70.0345 11.0401C70.3714 11.8481 70.8585 12.5725 71.4873 13.1919C72.1138 13.8113 72.8606 14.3021 73.7082 14.6514C74.5536 15.0008 75.4871 15.1765 76.4806 15.1765C76.9205 15.1765 77.4312 15.1186 77.9977 15.0029C78.5577 14.8893 79.0899 14.7586 79.5791 14.6171C80.0641 14.4757 80.4761 14.3471 80.8023 14.2313C81.137 14.1135 81.3602 14.032 81.4868 13.9806L81.5533 13.9527V7.78034L76.9677 7.78034V10.0243Z" fill="black" fill-opacity="0.25"/>
<path d="M91.3875 7.01353L85.6968 7.01353V2.16992L83.2012 2.16992V14.7547H85.6968V9.29817H91.3875V14.7547H93.8853V2.16992L91.3875 2.16992V7.01353Z" fill="#273990"/>
<path d="M91.3875 7.01353L85.6968 7.01353V2.16992L83.2012 2.16992V14.7547H85.6968V9.29817H91.3875V14.7547H93.8853V2.16992L91.3875 2.16992V7.01353Z" fill="black" fill-opacity="0.25"/>
<path d="M95.2996 4.43313H99.0591V14.7547L101.555 14.7547V4.43313L105.486 4.43313V2.16992L95.2996 2.16992V4.43313Z" fill="#273990"/>
<path d="M95.2996 4.43313H99.0591V14.7547L101.555 14.7547V4.43313L105.486 4.43313V2.16992L95.2996 2.16992V4.43313Z" fill="black" fill-opacity="0.25"/>
<path d="M113.783 8.11467C113.414 7.77818 113.011 7.48885 112.584 7.25739C112.163 7.02807 111.607 6.76231 110.927 6.46869C110.504 6.28224 110.178 6.09149 109.957 5.90075C109.751 5.72286 109.65 5.48282 109.65 5.16778C109.65 4.90202 109.747 4.68341 109.942 4.4991C110.142 4.31264 110.354 4.22263 110.597 4.22263C110.977 4.22263 111.303 4.33622 111.562 4.56125C111.831 4.79272 112.073 5.13563 112.283 5.57927L112.333 5.68429L114.412 4.46695L114.378 4.38122C114.077 3.63539 113.592 3.04387 112.938 2.61738C112.283 2.19302 111.515 1.97656 110.655 1.97656C109.582 1.97656 108.719 2.3109 108.095 2.96672C107.47 3.62253 107.155 4.42837 107.155 5.35852C107.155 5.80645 107.243 6.2158 107.414 6.57371C107.584 6.92734 107.822 7.24882 108.118 7.52529C108.41 7.79747 108.736 8.03751 109.088 8.23897C109.432 8.43614 109.839 8.64618 110.307 8.86693C110.622 9.00623 110.901 9.1434 111.131 9.27413C111.361 9.40487 111.586 9.55703 111.798 9.7242C112.004 9.88709 112.172 10.0843 112.298 10.3072C112.423 10.5258 112.485 10.7744 112.485 11.0487C112.485 11.4966 112.328 11.8717 112.009 12.1996C111.687 12.5254 111.326 12.684 110.906 12.684C110.449 12.684 110.035 12.5189 109.674 12.1953C109.301 11.8588 108.94 11.3723 108.603 10.7486L108.554 10.6586L106.402 11.6809L106.432 11.771C106.745 12.7332 107.305 13.5112 108.101 14.0856C108.895 14.6578 109.839 14.9493 110.906 14.9493C111.466 14.9493 112.007 14.8464 112.509 14.645C113.011 14.4435 113.453 14.1606 113.818 13.8091C114.185 13.4555 114.476 13.0354 114.685 12.5596C114.895 12.0817 115 11.5738 115 11.0508C115 10.4015 114.891 9.82922 114.674 9.34914C114.455 8.86907 114.157 8.45543 113.783 8.11467Z" fill="#273990"/>
<path d="M113.783 8.11467C113.414 7.77818 113.011 7.48885 112.584 7.25739C112.163 7.02807 111.607 6.76231 110.927 6.46869C110.504 6.28224 110.178 6.09149 109.957 5.90075C109.751 5.72286 109.65 5.48282 109.65 5.16778C109.65 4.90202 109.747 4.68341 109.942 4.4991C110.142 4.31264 110.354 4.22263 110.597 4.22263C110.977 4.22263 111.303 4.33622 111.562 4.56125C111.831 4.79272 112.073 5.13563 112.283 5.57927L112.333 5.68429L114.412 4.46695L114.378 4.38122C114.077 3.63539 113.592 3.04387 112.938 2.61738C112.283 2.19302 111.515 1.97656 110.655 1.97656C109.582 1.97656 108.719 2.3109 108.095 2.96672C107.47 3.62253 107.155 4.42837 107.155 5.35852C107.155 5.80645 107.243 6.2158 107.414 6.57371C107.584 6.92734 107.822 7.24882 108.118 7.52529C108.41 7.79747 108.736 8.03751 109.088 8.23897C109.432 8.43614 109.839 8.64618 110.307 8.86693C110.622 9.00623 110.901 9.1434 111.131 9.27413C111.361 9.40487 111.586 9.55703 111.798 9.7242C112.004 9.88709 112.172 10.0843 112.298 10.3072C112.423 10.5258 112.485 10.7744 112.485 11.0487C112.485 11.4966 112.328 11.8717 112.009 12.1996C111.687 12.5254 111.326 12.684 110.906 12.684C110.449 12.684 110.035 12.5189 109.674 12.1953C109.301 11.8588 108.94 11.3723 108.603 10.7486L108.554 10.6586L106.402 11.6809L106.432 11.771C106.745 12.7332 107.305 13.5112 108.101 14.0856C108.895 14.6578 109.839 14.9493 110.906 14.9493C111.466 14.9493 112.007 14.8464 112.509 14.645C113.011 14.4435 113.453 14.1606 113.818 13.8091C114.185 13.4555 114.476 13.0354 114.685 12.5596C114.895 12.0817 115 11.5738 115 11.0508C115 10.4015 114.891 9.82922 114.674 9.34914C114.455 8.86907 114.157 8.45543 113.783 8.11467Z" fill="black" fill-opacity="0.25"/>
<path d="M46.746 22.3674C46.9734 22.1187 47.1687 21.8058 47.3275 21.4329C47.512 21 47.6043 20.5606 47.6043 20.1277C47.6043 19.2576 47.2889 18.5375 46.6666 17.9888C46.0486 17.4444 45.1924 17.168 44.1217 17.168H39.9673V29.7549H44.5036C45.0851 29.7549 45.6495 29.6864 46.1795 29.5513C46.7138 29.4142 47.1966 29.1977 47.615 28.9041C48.0356 28.6083 48.3768 28.2076 48.6257 27.7146C48.8746 27.2217 49.0012 26.6302 49.0012 25.9529C49.0012 25.0399 48.7609 24.2576 48.2888 23.6297C47.8597 23.0489 47.3404 22.6267 46.746 22.3674ZM42.4651 19.2962H43.3363C43.8684 19.2962 44.2654 19.4055 44.5122 19.6241C44.759 19.8405 44.8791 20.1384 44.8791 20.5306C44.8791 20.8757 44.7632 21.1757 44.5229 21.4458C44.2869 21.7115 44.0423 21.8401 43.7783 21.8401H42.4672V19.2962H42.4651ZM44.3341 27.4703H42.4651V24.084H44.3341C44.9435 24.084 45.4327 24.2405 45.7889 24.547C46.1452 24.8535 46.3168 25.2435 46.3168 25.7386C46.3168 26.9045 45.6688 27.4703 44.3341 27.4703Z" fill="#273990"/>
<path d="M46.746 22.3674C46.9734 22.1187 47.1687 21.8058 47.3275 21.4329C47.512 21 47.6043 20.5606 47.6043 20.1277C47.6043 19.2576 47.2889 18.5375 46.6666 17.9888C46.0486 17.4444 45.1924 17.168 44.1217 17.168H39.9673V29.7549H44.5036C45.0851 29.7549 45.6495 29.6864 46.1795 29.5513C46.7138 29.4142 47.1966 29.1977 47.615 28.9041C48.0356 28.6083 48.3768 28.2076 48.6257 27.7146C48.8746 27.2217 49.0012 26.6302 49.0012 25.9529C49.0012 25.0399 48.7609 24.2576 48.2888 23.6297C47.8597 23.0489 47.3404 22.6267 46.746 22.3674ZM42.4651 19.2962H43.3363C43.8684 19.2962 44.2654 19.4055 44.5122 19.6241C44.759 19.8405 44.8791 20.1384 44.8791 20.5306C44.8791 20.8757 44.7632 21.1757 44.5229 21.4458C44.2869 21.7115 44.0423 21.8401 43.7783 21.8401H42.4672V19.2962H42.4651ZM44.3341 27.4703H42.4651V24.084H44.3341C44.9435 24.084 45.4327 24.2405 45.7889 24.547C46.1452 24.8535 46.3168 25.2435 46.3168 25.7386C46.3168 26.9045 45.6688 27.4703 44.3341 27.4703Z" fill="black" fill-opacity="0.25"/>
<path d="M57.9515 22.7553C58.3657 22.153 58.5738 21.4694 58.5738 20.7214C58.5738 20.1834 58.4536 19.6862 58.2155 19.2447C57.9794 18.8054 57.6425 18.426 57.2155 18.1174C56.7928 17.8109 56.3014 17.5752 55.7542 17.4123C55.2092 17.2516 54.632 17.168 54.0355 17.168H50.4949V29.7549H52.9905V24.5641H53.9003L57.3958 29.7078L57.428 29.7549H60.372L56.4903 24.0926C57.0739 23.769 57.5632 23.3211 57.9515 22.7553ZM55.4324 21.8958C55.089 22.2023 54.6213 22.3566 54.0376 22.3566H52.9948V19.4505H54.4797C54.8101 19.4505 55.1427 19.5833 55.4667 19.847C55.7886 20.1084 55.9452 20.3956 55.9452 20.7214C55.9431 21.2057 55.7757 21.5894 55.4324 21.8958Z" fill="#273990"/>
<path d="M57.9515 22.7553C58.3657 22.153 58.5738 21.4694 58.5738 20.7214C58.5738 20.1834 58.4536 19.6862 58.2155 19.2447C57.9794 18.8054 57.6425 18.426 57.2155 18.1174C56.7928 17.8109 56.3014 17.5752 55.7542 17.4123C55.2092 17.2516 54.632 17.168 54.0355 17.168H50.4949V29.7549H52.9905V24.5641H53.9003L57.3958 29.7078L57.428 29.7549H60.372L56.4903 24.0926C57.0739 23.769 57.5632 23.3211 57.9515 22.7553ZM55.4324 21.8958C55.089 22.2023 54.6213 22.3566 54.0376 22.3566H52.9948V19.4505H54.4797C54.8101 19.4505 55.1427 19.5833 55.4667 19.847C55.7886 20.1084 55.9452 20.3956 55.9452 20.7214C55.9431 21.2057 55.7757 21.5894 55.4324 21.8958Z" fill="black" fill-opacity="0.25"/>
<path d="M63.7687 17.168H61.2733V29.7549H63.7687V17.168Z" fill="#273990"/>
<path d="M63.7687 17.168H61.2733V29.7549H63.7687V17.168Z" fill="black" fill-opacity="0.25"/>
<path d="M75.6475 19.1161C75.0767 18.5203 74.345 18.0402 73.4716 17.6931C72.6004 17.3459 71.5898 17.168 70.4697 17.168H65.5665V29.7549H70.2186C72.4867 29.7549 74.2635 29.172 75.4973 28.0211C76.7354 26.8681 77.362 25.3164 77.362 23.4047C77.362 22.6288 77.2182 21.8616 76.9328 21.1264C76.6496 20.387 76.2161 19.7098 75.6475 19.1161ZM73.4845 26.358C72.7034 27.0588 71.431 27.4124 69.7014 27.4124H68.0642V19.5083H69.5684C71.21 19.5083 72.4846 19.8491 73.3579 20.5199C74.2205 21.1843 74.6583 22.1295 74.6583 23.3275C74.6561 24.6413 74.2613 25.6614 73.4845 26.358Z" fill="#273990"/>
<path d="M75.6475 19.1161C75.0767 18.5203 74.345 18.0402 73.4716 17.6931C72.6004 17.3459 71.5898 17.168 70.4697 17.168H65.5665V29.7549H70.2186C72.4867 29.7549 74.2635 29.172 75.4973 28.0211C76.7354 26.8681 77.362 25.3164 77.362 23.4047C77.362 22.6288 77.2182 21.8616 76.9328 21.1264C76.6496 20.387 76.2161 19.7098 75.6475 19.1161ZM73.4845 26.358C72.7034 27.0588 71.431 27.4124 69.7014 27.4124H68.0642V19.5083H69.5684C71.21 19.5083 72.4846 19.8491 73.3579 20.5199C74.2205 21.1843 74.6583 22.1295 74.6583 23.3275C74.6561 24.6413 74.2613 25.6614 73.4845 26.358Z" fill="black" fill-opacity="0.25"/>
<path d="M86.3539 25.0221H88.4052V27.3561C88.1284 27.4804 87.7637 27.5875 87.3216 27.6732C86.2144 27.8919 85.1565 27.8704 84.2209 27.4782C83.6866 27.2553 83.2145 26.9338 82.8176 26.5245C82.4206 26.1151 82.1094 25.6244 81.8906 25.0671C81.6738 24.5078 81.5622 23.8969 81.5622 23.2476C81.5622 22.6646 81.6717 22.116 81.8884 21.6144C82.1051 21.1129 82.4163 20.6714 82.8133 20.3007C83.2102 19.9299 83.6845 19.6363 84.2252 19.4327C84.766 19.2269 85.3518 19.1241 85.9612 19.1241C86.8646 19.1241 87.7121 19.2784 88.4803 19.5848C89.2464 19.8892 89.8859 20.3521 90.3837 20.9608L90.4159 20.9993H90.727V17.9967L90.6734 17.9667C90.1691 17.6838 89.4739 17.4181 88.607 17.1802C87.7379 16.9423 86.8624 16.8223 85.9998 16.8223C84.9698 16.8223 84.0042 16.9916 83.133 17.3281C82.2596 17.6645 81.5 18.1446 80.8713 18.7597C80.2447 19.3727 79.7555 20.0906 79.4186 20.8922C79.0817 21.6937 78.9122 22.5574 78.9122 23.4619C78.9122 24.3663 79.0817 25.2343 79.4186 26.0401C79.7555 26.8481 80.2426 27.5725 80.8713 28.1919C81.4979 28.8113 82.2446 29.3021 83.0922 29.6514C83.9377 30.0008 84.8711 30.1765 85.8646 30.1765C86.3045 30.1765 86.8152 30.1186 87.3817 30.0029C87.9417 29.8893 88.4739 29.7586 88.9632 29.6171C89.4481 29.4757 89.8601 29.3471 90.1863 29.2314C90.521 29.1135 90.7442 29.032 90.8708 28.9806L90.9373 28.9527V22.7782H86.3517V25.0221H86.3539Z" fill="#273990"/>
<path d="M86.3539 25.0221H88.4052V27.3561C88.1284 27.4804 87.7637 27.5875 87.3216 27.6732C86.2144 27.8919 85.1565 27.8704 84.2209 27.4782C83.6866 27.2553 83.2145 26.9338 82.8176 26.5245C82.4206 26.1151 82.1094 25.6244 81.8906 25.0671C81.6738 24.5078 81.5622 23.8969 81.5622 23.2476C81.5622 22.6646 81.6717 22.116 81.8884 21.6144C82.1051 21.1129 82.4163 20.6714 82.8133 20.3007C83.2102 19.9299 83.6845 19.6363 84.2252 19.4327C84.766 19.2269 85.3518 19.1241 85.9612 19.1241C86.8646 19.1241 87.7121 19.2784 88.4803 19.5848C89.2464 19.8892 89.8859 20.3521 90.3837 20.9608L90.4159 20.9993H90.727V17.9967L90.6734 17.9667C90.1691 17.6838 89.4739 17.4181 88.607 17.1802C87.7379 16.9423 86.8624 16.8223 85.9998 16.8223C84.9698 16.8223 84.0042 16.9916 83.133 17.3281C82.2596 17.6645 81.5 18.1446 80.8713 18.7597C80.2447 19.3727 79.7555 20.0906 79.4186 20.8922C79.0817 21.6937 78.9122 22.5574 78.9122 23.4619C78.9122 24.3663 79.0817 25.2343 79.4186 26.0401C79.7555 26.8481 80.2426 27.5725 80.8713 28.1919C81.4979 28.8113 82.2446 29.3021 83.0922 29.6514C83.9377 30.0008 84.8711 30.1765 85.8646 30.1765C86.3045 30.1765 86.8152 30.1186 87.3817 30.0029C87.9417 29.8893 88.4739 29.7586 88.9632 29.6171C89.4481 29.4757 89.8601 29.3471 90.1863 29.2314C90.521 29.1135 90.7442 29.032 90.8708 28.9806L90.9373 28.9527V22.7782H86.3517V25.0221H86.3539Z" fill="black" fill-opacity="0.25"/>
<path d="M95.0244 27.5089V24.2769H99.4148V22.0116H95.0244V19.4119H100.739V17.168H92.5289V29.7528H101.104V27.5089H95.0244Z" fill="#273990"/>
<path d="M95.0244 27.5089V24.2769H99.4148V22.0116H95.0244V19.4119H100.739V17.168H92.5289V29.7528H101.104V27.5089H95.0244Z" fill="black" fill-opacity="0.25"/>
</svg>
