<svg width="20" height="20" viewBox="0 0 16 16" fill="none"
  xmlns="http://www.w3.org/2000/svg">
  <path fill-rule="evenodd" clip-rule="evenodd" d="M4.36127 1.57949C2.89674 1.77291 1.77279 2.89686 1.57937 4.36139C1.4464 5.36822 1.33337 6.62768 1.33337 8.00016C1.33337 9.37265 1.4464 10.6321 1.57937 11.6389C1.77279 13.1035 2.89674 14.2274 4.36127 14.4208C5.3681 14.5538 6.62756 14.6668 8.00004 14.6668C9.37252 14.6668 10.632 14.5538 11.6388 14.4208C13.1033 14.2274 14.2273 13.1035 14.4207 11.6389C14.5537 10.6321 14.6667 9.37265 14.6667 8.00016C14.6667 6.62768 14.5537 5.36822 14.4207 4.36139C14.2273 2.89686 13.1033 1.77291 11.6388 1.57949C10.632 1.44652 9.37253 1.3335 8.00004 1.3335C6.62756 1.3335 5.3681 1.44652 4.36127 1.57949ZM8.00004 4.66683C7.63185 4.66683 7.33337 4.96531 7.33337 5.3335V7.3335H5.33337C4.96518 7.3335 4.66671 7.63197 4.66671 8.00016C4.66671 8.36835 4.96518 8.66683 5.33337 8.66683H7.33337V10.6668C7.33337 11.035 7.63185 11.3335 8.00004 11.3335C8.36823 11.3335 8.66671 11.035 8.66671 10.6668V8.66683H10.6667C11.0349 8.66683 11.3334 8.36835 11.3334 8.00016C11.3334 7.63197 11.0349 7.3335 10.6667 7.3335H8.66671V5.3335C8.66671 4.96531 8.36823 4.66683 8.00004 4.66683Z" fill="currentColor"/>
</svg>
