<svg width="250" height="250" viewBox="0 0 250 250" fill="none"
  xmlns="http://www.w3.org/2000/svg">
  <path d="M237.527 125C244.416 125 250.065 119.402 249.378 112.547C247.036 89.1459 238.125 66.787 223.555 48.1114C206.418 26.145 182.434 10.5335 155.41 3.75554C128.387 -3.02239 99.8736 -0.57814 74.3981 10.7002C48.9226 21.9785 27.9451 41.4444 14.7965 66.0069C1.64791 90.5694 -2.91801 118.821 1.82373 146.275C6.56546 173.728 20.343 198.811 40.9688 217.541C61.5946 236.27 87.8861 247.571 115.669 249.651C139.289 251.419 162.837 246.436 183.61 235.408C189.694 232.178 191.22 224.373 187.4 218.64V218.64C183.58 212.908 175.863 211.436 169.7 214.514C153.623 222.542 135.604 226.128 117.531 224.775C95.2928 223.11 74.2482 214.064 57.7387 199.073C41.2291 184.081 30.2011 164.004 26.4057 142.029C22.6102 120.054 26.265 97.4406 36.7895 77.78C47.3141 58.1193 64.1052 42.5382 84.4966 33.5107C104.888 24.4831 127.711 22.5267 149.341 27.952C170.972 33.3772 190.17 45.8733 203.887 63.4558C215.035 77.7451 222.043 94.7283 224.278 112.559C225.134 119.394 230.638 125 237.527 125V125Z" fill="currentColor"/>
</svg>
